{"glyphs":{"0":{"ha":799,"x_min":49,"x_max":797,"o":"m 49 286 q 65 458 49 368 q 114 634 81 549 q 201 789 147 719 q 328 899 254 858 q 500 940 403 940 q 725 863 653 940 q 797 636 797 785 q 781 464 797 554 q 732 288 765 374 q 645 133 699 203 q 517 23 592 64 q 346 -18 443 -18 q 122 60 194 -18 q 49 286 49 138 m 578 644 q 556 734 578 707 q 486 761 533 761 q 399 722 436 761 q 337 623 363 683 q 297 495 311 563 q 275 369 282 428 q 268 278 268 311 q 290 188 268 215 q 360 161 313 161 q 447 200 410 161 q 509 299 483 239 q 549 427 535 360 q 571 553 564 494 q 578 644 578 611 z "},"1":{"ha":799,"x_min":242,"x_max":701,"o":"m 282 860 l 531 924 l 701 924 l 506 0 l 293 0 l 447 725 l 242 674 l 282 860 z "},"2":{"ha":799,"x_min":10,"x_max":764,"o":"m 200 729 l 215 908 q 324 931 258 922 q 464 940 389 940 q 615 917 547 940 q 724 847 683 894 q 764 722 764 799 q 754 638 764 679 q 719 551 744 596 q 645 454 693 507 q 523 334 597 401 q 342 179 449 267 l 671 179 l 633 0 l 10 0 l 46 169 q 238 327 158 258 q 372 448 318 396 q 458 538 425 500 q 506 604 490 576 q 528 653 522 632 q 533 693 533 675 q 504 746 533 731 q 419 761 475 761 q 301 751 364 761 q 200 729 238 740 z "},"3":{"ha":799,"x_min":14,"x_max":799,"o":"m 231 924 l 799 924 l 765 763 l 504 546 q 647 485 593 536 q 701 324 701 435 q 651 142 701 218 q 506 24 600 65 q 283 -18 413 -18 q 133 -8 199 -18 q 14 19 67 3 l 69 197 q 180 172 122 182 q 299 161 238 161 q 387 177 347 161 q 450 227 426 193 q 474 314 474 261 q 458 365 474 346 q 415 392 443 383 q 344 400 386 400 l 236 400 l 265 539 l 507 749 l 194 749 l 231 924 z "},"4":{"ha":799,"x_min":-1,"x_max":796,"o":"m 515 924 l 796 924 l 675 354 l 764 354 l 726 175 l 638 175 l 600 0 l 394 0 l 432 175 l -1 175 l 35 343 l 515 924 m 235 322 l 147 354 l 469 354 l 563 792 l 581 744 l 235 322 z "},"5":{"ha":799,"x_min":24,"x_max":789,"o":"m 789 924 l 750 739 l 415 739 l 367 568 q 382 570 374 569 q 401 571 390 571 q 569 545 503 571 q 667 467 635 519 q 699 336 699 415 q 653 144 699 224 q 517 24 608 65 q 289 -18 426 -18 q 145 -9 213 -18 q 24 18 78 0 l 79 196 q 192 169 140 178 q 296 161 244 161 q 426 198 382 161 q 471 307 471 235 q 456 358 471 339 q 411 387 442 378 q 335 396 381 396 q 292 394 317 396 q 233 390 267 393 q 154 381 199 386 l 125 421 l 274 924 l 789 924 z "},"6":{"ha":799,"x_min":63,"x_max":817,"o":"m 258 371 l 296 550 q 385 578 332 565 q 485 590 439 590 q 677 534 613 590 q 742 374 742 478 q 697 174 742 263 q 565 33 651 85 q 358 -18 479 -18 q 140 58 218 -18 q 63 310 63 133 q 80 485 63 396 q 134 656 97 575 q 231 801 171 738 q 375 903 290 865 q 572 940 460 940 q 658 937 613 940 q 747 928 704 933 q 817 915 789 922 l 758 739 q 663 756 714 750 q 572 761 613 761 q 427 719 485 761 q 336 608 369 676 q 289 460 303 540 q 275 304 275 381 q 297 196 275 231 q 378 161 319 161 q 458 184 425 161 q 508 246 490 207 q 525 331 525 285 q 501 392 525 372 q 429 411 478 411 q 342 399 389 411 q 258 371 294 386 z "},"7":{"ha":799,"x_min":56,"x_max":840,"o":"m 201 924 l 840 924 l 807 763 l 301 0 l 56 0 l 557 739 l 163 739 l 201 924 z "},"8":{"ha":799,"x_min":25,"x_max":801,"o":"m 408 393 q 288 349 332 393 q 244 236 244 306 q 357 153 244 153 q 478 195 435 153 q 521 306 521 238 q 408 393 521 393 m 640 464 q 707 396 685 439 q 729 299 729 353 q 685 128 729 199 q 552 19 640 57 q 335 -18 464 -18 q 104 40 183 -18 q 25 201 25 97 q 47 319 25 267 q 110 410 68 371 q 208 476 151 450 q 156 533 178 496 q 135 622 135 571 q 230 857 135 774 q 511 940 325 940 q 726 884 651 940 q 801 728 801 828 q 757 565 801 633 q 640 464 713 496 m 489 774 q 385 734 422 774 q 349 628 349 694 q 442 547 349 547 q 545 590 506 547 q 585 699 585 633 q 489 774 585 774 z "},"9":{"ha":799,"x_min":29,"x_max":783,"o":"m 588 551 l 550 372 q 460 344 514 357 q 361 332 407 332 q 169 388 233 332 q 104 549 104 444 q 149 749 104 661 q 281 889 194 838 q 488 940 367 940 q 706 865 628 940 q 783 613 783 790 q 766 437 783 526 q 712 266 749 347 q 615 121 675 185 q 471 19 556 57 q 274 -18 386 -18 q 188 -15 233 -18 q 100 -6 142 -11 q 29 7 58 0 l 88 183 q 183 167 132 174 q 274 161 233 161 q 419 203 361 161 q 510 314 476 246 q 557 462 543 382 q 571 618 571 542 q 549 726 571 692 q 468 761 526 761 q 389 738 422 761 q 338 677 356 715 q 321 592 321 639 q 345 531 321 550 q 417 511 369 511 q 504 524 457 511 q 588 551 551 536 z "},"\u0000":{"ha":0,"x_min":0,"x_max":0,"o":""},"\r":{"ha":390,"x_min":0,"x_max":0,"o":""}," ":{"ha":331,"x_min":0,"x_max":0,"o":""}," ":{"ha":331,"x_min":0,"x_max":0,"o":""},"A":{"ha":885,"x_min":3,"x_max":878,"o":"m 286 299 l 222 0 l 3 0 l 131 600 q 201 781 153 704 q 333 899 249 857 q 546 940 417 940 q 723 913 654 940 q 827 836 792 885 q 870 726 863 788 q 863 596 878 664 l 733 0 l 510 0 l 574 299 l 286 299 m 325 472 l 613 472 l 643 617 q 634 722 657 682 q 529 763 611 763 q 357 617 389 763 l 325 472 z "},"B":{"ha":851,"x_min":18,"x_max":843,"o":"m 319 383 l 269 151 q 310 149 285 150 q 367 147 336 147 q 469 163 431 147 q 527 213 508 179 q 546 297 546 246 q 519 359 546 335 q 432 383 493 383 l 319 383 m 403 760 l 356 547 l 464 547 q 569 578 524 547 q 614 688 614 608 q 590 742 614 724 q 510 760 565 760 l 403 760 m 217 924 l 526 924 q 755 874 669 924 q 842 717 840 825 q 788 556 843 615 q 651 471 733 496 q 749 415 708 458 q 789 299 789 371 q 753 145 789 207 q 656 48 717 83 q 519 -3 594 13 q 365 -18 444 -18 q 200 -9 290 -18 q 18 21 110 0 l 217 924 z "},"C":{"ha":769,"x_min":64,"x_max":808,"o":"m 808 911 l 765 729 q 687 750 733 740 q 579 760 640 760 q 455 726 508 760 q 366 633 401 693 q 313 490 331 572 q 294 308 294 407 q 324 199 294 233 q 444 165 354 165 q 554 179 499 165 q 643 201 610 193 l 624 21 q 522 -7 585 4 q 403 -18 458 -18 q 149 67 233 -18 q 64 307 64 151 q 95 556 64 440 q 190 758 126 671 q 352 892 254 844 q 583 940 450 940 q 717 930 661 940 q 808 911 774 919 z "},"D":{"ha":907,"x_min":18,"x_max":892,"o":"m 217 924 l 531 924 q 796 837 700 924 q 892 592 892 750 q 874 426 892 511 q 819 261 857 340 q 718 119 781 182 q 566 19 656 56 q 357 -18 476 -18 q 199 -10 288 -18 q 18 18 110 -3 l 217 924 m 401 749 l 272 167 q 321 164 290 165 q 372 163 351 163 q 509 204 453 163 q 599 312 565 246 q 649 453 633 378 q 665 593 665 528 q 624 713 665 678 q 501 749 583 749 l 401 749 z "},"E":{"ha":732,"x_min":46,"x_max":778,"o":"m 204 924 l 778 924 l 742 749 l 390 749 l 349 557 l 676 557 l 639 382 l 311 382 l 289 272 q 304 197 279 219 q 386 175 329 175 l 636 175 l 599 0 l 342 0 q 171 27 240 0 q 74 114 101 54 q 67 275 46 174 l 204 924 z "},"F":{"ha":729,"x_min":17,"x_max":804,"o":"m 213 924 l 804 924 l 768 749 l 399 749 l 351 529 l 672 529 l 635 354 l 314 354 l 239 0 l 17 0 l 213 924 z "},"G":{"ha":879,"x_min":64,"x_max":894,"o":"m 894 911 l 856 731 q 749 751 815 742 q 617 760 683 760 q 468 726 529 760 q 369 633 407 693 q 313 495 331 574 q 294 325 294 417 q 327 195 294 229 q 435 161 360 161 q 499 165 468 161 q 556 174 529 168 l 594 361 l 449 361 l 486 532 l 842 532 l 735 39 q 593 0 679 18 q 424 -18 507 -18 q 231 16 313 -18 q 107 125 150 50 q 64 324 64 200 q 102 576 64 463 q 213 771 140 689 q 386 897 285 853 q 614 940 488 940 q 770 933 700 940 q 894 911 840 925 z "},"H":{"ha":953,"x_min":18,"x_max":981,"o":"m 214 924 l 436 924 l 361 565 l 683 565 l 758 924 l 981 924 l 785 0 l 563 0 l 643 382 l 321 382 l 240 0 l 18 0 l 214 924 z "},"I":{"ha":399,"x_min":13,"x_max":431,"o":"m 208 924 l 431 924 l 235 0 l 13 0 l 208 924 z "},"J":{"ha":403,"x_min":-196,"x_max":433,"o":"m 210 924 l 433 924 l 264 125 q 220 -4 249 53 q 147 -107 192 -61 q 40 -194 103 -153 q -107 -276 -22 -235 l -196 -122 q -60 -31 -108 -69 q 12 49 -11 7 q 47 151 35 90 l 210 924 z "},"K":{"ha":914,"x_min":10,"x_max":1000,"o":"m 206 924 l 428 924 l 342 515 l 746 924 l 1000 924 l 610 536 q 683 490 653 521 q 734 401 714 458 q 768 253 754 344 l 803 0 l 569 0 l 547 196 q 524 309 539 268 q 488 367 510 350 q 433 385 465 383 l 283 243 l 232 0 l 10 0 l 206 924 z "},"L":{"ha":693,"x_min":17,"x_max":614,"o":"m 213 924 l 435 924 l 276 175 l 614 175 l 576 0 l 17 0 l 213 924 z "},"M":{"ha":1142,"x_min":10,"x_max":1176,"o":"m 626 256 l 472 256 l 356 567 l 232 0 l 10 0 l 206 924 l 422 924 l 585 494 l 949 924 l 1176 924 l 981 0 l 757 0 l 881 567 l 626 256 z "},"N":{"ha":964,"x_min":17,"x_max":994,"o":"m 213 924 l 379 924 l 675 425 l 776 924 l 994 924 l 799 0 l 581 0 l 615 164 l 358 597 l 232 0 l 17 0 l 213 924 z "},"O":{"ha":940,"x_min":75,"x_max":917,"o":"m 579 940 q 829 858 742 940 q 917 607 917 776 q 885 373 917 485 q 791 173 854 261 q 633 33 728 85 q 413 -18 539 -18 q 163 65 250 -18 q 75 315 75 147 q 106 549 75 438 q 201 749 138 661 q 358 889 264 838 q 579 940 453 940 m 429 164 q 535 202 488 164 q 615 303 582 240 q 665 445 647 367 q 683 603 683 524 q 653 726 683 693 q 563 758 624 758 q 457 720 504 758 q 377 619 410 682 q 326 477 344 556 q 308 319 308 399 q 338 197 308 229 q 429 164 368 164 z "},"P":{"ha":804,"x_min":14,"x_max":822,"o":"m 399 749 l 343 490 q 386 486 364 488 q 432 485 408 485 q 497 495 467 485 q 551 526 528 506 q 587 578 574 546 q 600 654 600 611 q 587 713 600 692 q 547 741 574 733 q 481 749 521 749 l 399 749 m 215 924 l 506 924 q 681 899 610 924 q 787 817 751 874 q 822 665 822 761 q 772 476 822 557 q 633 351 722 396 q 425 307 543 307 q 365 309 394 307 q 306 315 336 311 l 236 0 l 14 0 l 215 924 z "},"Q":{"ha":940,"x_min":75,"x_max":917,"o":"m 272 -226 l 307 -64 q 419 -80 357 -64 q 540 -112 481 -96 q 644 -129 600 -129 q 699 -120 676 -129 q 744 -93 722 -111 l 796 -243 q 720 -288 765 -272 q 610 -304 675 -304 q 518 -292 564 -304 q 428 -265 472 -281 q 345 -238 385 -250 q 272 -226 306 -226 m 579 940 q 829 858 742 940 q 917 607 917 776 q 885 373 917 485 q 791 173 854 261 q 633 33 728 85 q 413 -18 539 -18 q 163 65 250 -18 q 75 315 75 147 q 106 549 75 438 q 201 749 138 661 q 358 889 264 838 q 579 940 453 940 m 429 164 q 535 202 488 164 q 615 303 582 240 q 665 445 647 367 q 683 603 683 524 q 653 726 683 693 q 563 758 624 758 q 457 720 504 758 q 377 619 410 682 q 326 477 344 556 q 308 319 308 399 q 338 197 308 229 q 429 164 368 164 z "},"R":{"ha":843,"x_min":17,"x_max":824,"o":"m 213 924 l 514 924 q 744 867 665 924 q 824 682 824 811 q 796 547 824 606 q 722 449 768 488 q 621 392 675 410 q 684 340 661 376 q 714 233 707 303 l 736 0 l 513 0 l 497 186 q 482 261 493 232 q 444 303 471 290 q 371 317 418 317 l 306 317 l 239 0 l 17 0 l 213 924 m 603 663 q 576 731 603 714 q 493 749 549 749 l 397 749 l 342 493 l 421 493 q 524 515 483 493 q 583 574 564 536 q 603 663 603 611 z "},"S":{"ha":739,"x_min":8,"x_max":751,"o":"m 751 918 l 700 747 q 611 761 663 754 q 519 768 560 768 q 394 748 433 768 q 354 686 354 728 q 377 626 354 653 q 437 574 400 599 q 514 522 474 550 q 591 460 554 494 q 651 378 628 425 q 674 268 674 332 q 627 101 674 164 q 495 10 581 39 q 293 -18 410 -18 q 129 -3 199 -18 q 8 26 60 11 l 63 197 q 171 167 117 181 q 297 154 225 154 q 412 179 379 154 q 444 243 444 204 q 422 308 444 279 q 362 365 399 338 q 284 422 325 393 q 206 487 243 451 q 147 568 169 522 q 124 674 124 614 q 174 830 124 771 q 315 915 225 889 q 518 940 404 940 q 643 933 579 940 q 751 918 707 926 z "},"T":{"ha":839,"x_min":128,"x_max":917,"o":"m 164 924 l 917 924 l 881 749 l 618 749 l 458 0 l 236 0 l 396 749 l 128 749 l 164 924 z "},"U":{"ha":914,"x_min":58,"x_max":943,"o":"m 201 924 l 425 924 l 297 319 q 297 231 286 265 q 342 178 308 196 q 431 161 376 161 q 503 167 467 161 q 563 179 540 172 l 721 924 l 943 924 l 756 40 q 591 -1 679 15 q 408 -18 503 -18 q 227 7 299 -18 q 117 78 156 32 q 68 188 78 125 q 75 328 58 251 l 201 924 z "},"V":{"ha":932,"x_min":153,"x_max":1015,"o":"m 507 0 l 274 0 l 153 924 l 375 924 l 447 243 q 626 537 535 371 q 799 924 717 703 l 1015 924 q 867 578 953 740 q 689 272 782 415 q 507 0 596 128 z "},"W":{"ha":1254,"x_min":157,"x_max":1333,"o":"m 390 0 l 175 0 l 157 924 l 378 924 l 367 294 l 621 758 l 804 758 l 860 283 q 994 564 928 406 q 1125 924 1060 722 l 1333 924 q 1238 661 1288 786 q 1136 422 1189 536 q 1027 202 1083 307 q 911 0 971 97 l 714 0 l 664 507 l 390 0 z "},"X":{"ha":913,"x_min":-43,"x_max":1001,"o":"m 408 924 l 542 576 l 590 517 l 794 0 l 558 0 l 425 357 l 376 411 l 172 924 l 408 924 m 361 472 l 457 321 l 192 0 l -43 0 l 361 472 m 596 456 l 500 608 l 767 924 l 1001 924 l 596 456 z "},"Y":{"ha":918,"x_min":149,"x_max":1006,"o":"m 276 0 l 346 324 l 149 924 l 375 924 l 504 517 q 573 591 535 544 q 651 694 611 638 q 724 810 690 750 q 778 924 757 869 l 1006 924 q 883 700 953 813 q 732 492 813 588 q 568 331 651 396 l 497 0 l 276 0 z "},"Z":{"ha":814,"x_min":-19,"x_max":865,"o":"m 189 924 l 865 924 l 831 756 l 293 176 l 721 176 l 683 0 l -19 0 l 17 168 l 554 749 l 153 749 l 189 924 z "},"Æ":{"ha":1219,"x_min":1,"x_max":1267,"o":"m 708 924 l 1267 924 l 1231 749 l 882 749 l 838 544 l 1163 544 l 1126 369 l 801 369 l 781 274 q 796 194 768 214 q 872 175 824 175 l 1124 175 l 1086 0 l 843 0 q 667 26 740 0 q 563 110 594 51 q 553 265 532 168 l 576 369 l 301 369 l 222 0 l 1 0 l 133 617 q 256 857 167 774 q 514 940 346 940 q 633 923 585 940 q 697 872 681 906 l 708 924 m 338 542 l 611 542 l 626 615 q 618 723 642 685 q 519 761 594 761 q 408 723 447 761 q 353 615 368 685 l 338 542 z "},"Œ":{"ha":1275,"x_min":60,"x_max":1322,"o":"m 564 940 q 773 858 700 940 q 846 607 846 776 q 818 373 846 485 q 734 173 790 261 q 594 33 678 85 q 397 -18 510 -18 q 147 65 235 -18 q 60 315 60 147 q 91 549 60 438 q 185 749 122 661 q 343 889 249 838 q 564 940 438 940 m 414 164 q 519 202 472 164 q 599 303 567 240 q 650 445 632 367 q 668 603 668 524 q 638 726 668 693 q 547 758 608 758 q 442 720 489 758 q 362 619 394 682 q 311 477 329 556 q 293 319 293 399 q 323 197 293 229 q 414 164 353 164 m 775 924 l 1322 924 l 1286 749 l 938 749 l 896 557 l 1222 557 l 1185 382 l 858 382 l 836 274 q 853 194 824 214 q 929 175 882 175 l 1179 175 l 1142 0 l 879 0 q 794 11 838 0 q 715 47 750 22 q 662 114 679 72 q 654 217 644 156 l 775 924 z "},"Ł":{"ha":757,"x_min":28,"x_max":676,"o":"m 278 924 l 501 924 l 429 585 l 674 679 l 633 492 l 390 397 l 343 175 l 676 175 l 639 0 l 82 0 l 149 314 l 28 267 l 68 454 l 189 500 l 278 924 z "},"Ø":{"ha":931,"x_min":-21,"x_max":993,"o":"m 993 938 l 104 -118 l -21 -22 l 868 1033 l 993 938 m 571 940 q 821 858 733 940 q 908 607 908 776 q 877 373 908 485 q 783 173 846 261 q 625 33 719 85 q 404 -18 531 -18 q 154 65 242 -18 q 67 315 67 147 q 98 549 67 438 q 192 749 129 661 q 350 889 256 838 q 571 940 444 940 m 421 150 q 528 190 481 150 q 609 294 575 229 q 661 440 643 360 q 679 603 679 521 q 649 737 679 701 q 554 772 618 772 q 447 733 494 772 q 366 628 400 693 q 314 482 332 563 q 296 319 296 401 q 326 185 296 221 q 421 150 357 150 z "},"Ð":{"ha":961,"x_min":50,"x_max":949,"o":"m 50 382 l 88 557 l 596 557 l 558 382 l 50 382 m 274 924 l 588 924 q 853 837 757 924 q 949 592 949 750 q 931 426 949 511 q 876 261 914 340 q 775 119 838 182 q 623 19 713 56 q 414 -18 533 -18 q 256 -10 344 -18 q 75 18 167 -3 l 274 924 m 458 749 l 329 167 q 377 164 347 165 q 429 163 407 163 q 566 204 510 163 q 656 312 622 246 q 706 453 690 378 q 722 593 722 528 q 681 713 722 678 q 558 749 640 749 l 458 749 z "},"Þ":{"ha":793,"x_min":14,"x_max":789,"o":"m 365 601 l 310 343 q 352 339 329 340 q 399 338 375 338 q 464 348 433 338 q 517 378 494 358 q 553 431 540 399 q 567 507 567 464 q 553 565 567 544 q 514 594 540 586 q 447 601 488 601 l 365 601 m 215 924 l 432 924 l 399 776 l 472 776 q 647 752 576 776 q 753 671 718 728 q 789 518 789 614 q 739 329 789 410 q 599 204 689 249 q 392 160 510 160 q 332 161 361 160 q 272 168 303 163 l 236 0 l 14 0 l 215 924 z "},"a":{"ha":810,"x_min":24,"x_max":750,"o":"m 269 -18 q 146 8 201 -18 q 57 94 90 35 q 24 256 24 154 q 74 498 24 392 q 221 665 125 604 q 453 725 317 725 q 608 706 529 725 q 746 658 688 688 l 656 235 q 650 194 650 213 q 662 163 650 171 q 696 156 674 156 q 720 157 707 156 q 750 163 733 158 l 721 -1 q 668 -14 694 -10 q 615 -18 642 -18 q 524 1 558 -18 q 476 51 490 19 q 392 4 443 26 q 269 -18 340 -18 m 513 544 q 475 555 497 550 q 431 560 453 560 q 325 520 369 560 q 256 413 281 481 q 232 261 232 346 q 254 173 232 199 q 317 147 276 147 q 381 160 347 147 q 438 190 415 172 l 513 544 z "},"b":{"ha":753,"x_min":1,"x_max":724,"o":"m 207 1014 l 415 1014 l 349 700 q 407 716 371 707 q 485 725 443 725 q 606 697 551 725 q 692 610 660 669 q 724 454 724 550 q 673 208 724 314 q 529 42 622 101 q 308 -18 436 -18 q 144 1 228 -18 q 1 44 60 19 l 207 1014 m 235 165 q 274 153 250 158 q 319 147 297 147 q 424 187 381 147 q 492 294 468 226 q 515 446 515 363 q 493 534 515 508 q 431 560 471 560 q 367 547 400 560 q 310 517 333 535 l 235 165 z "},"c":{"ha":594,"x_min":22,"x_max":628,"o":"m 628 701 l 572 539 q 507 551 540 546 q 436 557 474 557 q 347 534 386 557 q 283 471 308 511 q 244 378 257 431 q 231 264 231 325 q 256 175 231 203 q 357 147 281 147 q 432 153 393 147 q 504 167 471 158 l 488 4 q 409 -12 453 -6 q 317 -18 365 -18 q 96 48 169 -18 q 22 260 22 114 q 51 443 22 358 q 133 591 79 528 q 265 690 188 654 q 439 725 342 725 q 536 719 488 725 q 628 701 585 714 z "},"d":{"ha":801,"x_min":24,"x_max":821,"o":"m 269 -18 q 146 8 201 -18 q 57 94 90 35 q 24 256 24 154 q 74 498 24 392 q 218 665 124 604 q 446 725 313 725 q 495 722 471 725 q 546 713 519 719 l 611 1014 l 821 1014 l 656 235 q 650 194 650 213 q 662 163 650 171 q 696 156 674 156 q 720 157 707 156 q 750 163 733 158 l 721 -1 q 668 -14 694 -10 q 615 -18 642 -18 q 524 1 558 -18 q 476 51 490 19 q 392 4 443 26 q 269 -18 340 -18 m 513 544 q 475 556 497 551 q 431 560 453 560 q 325 520 369 560 q 256 413 281 481 q 232 261 232 346 q 254 173 232 199 q 317 147 276 147 q 381 160 347 147 q 438 190 415 172 l 513 544 z "},"e":{"ha":697,"x_min":29,"x_max":690,"o":"m 228 282 l 249 408 q 276 406 261 407 q 310 405 292 406 q 350 404 328 404 q 444 432 414 404 q 474 507 474 460 q 458 551 474 535 q 408 568 443 568 q 329 540 367 568 q 268 444 292 513 q 244 257 244 376 q 276 182 244 210 q 393 154 307 154 q 499 163 439 154 q 594 182 558 171 l 578 14 q 471 -9 525 0 q 353 -18 417 -18 q 186 11 260 -18 q 71 101 113 40 q 29 257 29 163 q 55 447 29 361 q 131 596 81 533 q 255 692 181 658 q 425 725 329 725 q 625 666 560 724 q 690 524 690 608 q 647 377 690 432 q 528 299 603 322 q 358 275 453 275 q 283 278 315 275 q 228 282 250 281 z "},"f":{"ha":528,"x_min":-111,"x_max":679,"o":"m 96 707 l 196 707 l 210 771 q 323 969 239 907 q 536 1032 407 1032 q 611 1028 572 1032 q 679 1018 650 1025 l 628 857 q 535 865 582 865 q 462 846 492 865 q 421 771 432 826 l 407 707 l 582 707 l 547 543 l 372 543 l 276 92 q 239 -25 263 26 q 178 -119 215 -76 q 90 -201 142 -162 q -31 -278 39 -239 l -111 -147 q -47 -98 -75 -124 q 5 -41 -18 -72 q 44 28 28 -10 q 69 111 60 65 l 161 543 l 61 543 l 96 707 z "},"g":{"ha":746,"x_min":-25,"x_max":751,"o":"m 271 -4 q 149 22 204 -4 q 62 106 94 49 q 29 253 29 163 q 80 499 29 393 q 224 665 131 606 q 444 725 318 725 q 609 706 525 725 q 751 663 693 688 l 617 25 q 539 -162 592 -96 q 405 -253 486 -228 q 211 -278 324 -278 q 74 -265 139 -278 q -25 -240 10 -253 l 26 -78 q 119 -101 60 -90 q 232 -112 178 -112 q 348 -89 306 -112 q 404 -6 390 -65 l 414 33 l 424 24 q 358 4 399 13 q 271 -4 318 -4 m 518 542 q 480 554 503 549 q 433 560 457 560 q 329 520 374 560 q 261 413 285 481 q 238 261 238 346 q 260 183 238 206 q 325 161 283 161 q 390 174 356 161 q 446 204 424 186 l 518 542 z "},"h":{"ha":744,"x_min":-7,"x_max":729,"o":"m 201 0 l -7 0 l 208 1014 l 415 1014 l 351 711 q 408 722 378 718 q 468 725 438 725 q 611 700 550 725 q 701 617 672 675 q 708 460 729 558 l 610 0 l 401 0 l 496 447 q 497 513 504 489 q 467 548 489 538 q 413 558 446 558 q 362 555 386 558 q 318 546 338 551 l 201 0 z "},"i":{"ha":406,"x_min":11,"x_max":413,"o":"m 143 707 l 351 707 l 247 231 q 249 173 238 190 q 289 156 260 156 q 320 158 306 156 q 346 163 335 160 l 310 -6 q 261 -15 286 -11 q 213 -18 236 -18 q 59 43 107 -18 q 39 232 11 104 l 143 707 m 313 1022 q 386 1002 360 1022 q 413 940 413 982 q 372 841 413 876 q 267 806 331 806 q 193 826 219 806 q 167 888 167 846 q 208 987 167 951 q 313 1022 249 1022 z "},"j":{"ha":343,"x_min":-162,"x_max":413,"o":"m 144 707 l 353 707 l 226 113 q 186 -16 211 40 q 124 -117 161 -72 q 34 -200 86 -161 q -87 -278 -18 -239 l -162 -147 q -98 -99 -126 -125 q -47 -41 -69 -72 q -8 28 -24 -10 q 18 111 8 65 l 144 707 m 313 1022 q 386 1002 360 1022 q 413 940 413 982 q 372 841 413 876 q 267 806 331 806 q 193 826 219 806 q 167 888 167 846 q 208 987 167 951 q 313 1022 249 1022 z "},"k":{"ha":732,"x_min":-7,"x_max":772,"o":"m 208 1014 l 417 1014 l 289 411 l 558 707 l 772 707 l 485 399 q 578 322 549 379 q 625 171 608 265 l 654 0 l 446 0 l 418 146 q 383 249 404 215 q 325 285 361 283 l 247 217 l 201 0 l -7 0 l 208 1014 z "},"l":{"ha":440,"x_min":22,"x_max":414,"o":"m 206 1014 l 414 1014 l 247 231 q 251 173 239 190 q 294 156 263 156 q 343 160 321 156 q 382 168 365 164 l 347 -1 q 285 -14 317 -10 q 221 -18 253 -18 q 101 9 147 -18 q 38 92 54 36 q 40 231 22 147 l 206 1014 z "},"m":{"ha":1113,"x_min":-8,"x_max":1101,"o":"m 200 0 l -8 0 l 133 669 q 288 710 213 694 q 438 725 363 725 q 589 701 525 725 q 682 623 653 678 q 690 474 711 568 l 589 0 l 381 0 l 478 461 q 469 537 489 515 q 408 558 449 558 q 359 555 383 558 q 317 546 335 551 l 200 0 m 693 539 l 557 657 q 696 706 628 688 q 838 725 764 725 q 982 701 919 725 q 1073 623 1044 678 q 1081 474 1101 568 l 979 0 l 771 0 l 868 461 q 859 537 879 515 q 799 558 839 558 q 742 553 769 558 q 693 539 714 547 z "},"n":{"ha":744,"x_min":-7,"x_max":731,"o":"m 201 0 l -7 0 l 135 669 q 290 710 215 694 q 442 725 365 725 q 601 700 533 725 q 700 617 669 675 q 708 460 731 558 l 610 0 l 401 0 l 496 447 q 497 513 504 489 q 467 548 489 538 q 413 558 446 558 q 362 555 386 558 q 318 546 338 551 l 201 0 z "},"o":{"ha":754,"x_min":22,"x_max":733,"o":"m 429 725 q 653 659 574 725 q 733 450 733 593 q 708 283 733 365 q 633 132 683 200 q 506 23 582 64 q 326 -18 429 -18 q 102 48 182 -18 q 22 257 22 114 q 47 424 22 342 q 123 575 72 507 q 250 684 174 643 q 429 725 326 725 m 335 147 q 416 171 381 147 q 476 236 451 194 q 513 334 500 278 q 525 454 525 390 q 499 535 525 511 q 421 560 474 560 q 340 536 375 560 q 280 471 304 513 q 243 374 256 429 q 231 253 231 318 q 256 172 231 197 q 335 147 282 147 z "},"p":{"ha":754,"x_min":-62,"x_max":724,"o":"m 438 725 q 583 697 518 725 q 685 610 647 669 q 724 454 724 550 q 674 208 724 314 q 533 42 624 101 q 322 -18 443 -18 q 172 10 244 -18 q 50 75 99 38 l 229 164 q 270 152 246 157 q 319 147 294 147 q 424 187 381 147 q 492 294 468 226 q 515 446 515 363 q 490 533 515 508 q 418 558 464 558 q 366 555 393 558 q 317 546 339 551 l 144 -261 l -62 -261 l 135 669 q 281 708 200 690 q 438 725 363 725 z "},"q":{"ha":747,"x_min":24,"x_max":746,"o":"m 550 -261 l 342 -261 l 399 7 q 340 -9 376 0 q 263 -18 304 -18 q 142 10 197 -18 q 56 97 88 38 q 24 253 24 157 q 74 499 24 393 q 219 665 125 606 q 439 725 313 725 q 603 706 519 725 q 746 663 688 688 l 550 -261 m 513 542 q 474 554 497 549 q 428 560 451 560 q 324 520 368 560 q 256 413 279 481 q 232 261 232 346 q 254 173 232 199 q 317 147 276 147 q 381 160 347 147 q 438 190 415 172 l 513 542 z "},"r":{"ha":485,"x_min":-11,"x_max":544,"o":"m 544 725 l 508 558 q 411 555 460 558 q 313 544 363 551 l 197 0 l -11 0 l 131 669 q 342 713 235 701 q 544 725 450 725 z "},"s":{"ha":610,"x_min":-12,"x_max":617,"o":"m 617 703 l 571 543 q 491 557 532 551 q 396 563 450 563 q 315 551 344 563 q 286 514 286 539 q 313 467 286 488 q 380 427 340 447 q 459 380 419 407 q 526 313 499 353 q 553 211 553 272 q 511 78 553 129 q 394 5 469 28 q 218 -18 318 -18 q 87 -7 150 -18 q -12 18 24 4 l 39 176 q 122 156 71 165 q 219 146 174 146 q 305 164 285 146 q 325 206 325 182 q 306 247 325 229 q 259 281 288 264 q 197 317 231 297 q 135 362 164 336 q 88 424 107 388 q 69 511 69 461 q 112 640 69 593 q 229 706 154 686 q 401 725 304 725 q 515 719 460 725 q 617 703 569 713 z "},"t":{"ha":544,"x_min":61,"x_max":581,"o":"m 264 861 l 435 861 l 401 707 l 581 707 l 546 544 l 367 544 l 301 233 q 308 172 292 189 q 360 156 325 156 q 413 160 385 156 q 460 169 440 164 l 431 3 q 360 -13 396 -8 q 289 -18 324 -18 q 162 8 213 -18 q 92 90 111 35 q 92 228 74 144 l 158 544 l 61 544 l 96 707 l 193 707 l 264 861 z "},"u":{"ha":796,"x_min":17,"x_max":742,"o":"m 707 -1 q 601 -18 656 -18 q 511 -1 546 -18 q 464 47 476 17 q 381 1 433 21 q 264 -18 328 -18 q 124 11 182 -18 q 41 101 65 40 q 38 254 17 161 l 133 707 l 340 707 l 246 258 q 243 192 238 217 q 267 158 249 168 q 314 147 286 147 q 376 160 346 147 q 424 192 406 174 l 533 707 l 742 707 l 642 235 q 642 174 632 192 q 679 156 651 156 q 704 157 690 156 q 736 163 718 158 l 707 -1 z "},"v":{"ha":726,"x_min":85,"x_max":785,"o":"m 300 707 l 333 189 q 413 333 374 258 q 494 500 453 408 q 578 707 536 592 l 785 707 q 622 352 721 529 q 401 0 524 175 l 161 0 l 85 707 l 300 707 z "},"w":{"ha":1065,"x_min":89,"x_max":1114,"o":"m 708 707 l 722 217 q 822 430 776 315 q 911 707 868 544 l 1114 707 q 1037 470 1081 588 q 935 236 993 353 q 803 0 878 119 l 576 0 l 565 488 l 346 0 l 101 0 l 89 707 l 308 707 l 286 222 l 504 707 l 708 707 z "},"x":{"ha":711,"x_min":-64,"x_max":771,"o":"m 328 707 l 407 481 l 468 378 l 610 0 l 394 0 l 306 253 l 253 336 l 113 707 l 328 707 m 478 338 l 393 476 l 560 707 l 771 707 l 478 338 m 244 388 l 332 250 l 144 0 l -64 0 l 244 388 z "},"y":{"ha":733,"x_min":-42,"x_max":742,"o":"m 268 1 q 128 29 186 1 q 44 113 69 57 q 36 251 19 169 l 133 707 l 340 707 l 250 278 q 247 212 242 236 q 272 177 253 188 q 318 167 290 167 q 381 180 350 167 q 429 211 411 193 l 533 707 l 742 707 l 594 8 q 517 -167 571 -104 q 382 -253 464 -229 q 193 -278 300 -278 q 57 -265 124 -278 q -42 -242 -10 -253 l 8 -89 q 97 -113 40 -103 q 206 -124 153 -124 q 292 -111 256 -124 q 351 -73 328 -99 q 386 -6 375 -47 l 404 60 l 454 67 q 386 24 433 47 q 268 1 339 1 z "},"z":{"ha":649,"x_min":-39,"x_max":674,"o":"m 125 707 l 674 707 l 643 561 l 264 163 l 574 163 l 539 0 l -39 0 l -8 146 l 379 544 l 90 544 l 125 707 z "},"æ":{"ha":1057,"x_min":-7,"x_max":1058,"o":"m 596 282 l 617 408 q 644 406 629 407 q 678 405 660 406 q 718 404 696 404 q 812 432 782 404 q 842 507 842 460 q 826 551 842 535 q 776 568 811 568 q 698 540 736 568 q 636 445 660 513 q 613 257 613 378 q 644 182 613 210 q 761 154 675 154 q 867 163 807 154 q 963 182 926 171 l 946 14 q 839 -9 893 0 q 721 -18 785 -18 q 554 11 628 -18 q 439 101 481 40 q 397 257 397 163 q 423 447 397 361 q 499 595 449 532 q 623 692 549 658 q 793 725 697 725 q 993 667 928 724 q 1058 524 1058 610 q 1015 377 1058 432 q 896 299 971 322 q 726 275 821 275 q 651 278 683 275 q 596 282 618 281 m 408 290 q 361 296 390 293 q 315 299 332 299 q 231 276 267 299 q 194 196 194 253 q 217 142 194 157 q 274 126 239 126 q 349 133 315 126 q 414 150 382 140 l 531 46 q 455 13 501 28 q 360 -9 408 -1 q 276 -17 313 -17 q 72 31 150 -17 q -7 185 -7 78 q 19 303 -7 256 q 90 381 46 351 q 187 422 133 410 q 294 435 240 435 q 360 432 331 435 q 415 424 389 429 l 426 478 q 415 549 438 531 q 332 567 392 567 q 226 558 285 567 q 122 539 168 550 l 146 693 q 260 714 196 706 q 381 722 325 722 q 492 706 442 722 q 574 654 542 690 l 408 290 z "},"œ":{"ha":1150,"x_min":22,"x_max":1143,"o":"m 415 725 q 617 659 546 725 q 689 450 689 593 q 666 283 689 365 q 597 132 643 200 q 479 23 550 64 q 313 -18 408 -18 q 99 48 175 -18 q 22 257 22 114 q 47 424 22 342 q 119 575 71 507 q 242 684 168 643 q 415 725 315 725 m 321 147 q 396 171 363 147 q 451 236 429 194 q 485 334 474 278 q 497 454 497 390 q 475 535 497 511 q 407 560 453 560 q 333 536 365 560 q 277 471 300 513 q 242 374 254 429 q 231 253 231 318 q 253 172 231 197 q 321 147 275 147 m 681 282 l 701 408 q 729 406 714 407 q 763 405 744 406 q 803 404 781 404 q 897 432 867 404 q 926 507 926 460 q 911 551 926 535 q 861 568 896 568 q 783 540 821 568 q 721 445 744 513 q 697 257 697 378 q 728 182 697 210 q 846 154 760 154 q 951 163 892 154 q 1047 182 1011 171 l 1031 14 q 924 -9 978 0 q 806 -18 869 -18 q 647 11 717 -18 q 538 101 578 40 q 499 257 499 163 q 523 447 499 361 q 596 595 547 532 q 715 692 644 658 q 878 725 786 725 q 1078 667 1013 724 q 1143 524 1143 610 q 1099 377 1143 432 q 981 299 1056 322 q 811 275 906 275 q 735 278 768 275 q 681 282 703 281 z "},"ł":{"ha":496,"x_min":22,"x_max":507,"o":"m 60 507 l 507 672 l 469 497 l 22 332 l 60 507 m 261 1014 l 469 1014 l 303 231 q 306 173 294 190 q 350 156 318 156 q 399 160 376 156 q 438 168 421 164 l 403 -1 q 340 -13 372 -8 q 276 -18 308 -18 q 156 9 203 -18 q 94 92 110 36 q 96 231 78 147 l 261 1014 z "},"ø":{"ha":743,"x_min":-47,"x_max":790,"o":"m 75 -118 l -47 -42 l 668 822 l 790 746 l 75 -118 m 424 725 q 648 659 568 725 q 728 450 728 593 q 703 283 728 365 q 627 132 678 200 q 500 23 576 64 q 321 -18 424 -18 q 97 48 176 -18 q 17 257 17 114 q 42 424 17 342 q 117 575 67 507 q 244 684 168 643 q 424 725 321 725 m 329 147 q 411 171 375 147 q 472 236 447 194 q 510 334 497 278 q 524 454 524 390 q 497 535 524 511 q 415 560 471 560 q 333 536 369 560 q 272 471 297 513 q 234 374 247 429 q 221 253 221 318 q 247 172 221 197 q 329 147 274 147 z "},"ð":{"ha":718,"x_min":25,"x_max":810,"o":"m 810 996 l 781 857 l 308 729 l 338 868 l 810 996 m 606 1014 q 684 824 658 915 q 710 628 710 733 q 701 469 710 556 q 667 297 692 382 q 595 140 642 211 q 474 26 549 69 q 292 -17 400 -17 q 94 55 164 -17 q 25 253 25 126 q 48 435 25 353 q 116 579 71 518 q 228 674 161 640 q 383 707 296 707 q 471 694 428 707 q 535 658 514 682 q 517 743 532 694 q 481 844 501 792 q 437 941 460 896 q 394 1014 414 986 l 606 1014 m 471 460 q 463 511 471 492 q 437 539 454 531 q 393 547 419 547 q 326 523 354 547 q 281 460 299 499 q 251 379 263 422 q 235 297 240 336 q 231 233 231 258 q 239 183 231 203 q 265 156 247 164 q 308 147 282 147 q 375 172 347 147 q 422 235 403 196 q 451 317 440 274 q 466 399 461 360 q 471 460 471 438 z "},"þ":{"ha":744,"x_min":-62,"x_max":724,"o":"m 438 725 q 583 697 518 725 q 685 610 647 669 q 724 454 724 550 q 674 208 724 314 q 533 42 624 101 q 322 -18 443 -18 q 172 10 244 -18 q 50 75 99 38 l 229 164 q 271 153 246 158 q 319 147 296 147 q 424 187 381 147 q 492 294 468 226 q 515 446 515 363 q 490 533 515 508 q 418 558 464 558 q 366 555 393 558 q 317 546 339 551 l 144 -261 l -62 -261 l 208 1014 l 414 1014 l 351 719 q 395 724 374 722 q 438 725 417 725 z "},"ß":{"ha":751,"x_min":-169,"x_max":749,"o":"m 385 478 q 399 556 385 522 q 435 619 414 590 q 478 674 457 647 q 515 733 500 701 q 529 803 529 764 q 510 852 529 839 q 464 865 492 865 q 401 846 432 865 q 360 771 371 826 l 219 113 q 179 -16 204 40 q 117 -117 154 -72 q 27 -200 79 -161 q -94 -278 -25 -239 l -169 -147 q -105 -98 -133 -124 q -53 -41 -76 -72 q -15 28 -31 -10 q 11 111 1 65 l 153 785 q 268 978 182 924 q 478 1032 354 1032 q 677 976 606 1032 q 749 822 749 921 q 733 733 749 771 q 694 665 717 694 q 648 610 671 635 q 609 561 625 585 q 593 511 593 538 q 603 465 593 488 q 630 419 614 443 q 662 367 646 394 q 688 306 678 339 q 699 232 699 272 q 624 47 699 113 q 410 -18 549 -18 q 336 -13 375 -18 q 269 -3 297 -8 l 308 151 q 356 145 332 149 q 399 142 381 142 q 467 165 444 142 q 490 219 490 189 q 480 269 490 247 q 453 313 469 292 q 422 358 438 335 q 395 410 406 382 q 385 478 385 439 z "},"ı":{"ha":406,"x_min":11,"x_max":351,"o":"m 143 707 l 351 707 l 247 231 q 249 173 238 190 q 289 156 260 156 q 320 158 306 156 q 346 163 335 160 l 310 -6 q 261 -15 286 -11 q 213 -18 236 -18 q 59 43 107 -18 q 39 232 11 104 l 143 707 z "},"ȷ":{"ha":343,"x_min":-162,"x_max":353,"o":"m 144 707 l 353 707 l 226 113 q 186 -16 211 40 q 124 -117 161 -72 q 34 -200 86 -161 q -87 -278 -18 -239 l -162 -147 q -98 -99 -126 -125 q -47 -41 -69 -72 q -8 28 -24 -10 q 18 111 8 65 l 144 707 z "},"Á":{"ha":885,"x_min":3,"x_max":878,"o":"m 286 299 l 222 0 l 3 0 l 131 600 q 201 781 153 704 q 333 899 249 857 q 546 940 417 940 q 723 913 654 940 q 827 836 792 885 q 870 726 863 788 q 863 596 878 664 l 733 0 l 510 0 l 574 299 l 286 299 m 325 472 l 613 472 l 643 617 q 634 722 657 682 q 529 763 611 763 q 357 617 389 763 l 325 472 m 621 1231 l 853 1231 l 628 1007 l 464 1007 l 621 1231 z "},"Â":{"ha":885,"x_min":3,"x_max":878,"o":"m 286 299 l 222 0 l 3 0 l 131 600 q 201 781 153 704 q 333 899 249 857 q 546 940 417 940 q 723 913 654 940 q 827 836 792 885 q 870 726 863 788 q 863 596 878 664 l 733 0 l 510 0 l 574 299 l 286 299 m 325 472 l 613 472 l 643 617 q 634 722 657 682 q 529 763 611 763 q 357 617 389 763 l 325 472 m 538 1231 l 718 1231 l 817 1007 l 643 1007 l 611 1124 l 529 1007 l 344 1007 l 538 1231 z "},"Ä":{"ha":885,"x_min":3,"x_max":878,"o":"m 286 299 l 222 0 l 3 0 l 131 600 q 201 781 153 704 q 333 899 249 857 q 546 940 417 940 q 723 913 654 940 q 827 836 792 885 q 870 726 863 788 q 863 596 878 664 l 733 0 l 510 0 l 574 299 l 286 299 m 325 472 l 613 472 l 643 617 q 634 722 657 682 q 529 763 611 763 q 357 617 389 763 l 325 472 m 500 1229 q 561 1209 539 1229 q 583 1151 583 1189 q 547 1057 583 1093 q 456 1021 510 1021 q 394 1041 417 1021 q 372 1099 372 1061 q 409 1193 372 1157 q 500 1229 446 1229 m 757 1229 q 818 1209 796 1229 q 840 1151 840 1189 q 803 1057 840 1093 q 713 1021 767 1021 q 651 1041 674 1021 q 629 1099 629 1061 q 666 1193 629 1157 q 757 1229 703 1229 z "},"À":{"ha":885,"x_min":3,"x_max":878,"o":"m 286 299 l 222 0 l 3 0 l 131 600 q 201 781 153 704 q 333 899 249 857 q 546 940 417 940 q 723 913 654 940 q 827 836 792 885 q 870 726 863 788 q 863 596 878 664 l 733 0 l 510 0 l 574 299 l 286 299 m 325 472 l 613 472 l 643 617 q 634 722 657 682 q 529 763 611 763 q 357 617 389 763 l 325 472 m 404 1231 l 626 1231 l 686 1007 l 535 1007 l 404 1231 z "},"Å":{"ha":885,"x_min":3,"x_max":878,"o":"m 286 299 l 222 0 l 3 0 l 131 600 q 201 781 153 704 q 333 899 249 857 q 546 940 417 940 q 723 913 654 940 q 827 836 792 885 q 870 726 863 788 q 863 596 878 664 l 733 0 l 510 0 l 574 299 l 286 299 m 325 472 l 613 472 l 643 617 q 634 722 657 682 q 529 763 611 763 q 357 617 389 763 l 325 472 m 596 1078 q 635 1094 619 1078 q 651 1136 651 1110 q 642 1165 651 1157 q 615 1172 632 1172 q 576 1157 593 1172 q 560 1114 560 1142 q 569 1085 560 1093 q 596 1078 579 1078 m 621 1265 q 732 1234 686 1265 q 778 1138 778 1203 q 725 1024 778 1064 q 590 985 672 985 q 479 1017 525 985 q 433 1113 433 1049 q 486 1226 433 1186 q 621 1265 539 1265 z "},"Ã":{"ha":885,"x_min":3,"x_max":878,"o":"m 286 299 l 222 0 l 3 0 l 131 600 q 201 781 153 704 q 333 899 249 857 q 546 940 417 940 q 723 913 654 940 q 827 836 792 885 q 870 726 863 788 q 863 596 878 664 l 733 0 l 510 0 l 574 299 l 286 299 m 325 472 l 613 472 l 643 617 q 634 722 657 682 q 529 763 611 763 q 357 617 389 763 l 325 472 m 471 1018 l 344 1071 q 412 1172 369 1129 q 514 1214 454 1214 q 580 1199 551 1214 q 630 1170 608 1185 q 671 1156 651 1156 q 709 1174 696 1156 q 736 1218 722 1192 l 865 1168 q 787 1060 829 1101 q 689 1018 744 1018 q 626 1033 653 1018 q 577 1065 599 1049 q 538 1081 556 1081 q 497 1061 511 1081 q 471 1018 482 1042 z "},"Ă":{"ha":885,"x_min":3,"x_max":878,"o":"m 286 299 l 222 0 l 3 0 l 131 600 q 201 781 153 704 q 333 899 249 857 q 546 940 417 940 q 723 913 654 940 q 827 836 792 885 q 870 726 863 788 q 863 596 878 664 l 733 0 l 510 0 l 574 299 l 286 299 m 325 472 l 613 472 l 643 617 q 634 722 657 682 q 529 763 611 763 q 357 617 389 763 l 325 472 m 403 1217 l 567 1217 q 572 1160 560 1178 q 610 1142 585 1142 q 655 1160 635 1142 q 685 1217 675 1178 l 847 1217 q 757 1059 817 1103 q 601 1015 697 1015 q 489 1034 539 1015 q 415 1097 439 1053 q 403 1217 390 1142 z "},"Ā":{"ha":885,"x_min":3,"x_max":878,"o":"m 286 299 l 222 0 l 3 0 l 131 600 q 201 781 153 704 q 333 899 249 857 q 546 940 417 940 q 723 913 654 940 q 827 836 792 885 q 870 726 863 788 q 863 596 878 664 l 733 0 l 510 0 l 574 299 l 286 299 m 325 472 l 613 472 l 643 617 q 634 722 657 682 q 529 763 611 763 q 357 617 389 763 l 325 472 m 410 1167 l 819 1167 l 790 1028 l 381 1028 l 410 1167 z "},"Ą":{"ha":885,"x_min":3,"x_max":878,"o":"m 286 299 l 222 0 l 3 0 l 131 600 q 201 781 153 704 q 333 899 249 857 q 546 940 417 940 q 723 913 654 940 q 827 836 792 885 q 870 726 863 788 q 863 596 878 664 l 733 0 l 510 0 l 574 299 l 286 299 m 325 472 l 613 472 l 643 617 q 634 722 657 682 q 529 763 611 763 q 357 617 389 763 l 325 472 m 707 -136 l 703 -246 q 645 -265 676 -258 q 583 -272 614 -272 q 472 -242 507 -272 q 436 -164 436 -212 q 459 -92 436 -125 q 518 -32 482 -58 q 594 13 554 -6 l 733 0 q 670 -37 700 -17 q 622 -81 640 -58 q 603 -124 603 -103 q 612 -145 603 -139 q 639 -151 621 -151 q 670 -148 654 -151 q 707 -136 686 -144 z "},"Ǻ":{"ha":885,"x_min":3,"x_max":878,"o":"m 286 299 l 222 0 l 3 0 l 131 600 q 201 781 153 704 q 333 899 249 857 q 546 940 417 940 q 723 913 654 940 q 827 836 792 885 q 870 726 863 788 q 863 596 878 664 l 733 0 l 510 0 l 574 299 l 286 299 m 325 472 l 613 472 l 643 617 q 634 722 657 682 q 529 763 611 763 q 357 617 389 763 l 325 472 m 600 1096 q 640 1112 624 1096 q 656 1154 656 1128 q 646 1183 656 1175 q 619 1190 636 1190 q 581 1175 597 1190 q 564 1132 564 1160 q 574 1103 564 1111 q 600 1096 583 1096 m 625 1283 q 736 1252 690 1283 q 782 1156 782 1221 q 729 1042 782 1082 q 594 1003 676 1003 q 483 1035 529 1003 q 438 1131 438 1067 q 490 1244 438 1204 q 625 1283 543 1283 m 640 1379 l 872 1379 l 674 1192 l 510 1192 l 640 1379 z "},"Ç":{"ha":769,"x_min":64,"x_max":808,"o":"m 808 911 l 765 729 q 687 750 733 740 q 579 760 640 760 q 455 726 508 760 q 366 633 401 693 q 313 490 331 572 q 294 308 294 407 q 324 199 294 233 q 444 165 354 165 q 554 179 499 165 q 643 201 610 193 l 624 21 q 522 -7 585 4 q 403 -18 458 -18 q 149 67 233 -18 q 64 307 64 151 q 95 556 64 440 q 190 758 126 671 q 352 892 254 844 q 583 940 450 940 q 717 930 661 940 q 808 911 774 919 m 301 -46 l 443 -46 q 461 -90 454 -64 q 468 -142 468 -117 q 424 -238 468 -199 q 279 -278 381 -278 q 212 -272 244 -278 q 150 -256 179 -267 l 197 -144 q 225 -153 207 -149 q 256 -157 243 -157 q 303 -141 290 -157 q 315 -101 315 -125 q 312 -74 315 -87 q 301 -46 308 -60 z "},"Ć":{"ha":769,"x_min":64,"x_max":883,"o":"m 808 911 l 765 729 q 687 750 733 740 q 579 760 640 760 q 455 726 508 760 q 366 633 401 693 q 313 490 331 572 q 294 308 294 407 q 324 199 294 233 q 444 165 354 165 q 554 179 499 165 q 643 201 610 193 l 624 21 q 522 -7 585 4 q 403 -18 458 -18 q 149 67 233 -18 q 64 307 64 151 q 95 556 64 440 q 190 758 126 671 q 352 892 254 844 q 583 940 450 940 q 717 930 661 940 q 808 911 774 919 m 651 1231 l 883 1231 l 658 1007 l 494 1007 l 651 1231 z "},"Č":{"ha":769,"x_min":64,"x_max":881,"o":"m 808 911 l 765 729 q 687 750 733 740 q 579 760 640 760 q 455 726 508 760 q 366 633 401 693 q 313 490 331 572 q 294 308 294 407 q 324 199 294 233 q 444 165 354 165 q 554 179 499 165 q 643 201 610 193 l 624 21 q 522 -7 585 4 q 403 -18 458 -18 q 149 67 233 -18 q 64 307 64 151 q 95 556 64 440 q 190 758 126 671 q 352 892 254 844 q 583 940 450 940 q 717 930 661 940 q 808 911 774 919 m 507 1050 l 408 1274 l 582 1274 l 614 1157 l 696 1274 l 881 1274 l 688 1050 l 507 1050 z "},"Ĉ":{"ha":769,"x_min":64,"x_max":847,"o":"m 808 911 l 765 729 q 687 750 733 740 q 579 760 640 760 q 455 726 508 760 q 366 633 401 693 q 313 490 331 572 q 294 308 294 407 q 324 199 294 233 q 444 165 354 165 q 554 179 499 165 q 643 201 610 193 l 624 21 q 522 -7 585 4 q 403 -18 458 -18 q 149 67 233 -18 q 64 307 64 151 q 95 556 64 440 q 190 758 126 671 q 352 892 254 844 q 583 940 450 940 q 717 930 661 940 q 808 911 774 919 m 568 1231 l 749 1231 l 847 1007 l 674 1007 l 642 1124 l 560 1007 l 375 1007 l 568 1231 z "},"Ċ":{"ha":769,"x_min":64,"x_max":808,"o":"m 808 911 l 765 729 q 687 750 733 740 q 579 760 640 760 q 455 726 508 760 q 366 633 401 693 q 313 490 331 572 q 294 308 294 407 q 324 199 294 233 q 444 165 354 165 q 554 179 499 165 q 643 201 610 193 l 624 21 q 522 -7 585 4 q 403 -18 458 -18 q 149 67 233 -18 q 64 307 64 151 q 95 556 64 440 q 190 758 126 671 q 352 892 254 844 q 583 940 450 940 q 717 930 661 940 q 808 911 774 919 m 656 1231 q 731 1207 703 1231 q 758 1142 758 1183 q 719 1044 758 1075 q 615 1014 681 1014 q 540 1038 568 1014 q 513 1103 513 1061 q 552 1200 513 1169 q 656 1231 592 1231 z "},"Ď":{"ha":907,"x_min":18,"x_max":892,"o":"m 217 924 l 531 924 q 796 837 700 924 q 892 592 892 750 q 874 426 892 511 q 819 261 857 340 q 718 119 781 182 q 566 19 656 56 q 357 -18 476 -18 q 199 -10 288 -18 q 18 18 110 -3 l 217 924 m 401 749 l 272 167 q 321 164 290 165 q 372 163 351 163 q 509 204 453 163 q 599 312 565 246 q 649 453 633 378 q 665 593 665 528 q 624 713 665 678 q 501 749 583 749 l 401 749 m 453 1007 l 354 1231 l 528 1231 l 560 1114 l 642 1231 l 826 1231 l 633 1007 l 453 1007 z "},"Đ":{"ha":961,"x_min":50,"x_max":949,"o":"m 50 382 l 88 557 l 596 557 l 558 382 l 50 382 m 274 924 l 588 924 q 853 837 757 924 q 949 592 949 750 q 931 426 949 511 q 876 261 914 340 q 775 119 838 182 q 623 19 713 56 q 414 -18 533 -18 q 256 -10 344 -18 q 75 18 167 -3 l 274 924 m 458 749 l 329 167 q 377 164 347 165 q 429 163 407 163 q 566 204 510 163 q 656 312 622 246 q 706 453 690 378 q 722 593 722 528 q 681 713 722 678 q 558 749 640 749 l 458 749 z "},"É":{"ha":732,"x_min":46,"x_max":818,"o":"m 204 924 l 778 924 l 742 749 l 390 749 l 349 557 l 676 557 l 639 382 l 311 382 l 289 272 q 304 197 279 219 q 386 175 329 175 l 636 175 l 599 0 l 342 0 q 171 27 240 0 q 74 114 101 54 q 67 275 46 174 l 204 924 m 586 1231 l 818 1231 l 593 1007 l 429 1007 l 586 1231 z "},"Ê":{"ha":732,"x_min":46,"x_max":782,"o":"m 204 924 l 778 924 l 742 749 l 390 749 l 349 557 l 676 557 l 639 382 l 311 382 l 289 272 q 304 197 279 219 q 386 175 329 175 l 636 175 l 599 0 l 342 0 q 171 27 240 0 q 74 114 101 54 q 67 275 46 174 l 204 924 m 503 1231 l 683 1231 l 782 1007 l 608 1007 l 576 1124 l 494 1007 l 310 1007 l 503 1231 z "},"Ë":{"ha":732,"x_min":46,"x_max":806,"o":"m 204 924 l 778 924 l 742 749 l 390 749 l 349 557 l 676 557 l 639 382 l 311 382 l 289 272 q 304 197 279 219 q 386 175 329 175 l 636 175 l 599 0 l 342 0 q 171 27 240 0 q 74 114 101 54 q 67 275 46 174 l 204 924 m 465 1229 q 526 1209 504 1229 q 549 1151 549 1189 q 512 1057 549 1093 q 421 1021 475 1021 q 360 1041 382 1021 q 338 1099 338 1061 q 374 1193 338 1157 q 465 1229 411 1229 m 722 1229 q 783 1209 761 1229 q 806 1151 806 1189 q 769 1057 806 1093 q 678 1021 732 1021 q 617 1041 639 1021 q 594 1099 594 1061 q 631 1193 594 1157 q 722 1229 668 1229 z "},"È":{"ha":732,"x_min":46,"x_max":778,"o":"m 204 924 l 778 924 l 742 749 l 390 749 l 349 557 l 676 557 l 639 382 l 311 382 l 289 272 q 304 197 279 219 q 386 175 329 175 l 636 175 l 599 0 l 342 0 q 171 27 240 0 q 74 114 101 54 q 67 275 46 174 l 204 924 m 369 1231 l 592 1231 l 651 1007 l 500 1007 l 369 1231 z "},"Ĕ":{"ha":732,"x_min":46,"x_max":813,"o":"m 204 924 l 778 924 l 742 749 l 390 749 l 349 557 l 676 557 l 639 382 l 311 382 l 289 272 q 304 197 279 219 q 386 175 329 175 l 636 175 l 599 0 l 342 0 q 171 27 240 0 q 74 114 101 54 q 67 275 46 174 l 204 924 m 368 1217 l 532 1217 q 538 1160 525 1178 q 575 1142 550 1142 q 620 1160 600 1142 q 650 1217 640 1178 l 813 1217 q 722 1059 782 1103 q 567 1015 663 1015 q 454 1034 504 1015 q 380 1097 404 1053 q 368 1217 356 1142 z "},"Ě":{"ha":732,"x_min":46,"x_max":829,"o":"m 204 924 l 778 924 l 742 749 l 390 749 l 349 557 l 676 557 l 639 382 l 311 382 l 289 272 q 304 197 279 219 q 386 175 329 175 l 636 175 l 599 0 l 342 0 q 171 27 240 0 q 74 114 101 54 q 67 275 46 174 l 204 924 m 456 1007 l 357 1231 l 531 1231 l 563 1114 l 644 1231 l 829 1231 l 636 1007 l 456 1007 z "},"Ė":{"ha":732,"x_min":46,"x_max":778,"o":"m 204 924 l 778 924 l 742 749 l 390 749 l 349 557 l 676 557 l 639 382 l 311 382 l 289 272 q 304 197 279 219 q 386 175 329 175 l 636 175 l 599 0 l 342 0 q 171 27 240 0 q 74 114 101 54 q 67 275 46 174 l 204 924 m 590 1231 q 665 1207 638 1231 q 693 1142 693 1183 q 654 1044 693 1075 q 550 1014 615 1014 q 475 1038 503 1014 q 447 1103 447 1061 q 487 1200 447 1169 q 590 1231 526 1231 z "},"Ē":{"ha":732,"x_min":46,"x_max":785,"o":"m 204 924 l 778 924 l 742 749 l 390 749 l 349 557 l 676 557 l 639 382 l 311 382 l 289 272 q 304 197 279 219 q 386 175 329 175 l 636 175 l 599 0 l 342 0 q 171 27 240 0 q 74 114 101 54 q 67 275 46 174 l 204 924 m 375 1167 l 785 1167 l 756 1028 l 346 1028 l 375 1167 z "},"Ę":{"ha":732,"x_min":46,"x_max":778,"o":"m 204 924 l 778 924 l 742 749 l 390 749 l 349 557 l 676 557 l 639 382 l 311 382 l 289 272 q 304 197 279 219 q 386 175 329 175 l 636 175 l 599 0 l 342 0 q 171 27 240 0 q 74 114 101 54 q 67 275 46 174 l 204 924 m 572 -136 l 568 -246 q 510 -265 542 -258 q 449 -272 479 -272 q 337 -242 372 -272 q 301 -164 301 -212 q 324 -92 301 -125 q 383 -32 347 -58 q 460 13 419 -6 l 599 0 q 535 -37 565 -17 q 487 -81 506 -58 q 468 -124 468 -103 q 477 -145 468 -139 q 504 -151 486 -151 q 535 -148 519 -151 q 572 -136 551 -144 z "},"Ǽ":{"ha":1219,"x_min":1,"x_max":1267,"o":"m 922 1231 l 1154 1231 l 929 1007 l 765 1007 l 922 1231 m 708 924 l 1267 924 l 1231 749 l 882 749 l 838 544 l 1163 544 l 1126 369 l 801 369 l 781 274 q 796 194 768 214 q 872 175 824 175 l 1124 175 l 1086 0 l 843 0 q 667 26 740 0 q 563 110 594 51 q 553 265 532 168 l 576 369 l 301 369 l 222 0 l 1 0 l 133 617 q 256 857 167 774 q 514 940 346 940 q 633 923 585 940 q 697 872 681 906 l 708 924 m 338 542 l 611 542 l 626 615 q 618 723 642 685 q 519 761 594 761 q 408 723 447 761 q 353 615 368 685 l 338 542 z "},"Ğ":{"ha":879,"x_min":64,"x_max":894,"o":"m 894 911 l 856 731 q 749 751 815 742 q 617 760 683 760 q 468 726 529 760 q 369 633 407 693 q 313 495 331 574 q 294 325 294 417 q 327 195 294 229 q 435 161 360 161 q 499 165 468 161 q 556 174 529 168 l 594 361 l 449 361 l 486 532 l 842 532 l 735 39 q 593 0 679 18 q 424 -18 507 -18 q 231 16 313 -18 q 107 125 150 50 q 64 324 64 200 q 102 576 64 463 q 213 771 140 689 q 386 897 285 853 q 614 940 488 940 q 770 933 700 940 q 894 911 840 925 m 440 1217 l 604 1217 q 610 1160 597 1178 q 647 1142 622 1142 q 692 1160 672 1142 q 722 1217 713 1178 l 885 1217 q 794 1059 854 1103 q 639 1015 735 1015 q 526 1034 576 1015 q 452 1097 476 1053 q 440 1217 428 1142 z "},"Ĝ":{"ha":879,"x_min":64,"x_max":894,"o":"m 894 911 l 856 731 q 749 751 815 742 q 617 760 683 760 q 468 726 529 760 q 369 633 407 693 q 313 495 331 574 q 294 325 294 417 q 327 195 294 229 q 435 161 360 161 q 499 165 468 161 q 556 174 529 168 l 594 361 l 449 361 l 486 532 l 842 532 l 735 39 q 593 0 679 18 q 424 -18 507 -18 q 231 16 313 -18 q 107 125 150 50 q 64 324 64 200 q 102 576 64 463 q 213 771 140 689 q 386 897 285 853 q 614 940 488 940 q 770 933 700 940 q 894 911 840 925 m 575 1231 l 756 1231 l 854 1007 l 681 1007 l 649 1124 l 567 1007 l 382 1007 l 575 1231 z "},"Ģ":{"ha":879,"x_min":64,"x_max":894,"o":"m 894 911 l 856 731 q 749 751 815 742 q 617 760 683 760 q 468 726 529 760 q 369 633 407 693 q 313 495 331 574 q 294 325 294 417 q 327 195 294 229 q 435 161 360 161 q 499 165 468 161 q 556 174 529 168 l 594 361 l 449 361 l 486 532 l 842 532 l 735 39 q 593 0 679 18 q 424 -18 507 -18 q 231 16 313 -18 q 107 125 150 50 q 64 324 64 200 q 102 576 64 463 q 213 771 140 689 q 386 897 285 853 q 614 940 488 940 q 770 933 700 940 q 894 911 840 925 m 268 -64 l 485 -64 l 306 -261 l 149 -261 l 268 -64 z "},"Ġ":{"ha":879,"x_min":64,"x_max":894,"o":"m 894 911 l 856 731 q 749 751 815 742 q 617 760 683 760 q 468 726 529 760 q 369 633 407 693 q 313 495 331 574 q 294 325 294 417 q 327 195 294 229 q 435 161 360 161 q 499 165 468 161 q 556 174 529 168 l 594 361 l 449 361 l 486 532 l 842 532 l 735 39 q 593 0 679 18 q 424 -18 507 -18 q 231 16 313 -18 q 107 125 150 50 q 64 324 64 200 q 102 576 64 463 q 213 771 140 689 q 386 897 285 853 q 614 940 488 940 q 770 933 700 940 q 894 911 840 925 m 663 1231 q 738 1207 710 1231 q 765 1142 765 1183 q 726 1044 765 1075 q 622 1014 688 1014 q 547 1038 575 1014 q 519 1103 519 1061 q 559 1200 519 1169 q 663 1231 599 1231 z "},"Ħ":{"ha":953,"x_min":13,"x_max":1064,"o":"m 208 924 l 431 924 l 347 529 l 667 529 l 750 924 l 974 924 l 778 0 l 554 0 l 628 346 l 308 346 l 235 0 l 13 0 l 208 924 m 44 643 l 78 799 l 1064 799 l 1031 643 l 44 643 z "},"Ĥ":{"ha":953,"x_min":18,"x_max":981,"o":"m 214 924 l 436 924 l 361 565 l 683 565 l 758 924 l 981 924 l 785 0 l 563 0 l 643 382 l 321 382 l 240 0 l 18 0 l 214 924 m 567 1231 l 747 1231 l 846 1007 l 672 1007 l 640 1124 l 558 1007 l 374 1007 l 567 1231 z "},"Í":{"ha":397,"x_min":13,"x_max":657,"o":"m 208 924 l 431 924 l 235 0 l 13 0 l 208 924 m 425 1231 l 657 1231 l 432 1007 l 268 1007 l 425 1231 z "},"Î":{"ha":397,"x_min":13,"x_max":588,"o":"m 208 924 l 431 924 l 235 0 l 13 0 l 208 924 m 308 1231 l 489 1231 l 588 1007 l 414 1007 l 382 1124 l 300 1007 l 115 1007 l 308 1231 z "},"Ï":{"ha":397,"x_min":13,"x_max":611,"o":"m 208 924 l 431 924 l 235 0 l 13 0 l 208 924 m 271 1229 q 332 1209 310 1229 q 354 1151 354 1189 q 317 1057 354 1093 q 226 1021 281 1021 q 165 1041 188 1021 q 143 1099 143 1061 q 180 1193 143 1157 q 271 1229 217 1229 m 528 1229 q 589 1209 567 1229 q 611 1151 611 1189 q 574 1057 611 1093 q 483 1021 538 1021 q 422 1041 444 1021 q 400 1099 400 1061 q 437 1193 400 1157 q 528 1229 474 1229 z "},"Ì":{"ha":397,"x_min":13,"x_max":457,"o":"m 208 924 l 431 924 l 235 0 l 13 0 l 208 924 m 175 1231 l 397 1231 l 457 1007 l 306 1007 l 175 1231 z "},"Ĭ":{"ha":397,"x_min":13,"x_max":618,"o":"m 208 924 l 431 924 l 235 0 l 13 0 l 208 924 m 174 1217 l 338 1217 q 343 1160 331 1178 q 381 1142 356 1142 q 426 1160 406 1142 q 456 1217 446 1178 l 618 1217 q 528 1059 588 1103 q 372 1015 468 1015 q 260 1034 310 1015 q 185 1097 210 1053 q 174 1217 161 1142 z "},"İ":{"ha":397,"x_min":13,"x_max":499,"o":"m 208 924 l 431 924 l 235 0 l 13 0 l 208 924 m 396 1231 q 471 1207 443 1231 q 499 1142 499 1183 q 460 1044 499 1075 q 356 1014 421 1014 q 281 1038 308 1014 q 253 1103 253 1061 q 292 1200 253 1169 q 396 1231 332 1231 z "},"Ī":{"ha":397,"x_min":13,"x_max":590,"o":"m 208 924 l 431 924 l 235 0 l 13 0 l 208 924 m 181 1167 l 590 1167 l 561 1028 l 151 1028 l 181 1167 z "},"Į":{"ha":397,"x_min":-61,"x_max":431,"o":"m 208 924 l 431 924 l 235 0 l 13 0 l 208 924 m 210 -136 l 206 -246 q 148 -265 179 -258 q 86 -272 117 -272 q -26 -242 10 -272 q -61 -164 -61 -212 q -38 -92 -61 -125 q 21 -32 -15 -58 q 97 13 57 -6 l 236 0 q 173 -37 203 -17 q 124 -81 143 -58 q 106 -124 106 -103 q 115 -145 106 -139 q 142 -151 124 -151 q 173 -148 157 -151 q 210 -136 189 -144 z "},"Ĩ":{"ha":397,"x_min":13,"x_max":636,"o":"m 208 924 l 431 924 l 235 0 l 13 0 l 208 924 m 242 1018 l 115 1071 q 183 1172 140 1129 q 285 1214 225 1214 q 351 1199 322 1214 q 401 1170 379 1185 q 442 1156 422 1156 q 480 1174 467 1156 q 507 1218 493 1192 l 636 1168 q 558 1060 600 1101 q 460 1018 515 1018 q 397 1033 424 1018 q 348 1065 369 1049 q 308 1081 326 1081 q 267 1061 282 1081 q 242 1018 253 1042 z "},"Ĵ":{"ha":401,"x_min":-196,"x_max":596,"o":"m 210 924 l 433 924 l 264 125 q 220 -4 249 53 q 147 -107 192 -61 q 40 -194 103 -153 q -107 -276 -22 -235 l -196 -122 q -60 -31 -108 -69 q 12 49 -11 7 q 47 151 35 90 l 210 924 m 317 1274 l 497 1274 l 596 1050 l 422 1050 l 390 1167 l 308 1050 l 124 1050 l 317 1274 z "},"Ķ":{"ha":914,"x_min":10,"x_max":1000,"o":"m 206 924 l 428 924 l 342 515 l 746 924 l 1000 924 l 610 536 q 683 490 653 521 q 734 401 714 458 q 768 253 754 344 l 803 0 l 569 0 l 547 196 q 524 309 539 268 q 488 367 510 350 q 433 385 465 383 l 283 243 l 232 0 l 10 0 l 206 924 m 290 -64 l 507 -64 l 328 -261 l 171 -261 l 290 -64 z "},"Ĺ":{"ha":693,"x_min":17,"x_max":636,"o":"m 213 924 l 435 924 l 276 175 l 614 175 l 576 0 l 17 0 l 213 924 m 404 1231 l 636 1231 l 411 1007 l 247 1007 l 404 1231 z "},"Ľ":{"ha":693,"x_min":17,"x_max":760,"o":"m 213 924 l 435 924 l 276 175 l 614 175 l 576 0 l 17 0 l 213 924 m 528 924 l 760 924 l 589 628 l 422 628 l 528 924 z "},"Ļ":{"ha":693,"x_min":17,"x_max":614,"o":"m 213 924 l 435 924 l 276 175 l 614 175 l 576 0 l 17 0 l 213 924 m 171 -64 l 388 -64 l 208 -261 l 51 -261 l 171 -64 z "},"Ŀ":{"ha":693,"x_min":17,"x_max":707,"o":"m 213 924 l 435 924 l 276 175 l 614 175 l 576 0 l 17 0 l 213 924 m 604 592 q 679 568 651 592 q 707 503 707 544 q 668 406 707 436 q 564 375 629 375 q 489 399 517 375 q 461 464 461 422 q 501 561 461 531 q 604 592 540 592 z "},"Ñ":{"ha":964,"x_min":17,"x_max":994,"o":"m 213 924 l 379 924 l 675 425 l 776 924 l 994 924 l 799 0 l 581 0 l 615 164 l 358 597 l 232 0 l 17 0 l 213 924 m 506 1018 l 379 1071 q 447 1172 404 1129 q 549 1214 489 1214 q 615 1199 586 1214 q 665 1170 643 1185 q 706 1156 686 1156 q 744 1174 731 1156 q 771 1218 757 1192 l 900 1168 q 822 1060 864 1101 q 724 1018 779 1018 q 660 1033 688 1018 q 612 1065 633 1049 q 572 1081 590 1081 q 531 1061 546 1081 q 506 1018 517 1042 z "},"Ń":{"ha":964,"x_min":17,"x_max":994,"o":"m 213 924 l 379 924 l 675 425 l 776 924 l 994 924 l 799 0 l 581 0 l 615 164 l 358 597 l 232 0 l 17 0 l 213 924 m 656 1231 l 888 1231 l 663 1007 l 499 1007 l 656 1231 z "},"Ň":{"ha":964,"x_min":17,"x_max":994,"o":"m 213 924 l 379 924 l 675 425 l 776 924 l 994 924 l 799 0 l 581 0 l 615 164 l 358 597 l 232 0 l 17 0 l 213 924 m 525 1007 l 426 1231 l 600 1231 l 632 1114 l 714 1231 l 899 1231 l 706 1007 l 525 1007 z "},"Ņ":{"ha":964,"x_min":17,"x_max":994,"o":"m 213 924 l 379 924 l 675 425 l 776 924 l 994 924 l 799 0 l 581 0 l 615 164 l 358 597 l 232 0 l 17 0 l 213 924 m 304 -64 l 521 -64 l 342 -261 l 185 -261 l 304 -64 z "},"Ŋ":{"ha":964,"x_min":13,"x_max":985,"o":"m 208 924 l 379 924 l 665 447 l 767 924 l 985 924 l 849 278 l 631 278 l 606 164 l 354 597 l 228 0 l 13 0 l 208 924 m 765 924 l 985 924 l 815 125 q 772 -4 800 53 q 699 -107 743 -61 q 592 -194 654 -153 q 444 -276 529 -235 l 356 -122 q 466 -53 422 -83 q 536 8 510 -22 q 578 72 563 38 q 603 151 593 106 l 765 924 z "},"Ó":{"ha":940,"x_min":75,"x_max":917,"o":"m 579 940 q 829 858 742 940 q 917 607 917 776 q 885 373 917 485 q 791 173 854 261 q 633 33 728 85 q 413 -18 539 -18 q 163 65 250 -18 q 75 315 75 147 q 106 549 75 438 q 201 749 138 661 q 358 889 264 838 q 579 940 453 940 m 429 164 q 535 202 488 164 q 615 303 582 240 q 665 445 647 367 q 683 603 683 524 q 653 726 683 693 q 563 758 624 758 q 457 720 504 758 q 377 619 410 682 q 326 477 344 556 q 308 319 308 399 q 338 197 308 229 q 429 164 368 164 m 656 1231 l 888 1231 l 663 1007 l 499 1007 l 656 1231 z "},"Ô":{"ha":940,"x_min":75,"x_max":917,"o":"m 579 940 q 829 858 742 940 q 917 607 917 776 q 885 373 917 485 q 791 173 854 261 q 633 33 728 85 q 413 -18 539 -18 q 163 65 250 -18 q 75 315 75 147 q 106 549 75 438 q 201 749 138 661 q 358 889 264 838 q 579 940 453 940 m 429 164 q 535 202 488 164 q 615 303 582 240 q 665 445 647 367 q 683 603 683 524 q 653 726 683 693 q 563 758 624 758 q 457 720 504 758 q 377 619 410 682 q 326 477 344 556 q 308 319 308 399 q 338 197 308 229 q 429 164 368 164 m 572 1231 l 753 1231 l 851 1007 l 678 1007 l 646 1124 l 564 1007 l 379 1007 l 572 1231 z "},"Ö":{"ha":940,"x_min":75,"x_max":917,"o":"m 579 940 q 829 858 742 940 q 917 607 917 776 q 885 373 917 485 q 791 173 854 261 q 633 33 728 85 q 413 -18 539 -18 q 163 65 250 -18 q 75 315 75 147 q 106 549 75 438 q 201 749 138 661 q 358 889 264 838 q 579 940 453 940 m 429 164 q 535 202 488 164 q 615 303 582 240 q 665 445 647 367 q 683 603 683 524 q 653 726 683 693 q 563 758 624 758 q 457 720 504 758 q 377 619 410 682 q 326 477 344 556 q 308 319 308 399 q 338 197 308 229 q 429 164 368 164 m 535 1229 q 596 1209 574 1229 q 618 1151 618 1189 q 581 1057 618 1093 q 490 1021 544 1021 q 429 1041 451 1021 q 407 1099 407 1061 q 444 1193 407 1157 q 535 1229 481 1229 m 792 1229 q 853 1209 831 1229 q 875 1151 875 1189 q 838 1057 875 1093 q 747 1021 801 1021 q 686 1041 708 1021 q 664 1099 664 1061 q 701 1193 664 1157 q 792 1229 738 1229 z "},"Ò":{"ha":940,"x_min":75,"x_max":917,"o":"m 579 940 q 829 858 742 940 q 917 607 917 776 q 885 373 917 485 q 791 173 854 261 q 633 33 728 85 q 413 -18 539 -18 q 163 65 250 -18 q 75 315 75 147 q 106 549 75 438 q 201 749 138 661 q 358 889 264 838 q 579 940 453 940 m 429 164 q 535 202 488 164 q 615 303 582 240 q 665 445 647 367 q 683 603 683 524 q 653 726 683 693 q 563 758 624 758 q 457 720 504 758 q 377 619 410 682 q 326 477 344 556 q 308 319 308 399 q 338 197 308 229 q 429 164 368 164 m 439 1231 l 661 1231 l 721 1007 l 569 1007 l 439 1231 z "},"Õ":{"ha":940,"x_min":75,"x_max":917,"o":"m 579 940 q 829 858 742 940 q 917 607 917 776 q 885 373 917 485 q 791 173 854 261 q 633 33 728 85 q 413 -18 539 -18 q 163 65 250 -18 q 75 315 75 147 q 106 549 75 438 q 201 749 138 661 q 358 889 264 838 q 579 940 453 940 m 429 164 q 535 202 488 164 q 615 303 582 240 q 665 445 647 367 q 683 603 683 524 q 653 726 683 693 q 563 758 624 758 q 457 720 504 758 q 377 619 410 682 q 326 477 344 556 q 308 319 308 399 q 338 197 308 229 q 429 164 368 164 m 506 1018 l 379 1071 q 447 1172 404 1129 q 549 1214 489 1214 q 615 1199 586 1214 q 665 1170 643 1185 q 706 1156 686 1156 q 744 1174 731 1156 q 771 1218 757 1192 l 900 1168 q 822 1060 864 1101 q 724 1018 779 1018 q 660 1033 688 1018 q 612 1065 633 1049 q 572 1081 590 1081 q 531 1061 546 1081 q 506 1018 517 1042 z "},"Ŏ":{"ha":940,"x_min":75,"x_max":917,"o":"m 579 940 q 829 858 742 940 q 917 607 917 776 q 885 373 917 485 q 791 173 854 261 q 633 33 728 85 q 413 -18 539 -18 q 163 65 250 -18 q 75 315 75 147 q 106 549 75 438 q 201 749 138 661 q 358 889 264 838 q 579 940 453 940 m 429 164 q 535 202 488 164 q 615 303 582 240 q 665 445 647 367 q 683 603 683 524 q 653 726 683 693 q 563 758 624 758 q 457 720 504 758 q 377 619 410 682 q 326 477 344 556 q 308 319 308 399 q 338 197 308 229 q 429 164 368 164 m 438 1217 l 601 1217 q 607 1160 594 1178 q 644 1142 619 1142 q 690 1160 669 1142 q 719 1217 710 1178 l 882 1217 q 792 1059 851 1103 q 636 1015 732 1015 q 524 1034 574 1015 q 449 1097 474 1053 q 438 1217 425 1142 z "},"Ő":{"ha":940,"x_min":75,"x_max":938,"o":"m 579 940 q 829 858 742 940 q 917 607 917 776 q 885 373 917 485 q 791 173 854 261 q 633 33 728 85 q 413 -18 539 -18 q 163 65 250 -18 q 75 315 75 147 q 106 549 75 438 q 201 749 138 661 q 358 889 264 838 q 579 940 453 940 m 429 164 q 535 202 488 164 q 615 303 582 240 q 665 445 647 367 q 683 603 683 524 q 653 726 683 693 q 563 758 624 758 q 457 720 504 758 q 377 619 410 682 q 326 477 344 556 q 308 319 308 399 q 338 197 308 229 q 429 164 368 164 m 526 1231 l 706 1231 l 583 1007 l 449 1007 l 526 1231 m 743 1231 l 938 1231 l 782 1007 l 644 1007 l 743 1231 z "},"Ō":{"ha":940,"x_min":75,"x_max":917,"o":"m 579 940 q 829 858 742 940 q 917 607 917 776 q 885 373 917 485 q 791 173 854 261 q 633 33 728 85 q 413 -18 539 -18 q 163 65 250 -18 q 75 315 75 147 q 106 549 75 438 q 201 749 138 661 q 358 889 264 838 q 579 940 453 940 m 429 164 q 535 202 488 164 q 615 303 582 240 q 665 445 647 367 q 683 603 683 524 q 653 726 683 693 q 563 758 624 758 q 457 720 504 758 q 377 619 410 682 q 326 477 344 556 q 308 319 308 399 q 338 197 308 229 q 429 164 368 164 m 444 1167 l 854 1167 l 825 1028 l 415 1028 l 444 1167 z "},"Ǿ":{"ha":940,"x_min":-21,"x_max":993,"o":"m 993 938 l 104 -118 l -21 -22 l 868 1033 l 993 938 m 571 940 q 821 858 733 940 q 908 607 908 776 q 877 373 908 485 q 783 173 846 261 q 625 33 719 85 q 404 -18 531 -18 q 154 65 242 -18 q 67 315 67 147 q 98 549 67 438 q 192 749 129 661 q 350 889 256 838 q 571 940 444 940 m 421 150 q 528 190 481 150 q 609 294 575 229 q 661 440 643 360 q 679 603 679 521 q 649 737 679 701 q 554 772 618 772 q 447 733 494 772 q 366 628 400 693 q 314 482 332 563 q 296 319 296 401 q 326 185 296 221 q 421 150 357 150 m 656 1231 l 888 1231 l 663 1007 l 499 1007 l 656 1231 z "},"Ŕ":{"ha":843,"x_min":17,"x_max":824,"o":"m 213 924 l 514 924 q 744 867 665 924 q 824 682 824 811 q 796 547 824 606 q 722 449 768 488 q 621 392 675 410 q 684 340 661 376 q 714 233 707 303 l 736 0 l 513 0 l 497 186 q 482 261 493 232 q 444 303 471 290 q 371 317 418 317 l 306 317 l 239 0 l 17 0 l 213 924 m 603 663 q 576 731 603 714 q 493 749 549 749 l 397 749 l 342 493 l 421 493 q 524 515 483 493 q 583 574 564 536 q 603 663 603 611 m 575 1231 l 807 1231 l 582 1007 l 418 1007 l 575 1231 z "},"Ř":{"ha":843,"x_min":17,"x_max":824,"o":"m 213 924 l 514 924 q 744 867 665 924 q 824 682 824 811 q 796 547 824 606 q 722 449 768 488 q 621 392 675 410 q 684 340 661 376 q 714 233 707 303 l 736 0 l 513 0 l 497 186 q 482 261 493 232 q 444 303 471 290 q 371 317 418 317 l 306 317 l 239 0 l 17 0 l 213 924 m 603 663 q 576 731 603 714 q 493 749 549 749 l 397 749 l 342 493 l 421 493 q 524 515 483 493 q 583 574 564 536 q 603 663 603 611 m 447 1007 l 349 1231 l 522 1231 l 554 1114 l 636 1231 l 821 1231 l 628 1007 l 447 1007 z "},"Ŗ":{"ha":843,"x_min":17,"x_max":824,"o":"m 213 924 l 514 924 q 744 867 665 924 q 824 682 824 811 q 796 547 824 606 q 722 449 768 488 q 621 392 675 410 q 684 340 661 376 q 714 233 707 303 l 736 0 l 513 0 l 497 186 q 482 261 493 232 q 444 303 471 290 q 371 317 418 317 l 306 317 l 239 0 l 17 0 l 213 924 m 603 663 q 576 731 603 714 q 493 749 549 749 l 397 749 l 342 493 l 421 493 q 524 515 483 493 q 583 574 564 536 q 603 663 603 611 m 247 -64 l 464 -64 l 285 -261 l 128 -261 l 247 -64 z "},"Š":{"ha":739,"x_min":8,"x_max":819,"o":"m 751 918 l 700 747 q 611 761 663 754 q 519 768 560 768 q 394 748 433 768 q 354 686 354 728 q 377 626 354 653 q 437 574 400 599 q 514 522 474 550 q 591 460 554 494 q 651 378 628 425 q 674 268 674 332 q 627 101 674 164 q 495 10 581 39 q 293 -18 410 -18 q 129 -3 199 -18 q 8 26 60 11 l 63 197 q 171 167 117 181 q 297 154 225 154 q 412 179 379 154 q 444 243 444 204 q 422 308 444 279 q 362 365 399 338 q 284 422 325 393 q 206 487 243 451 q 147 568 169 522 q 124 674 124 614 q 174 830 124 771 q 315 915 225 889 q 518 940 404 940 q 643 933 579 940 q 751 918 707 926 m 446 1007 l 347 1231 l 521 1231 l 553 1114 l 635 1231 l 819 1231 l 626 1007 l 446 1007 z "},"Ś":{"ha":739,"x_min":8,"x_max":808,"o":"m 751 918 l 700 747 q 611 761 663 754 q 519 768 560 768 q 394 748 433 768 q 354 686 354 728 q 377 626 354 653 q 437 574 400 599 q 514 522 474 550 q 591 460 554 494 q 651 378 628 425 q 674 268 674 332 q 627 101 674 164 q 495 10 581 39 q 293 -18 410 -18 q 129 -3 199 -18 q 8 26 60 11 l 63 197 q 171 167 117 181 q 297 154 225 154 q 412 179 379 154 q 444 243 444 204 q 422 308 444 279 q 362 365 399 338 q 284 422 325 393 q 206 487 243 451 q 147 568 169 522 q 124 674 124 614 q 174 830 124 771 q 315 915 225 889 q 518 940 404 940 q 643 933 579 940 q 751 918 707 926 m 576 1231 l 808 1231 l 583 1007 l 419 1007 l 576 1231 z "},"Ş":{"ha":739,"x_min":8,"x_max":751,"o":"m 751 918 l 700 747 q 611 761 663 754 q 519 768 560 768 q 394 748 433 768 q 354 686 354 728 q 377 626 354 653 q 437 574 400 599 q 514 522 474 550 q 591 460 554 494 q 651 378 628 425 q 674 268 674 332 q 627 101 674 164 q 495 10 581 39 q 293 -18 410 -18 q 129 -3 199 -18 q 8 26 60 11 l 63 197 q 171 167 117 181 q 297 154 225 154 q 412 179 379 154 q 444 243 444 204 q 422 308 444 279 q 362 365 399 338 q 284 422 325 393 q 206 487 243 451 q 147 568 169 522 q 124 674 124 614 q 174 830 124 771 q 315 915 225 889 q 518 940 404 940 q 643 933 579 940 q 751 918 707 926 m 224 -46 l 365 -46 q 383 -90 376 -64 q 390 -142 390 -117 q 347 -238 390 -199 q 201 -278 303 -278 q 134 -272 167 -278 q 72 -256 101 -267 l 119 -144 q 147 -153 129 -149 q 178 -157 165 -157 q 225 -141 213 -157 q 238 -101 238 -125 q 234 -74 238 -87 q 224 -46 231 -60 z "},"Ŝ":{"ha":739,"x_min":8,"x_max":772,"o":"m 751 918 l 700 747 q 611 761 663 754 q 519 768 560 768 q 394 748 433 768 q 354 686 354 728 q 377 626 354 653 q 437 574 400 599 q 514 522 474 550 q 591 460 554 494 q 651 378 628 425 q 674 268 674 332 q 627 101 674 164 q 495 10 581 39 q 293 -18 410 -18 q 129 -3 199 -18 q 8 26 60 11 l 63 197 q 171 167 117 181 q 297 154 225 154 q 412 179 379 154 q 444 243 444 204 q 422 308 444 279 q 362 365 399 338 q 284 422 325 393 q 206 487 243 451 q 147 568 169 522 q 124 674 124 614 q 174 830 124 771 q 315 915 225 889 q 518 940 404 940 q 643 933 579 940 q 751 918 707 926 m 493 1231 l 674 1231 l 772 1007 l 599 1007 l 567 1124 l 485 1007 l 300 1007 l 493 1231 z "},"Ș":{"ha":739,"x_min":8,"x_max":751,"o":"m 751 918 l 700 747 q 611 761 663 754 q 519 768 560 768 q 394 748 433 768 q 354 686 354 728 q 377 626 354 653 q 437 574 400 599 q 514 522 474 550 q 591 460 554 494 q 651 378 628 425 q 674 268 674 332 q 627 101 674 164 q 495 10 581 39 q 293 -18 410 -18 q 129 -3 199 -18 q 8 26 60 11 l 63 197 q 171 167 117 181 q 297 154 225 154 q 412 179 379 154 q 444 243 444 204 q 422 308 444 279 q 362 365 399 338 q 284 422 325 393 q 206 487 243 451 q 147 568 169 522 q 124 674 124 614 q 174 830 124 771 q 315 915 225 889 q 518 940 404 940 q 643 933 579 940 q 751 918 707 926 m 151 -64 l 368 -64 l 189 -261 l 32 -261 l 151 -64 z "},"Ţ":{"ha":839,"x_min":97,"x_max":917,"o":"m 164 924 l 917 924 l 881 749 l 618 749 l 458 0 l 236 0 l 396 749 l 128 749 l 164 924 m 217 -64 l 433 -64 l 254 -261 l 97 -261 l 217 -64 z "},"Ŧ":{"ha":839,"x_min":128,"x_max":918,"o":"m 164 924 l 918 924 l 883 760 l 629 760 l 468 0 l 222 0 l 383 760 l 129 760 l 164 924 m 715 357 l 128 357 l 163 521 l 750 521 l 715 357 z "},"Ť":{"ha":839,"x_min":128,"x_max":917,"o":"m 164 924 l 917 924 l 881 749 l 618 749 l 458 0 l 236 0 l 396 749 l 128 749 l 164 924 m 476 1007 l 378 1231 l 551 1231 l 583 1114 l 665 1231 l 850 1231 l 657 1007 l 476 1007 z "},"Ú":{"ha":914,"x_min":58,"x_max":943,"o":"m 201 924 l 425 924 l 297 319 q 297 231 286 265 q 342 178 308 196 q 431 161 376 161 q 503 167 467 161 q 563 179 540 172 l 721 924 l 943 924 l 756 40 q 591 -1 679 15 q 408 -18 503 -18 q 227 7 299 -18 q 117 78 156 32 q 68 188 78 125 q 75 328 58 251 l 201 924 m 639 1231 l 871 1231 l 646 1007 l 482 1007 l 639 1231 z "},"Û":{"ha":914,"x_min":58,"x_max":943,"o":"m 201 924 l 425 924 l 297 319 q 297 231 286 265 q 342 178 308 196 q 431 161 376 161 q 503 167 467 161 q 563 179 540 172 l 721 924 l 943 924 l 756 40 q 591 -1 679 15 q 408 -18 503 -18 q 227 7 299 -18 q 117 78 156 32 q 68 188 78 125 q 75 328 58 251 l 201 924 m 556 1231 l 736 1231 l 835 1007 l 661 1007 l 629 1124 l 547 1007 l 363 1007 l 556 1231 z "},"Ü":{"ha":914,"x_min":58,"x_max":943,"o":"m 201 924 l 425 924 l 297 319 q 297 231 286 265 q 342 178 308 196 q 431 161 376 161 q 503 167 467 161 q 563 179 540 172 l 721 924 l 943 924 l 756 40 q 591 -1 679 15 q 408 -18 503 -18 q 227 7 299 -18 q 117 78 156 32 q 68 188 78 125 q 75 328 58 251 l 201 924 m 518 1229 q 579 1209 557 1229 q 601 1151 601 1189 q 565 1057 601 1093 q 474 1021 528 1021 q 413 1041 435 1021 q 390 1099 390 1061 q 427 1193 390 1157 q 518 1229 464 1229 m 775 1229 q 836 1209 814 1229 q 858 1151 858 1189 q 822 1057 858 1093 q 731 1021 785 1021 q 669 1041 692 1021 q 647 1099 647 1061 q 684 1193 647 1157 q 775 1229 721 1229 z "},"Ù":{"ha":914,"x_min":58,"x_max":943,"o":"m 201 924 l 425 924 l 297 319 q 297 231 286 265 q 342 178 308 196 q 431 161 376 161 q 503 167 467 161 q 563 179 540 172 l 721 924 l 943 924 l 756 40 q 591 -1 679 15 q 408 -18 503 -18 q 227 7 299 -18 q 117 78 156 32 q 68 188 78 125 q 75 328 58 251 l 201 924 m 422 1231 l 644 1231 l 704 1007 l 553 1007 l 422 1231 z "},"Ŭ":{"ha":914,"x_min":58,"x_max":943,"o":"m 201 924 l 425 924 l 297 319 q 297 231 286 265 q 342 178 308 196 q 431 161 376 161 q 503 167 467 161 q 563 179 540 172 l 721 924 l 943 924 l 756 40 q 591 -1 679 15 q 408 -18 503 -18 q 227 7 299 -18 q 117 78 156 32 q 68 188 78 125 q 75 328 58 251 l 201 924 m 421 1217 l 585 1217 q 590 1160 578 1178 q 628 1142 603 1142 q 673 1160 653 1142 q 703 1217 693 1178 l 865 1217 q 775 1059 835 1103 q 619 1015 715 1015 q 507 1034 557 1015 q 433 1097 457 1053 q 421 1217 408 1142 z "},"Ű":{"ha":914,"x_min":58,"x_max":943,"o":"m 201 924 l 425 924 l 297 319 q 297 231 286 265 q 342 178 308 196 q 431 161 376 161 q 503 167 467 161 q 563 179 540 172 l 721 924 l 943 924 l 756 40 q 591 -1 679 15 q 408 -18 503 -18 q 227 7 299 -18 q 117 78 156 32 q 68 188 78 125 q 75 328 58 251 l 201 924 m 510 1231 l 689 1231 l 567 1007 l 432 1007 l 510 1231 m 726 1231 l 921 1231 l 765 1007 l 628 1007 l 726 1231 z "},"Ū":{"ha":914,"x_min":58,"x_max":943,"o":"m 201 924 l 425 924 l 297 319 q 297 231 286 265 q 342 178 308 196 q 431 161 376 161 q 503 167 467 161 q 563 179 540 172 l 721 924 l 943 924 l 756 40 q 591 -1 679 15 q 408 -18 503 -18 q 227 7 299 -18 q 117 78 156 32 q 68 188 78 125 q 75 328 58 251 l 201 924 m 428 1167 l 838 1167 l 808 1028 l 399 1028 l 428 1167 z "},"Ų":{"ha":914,"x_min":58,"x_max":943,"o":"m 201 924 l 425 924 l 297 319 q 297 231 286 265 q 342 178 308 196 q 431 161 376 161 q 503 167 467 161 q 563 179 540 172 l 721 924 l 943 924 l 756 40 q 591 -1 679 15 q 408 -18 503 -18 q 227 7 299 -18 q 117 78 156 32 q 68 188 78 125 q 75 328 58 251 l 201 924 m 719 -136 l 715 -246 q 658 -265 689 -258 q 596 -272 626 -272 q 484 -242 519 -272 q 449 -164 449 -212 q 471 -87 449 -122 q 530 -24 493 -53 q 607 24 567 4 l 756 40 q 683 -16 715 11 q 633 -69 651 -43 q 615 -124 615 -96 q 624 -145 615 -139 q 651 -151 633 -151 q 719 -136 682 -151 z "},"Ů":{"ha":914,"x_min":58,"x_max":943,"o":"m 201 924 l 425 924 l 297 319 q 297 231 286 265 q 342 178 308 196 q 431 161 376 161 q 503 167 467 161 q 563 179 540 172 l 721 924 l 943 924 l 756 40 q 591 -1 679 15 q 408 -18 503 -18 q 227 7 299 -18 q 117 78 156 32 q 68 188 78 125 q 75 328 58 251 l 201 924 m 614 1078 q 653 1094 638 1078 q 669 1136 669 1110 q 660 1165 669 1157 q 633 1172 650 1172 q 594 1157 611 1172 q 578 1114 578 1142 q 588 1085 578 1093 q 614 1078 597 1078 m 639 1265 q 750 1234 704 1265 q 796 1138 796 1203 q 743 1024 796 1064 q 608 985 690 985 q 497 1017 543 985 q 451 1113 451 1049 q 504 1226 451 1186 q 639 1265 557 1265 z "},"Ũ":{"ha":914,"x_min":58,"x_max":943,"o":"m 201 924 l 425 924 l 297 319 q 297 231 286 265 q 342 178 308 196 q 431 161 376 161 q 503 167 467 161 q 563 179 540 172 l 721 924 l 943 924 l 756 40 q 591 -1 679 15 q 408 -18 503 -18 q 227 7 299 -18 q 117 78 156 32 q 68 188 78 125 q 75 328 58 251 l 201 924 m 489 1018 l 363 1071 q 430 1172 388 1129 q 532 1214 472 1214 q 598 1199 569 1214 q 648 1170 626 1185 q 689 1156 669 1156 q 727 1174 714 1156 q 754 1218 740 1192 l 883 1168 q 805 1060 847 1101 q 707 1018 763 1018 q 644 1033 671 1018 q 595 1065 617 1049 q 556 1081 574 1081 q 515 1061 529 1081 q 489 1018 500 1042 z "},"Ẃ":{"ha":1254,"x_min":157,"x_max":1333,"o":"m 390 0 l 175 0 l 157 924 l 378 924 l 367 294 l 621 758 l 804 758 l 860 283 q 994 564 928 406 q 1125 924 1060 722 l 1333 924 q 1238 661 1288 786 q 1136 422 1189 536 q 1027 202 1083 307 q 911 0 971 97 l 714 0 l 664 507 l 390 0 m 818 1231 l 1050 1231 l 825 1007 l 661 1007 l 818 1231 z "},"Ŵ":{"ha":1254,"x_min":157,"x_max":1333,"o":"m 390 0 l 175 0 l 157 924 l 378 924 l 367 294 l 621 758 l 804 758 l 860 283 q 994 564 928 406 q 1125 924 1060 722 l 1333 924 q 1238 661 1288 786 q 1136 422 1189 536 q 1027 202 1083 307 q 911 0 971 97 l 714 0 l 664 507 l 390 0 m 735 1231 l 915 1231 l 1014 1007 l 840 1007 l 808 1124 l 726 1007 l 542 1007 l 735 1231 z "},"Ẅ":{"ha":1254,"x_min":157,"x_max":1333,"o":"m 390 0 l 175 0 l 157 924 l 378 924 l 367 294 l 621 758 l 804 758 l 860 283 q 994 564 928 406 q 1125 924 1060 722 l 1333 924 q 1238 661 1288 786 q 1136 422 1189 536 q 1027 202 1083 307 q 911 0 971 97 l 714 0 l 664 507 l 390 0 m 697 1229 q 758 1209 736 1229 q 781 1151 781 1189 q 744 1057 781 1093 q 653 1021 707 1021 q 592 1041 614 1021 q 569 1099 569 1061 q 606 1193 569 1157 q 697 1229 643 1229 m 954 1229 q 1015 1209 993 1229 q 1038 1151 1038 1189 q 1001 1057 1038 1093 q 910 1021 964 1021 q 849 1041 871 1021 q 826 1099 826 1061 q 863 1193 826 1157 q 954 1229 900 1229 z "},"Ẁ":{"ha":1254,"x_min":157,"x_max":1333,"o":"m 390 0 l 175 0 l 157 924 l 378 924 l 367 294 l 621 758 l 804 758 l 860 283 q 994 564 928 406 q 1125 924 1060 722 l 1333 924 q 1238 661 1288 786 q 1136 422 1189 536 q 1027 202 1083 307 q 911 0 971 97 l 714 0 l 664 507 l 390 0 m 601 1231 l 824 1231 l 883 1007 l 732 1007 l 601 1231 z "},"Ý":{"ha":917,"x_min":149,"x_max":1006,"o":"m 276 0 l 346 324 l 149 924 l 375 924 l 504 517 q 573 591 535 544 q 651 694 611 638 q 724 810 690 750 q 778 924 757 869 l 1006 924 q 883 700 953 813 q 732 492 813 588 q 568 331 651 396 l 497 0 l 276 0 m 651 1231 l 883 1231 l 658 1007 l 494 1007 l 651 1231 z "},"Ÿ":{"ha":917,"x_min":149,"x_max":1006,"o":"m 276 0 l 346 324 l 149 924 l 375 924 l 504 517 q 573 591 535 544 q 651 694 611 638 q 724 810 690 750 q 778 924 757 869 l 1006 924 q 883 700 953 813 q 732 492 813 588 q 568 331 651 396 l 497 0 l 276 0 m 531 1229 q 592 1209 569 1229 q 614 1151 614 1189 q 577 1057 614 1093 q 486 1021 540 1021 q 425 1041 447 1021 q 403 1099 403 1061 q 440 1193 403 1157 q 531 1229 476 1229 m 788 1229 q 849 1209 826 1229 q 871 1151 871 1189 q 834 1057 871 1093 q 743 1021 797 1021 q 682 1041 704 1021 q 660 1099 660 1061 q 697 1193 660 1157 q 788 1229 733 1229 z "},"Ŷ":{"ha":917,"x_min":149,"x_max":1006,"o":"m 276 0 l 346 324 l 149 924 l 375 924 l 504 517 q 573 591 535 544 q 651 694 611 638 q 724 810 690 750 q 778 924 757 869 l 1006 924 q 883 700 953 813 q 732 492 813 588 q 568 331 651 396 l 497 0 l 276 0 m 568 1231 l 749 1231 l 847 1007 l 674 1007 l 642 1124 l 560 1007 l 375 1007 l 568 1231 z "},"Ỳ":{"ha":917,"x_min":149,"x_max":1006,"o":"m 276 0 l 346 324 l 149 924 l 375 924 l 504 517 q 573 591 535 544 q 651 694 611 638 q 724 810 690 750 q 778 924 757 869 l 1006 924 q 883 700 953 813 q 732 492 813 588 q 568 331 651 396 l 497 0 l 276 0 m 435 1231 l 657 1231 l 717 1007 l 565 1007 l 435 1231 z "},"Ž":{"ha":814,"x_min":-19,"x_max":865,"o":"m 189 924 l 865 924 l 831 756 l 293 176 l 721 176 l 683 0 l -19 0 l 17 168 l 554 749 l 153 749 l 189 924 m 461 1007 l 363 1231 l 536 1231 l 568 1114 l 650 1231 l 835 1231 l 642 1007 l 461 1007 z "},"Ź":{"ha":814,"x_min":-19,"x_max":865,"o":"m 189 924 l 865 924 l 831 756 l 293 176 l 721 176 l 683 0 l -19 0 l 17 168 l 554 749 l 153 749 l 189 924 m 592 1231 l 824 1231 l 599 1007 l 435 1007 l 592 1231 z "},"Ż":{"ha":814,"x_min":-19,"x_max":865,"o":"m 189 924 l 865 924 l 831 756 l 293 176 l 721 176 l 683 0 l -19 0 l 17 168 l 554 749 l 153 749 l 189 924 m 596 1231 q 671 1207 643 1231 q 699 1142 699 1183 q 660 1044 699 1075 q 556 1014 621 1014 q 481 1038 508 1014 q 453 1103 453 1061 q 492 1200 453 1169 q 596 1231 532 1231 z "},"á":{"ha":810,"x_min":24,"x_max":750,"o":"m 269 -18 q 146 8 201 -18 q 57 94 90 35 q 24 256 24 154 q 74 498 24 392 q 221 665 125 604 q 453 725 317 725 q 608 706 529 725 q 746 658 688 688 l 656 235 q 650 194 650 213 q 662 163 650 171 q 696 156 674 156 q 720 157 707 156 q 750 163 733 158 l 721 -1 q 668 -14 694 -10 q 615 -18 642 -18 q 524 1 558 -18 q 476 51 490 19 q 392 4 443 26 q 269 -18 340 -18 m 513 544 q 475 555 497 550 q 431 560 453 560 q 325 520 369 560 q 256 413 281 481 q 232 261 232 346 q 254 173 232 199 q 317 147 276 147 q 381 160 347 147 q 438 190 415 172 l 513 544 m 518 1014 l 750 1014 l 525 790 l 361 790 l 518 1014 z "},"â":{"ha":810,"x_min":24,"x_max":750,"o":"m 269 -18 q 146 8 201 -18 q 57 94 90 35 q 24 256 24 154 q 74 498 24 392 q 221 665 125 604 q 453 725 317 725 q 608 706 529 725 q 746 658 688 688 l 656 235 q 650 194 650 213 q 662 163 650 171 q 696 156 674 156 q 720 157 707 156 q 750 163 733 158 l 721 -1 q 668 -14 694 -10 q 615 -18 642 -18 q 524 1 558 -18 q 476 51 490 19 q 392 4 443 26 q 269 -18 340 -18 m 513 544 q 475 555 497 550 q 431 560 453 560 q 325 520 369 560 q 256 413 281 481 q 232 261 232 346 q 254 173 232 199 q 317 147 276 147 q 381 160 347 147 q 438 190 415 172 l 513 544 m 435 1014 l 615 1014 l 714 790 l 540 790 l 508 907 l 426 790 l 242 790 l 435 1014 z "},"ä":{"ha":810,"x_min":24,"x_max":750,"o":"m 269 -18 q 146 8 201 -18 q 57 94 90 35 q 24 256 24 154 q 74 498 24 392 q 221 665 125 604 q 453 725 317 725 q 608 706 529 725 q 746 658 688 688 l 656 235 q 650 194 650 213 q 662 163 650 171 q 696 156 674 156 q 720 157 707 156 q 750 163 733 158 l 721 -1 q 668 -14 694 -10 q 615 -18 642 -18 q 524 1 558 -18 q 476 51 490 19 q 392 4 443 26 q 269 -18 340 -18 m 513 544 q 475 555 497 550 q 431 560 453 560 q 325 520 369 560 q 256 413 281 481 q 232 261 232 346 q 254 173 232 199 q 317 147 276 147 q 381 160 347 147 q 438 190 415 172 l 513 544 m 397 1013 q 458 992 436 1013 q 481 935 481 972 q 444 840 481 876 q 353 804 407 804 q 292 824 314 804 q 269 882 269 844 q 306 976 269 940 q 397 1013 343 1013 m 654 1013 q 715 992 693 1013 q 738 935 738 972 q 701 840 738 876 q 610 804 664 804 q 549 824 571 804 q 526 882 526 844 q 563 976 526 940 q 654 1013 600 1013 z "},"à":{"ha":810,"x_min":24,"x_max":750,"o":"m 269 -18 q 146 8 201 -18 q 57 94 90 35 q 24 256 24 154 q 74 498 24 392 q 221 665 125 604 q 453 725 317 725 q 608 706 529 725 q 746 658 688 688 l 656 235 q 650 194 650 213 q 662 163 650 171 q 696 156 674 156 q 720 157 707 156 q 750 163 733 158 l 721 -1 q 668 -14 694 -10 q 615 -18 642 -18 q 524 1 558 -18 q 476 51 490 19 q 392 4 443 26 q 269 -18 340 -18 m 513 544 q 475 555 497 550 q 431 560 453 560 q 325 520 369 560 q 256 413 281 481 q 232 261 232 346 q 254 173 232 199 q 317 147 276 147 q 381 160 347 147 q 438 190 415 172 l 513 544 m 301 1014 l 524 1014 l 583 790 l 432 790 l 301 1014 z "},"å":{"ha":810,"x_min":24,"x_max":750,"o":"m 269 -18 q 146 8 201 -18 q 57 94 90 35 q 24 256 24 154 q 74 498 24 392 q 221 665 125 604 q 453 725 317 725 q 608 706 529 725 q 746 658 688 688 l 656 235 q 650 194 650 213 q 662 163 650 171 q 696 156 674 156 q 720 157 707 156 q 750 163 733 158 l 721 -1 q 668 -14 694 -10 q 615 -18 642 -18 q 524 1 558 -18 q 476 51 490 19 q 392 4 443 26 q 269 -18 340 -18 m 513 544 q 475 555 497 550 q 431 560 453 560 q 325 520 369 560 q 256 413 281 481 q 232 261 232 346 q 254 173 232 199 q 317 147 276 147 q 381 160 347 147 q 438 190 415 172 l 513 544 m 493 861 q 533 877 517 861 q 549 919 549 893 q 539 948 549 940 q 513 956 529 956 q 474 940 490 956 q 457 897 457 925 q 467 869 457 876 q 493 861 476 861 m 518 1049 q 629 1017 583 1049 q 675 921 675 986 q 622 808 675 847 q 488 768 569 768 q 376 800 422 768 q 331 896 331 832 q 383 1009 331 969 q 518 1049 436 1049 z "},"ã":{"ha":810,"x_min":24,"x_max":763,"o":"m 269 -18 q 146 8 201 -18 q 57 94 90 35 q 24 256 24 154 q 74 498 24 392 q 221 665 125 604 q 453 725 317 725 q 608 706 529 725 q 746 658 688 688 l 656 235 q 650 194 650 213 q 662 163 650 171 q 696 156 674 156 q 720 157 707 156 q 750 163 733 158 l 721 -1 q 668 -14 694 -10 q 615 -18 642 -18 q 524 1 558 -18 q 476 51 490 19 q 392 4 443 26 q 269 -18 340 -18 m 513 544 q 475 555 497 550 q 431 560 453 560 q 325 520 369 560 q 256 413 281 481 q 232 261 232 346 q 254 173 232 199 q 317 147 276 147 q 381 160 347 147 q 438 190 415 172 l 513 544 m 368 801 l 242 854 q 309 955 267 913 q 411 997 351 997 q 477 983 449 997 q 527 953 506 968 q 568 939 549 939 q 606 957 593 939 q 633 1001 619 975 l 763 951 q 684 843 726 885 q 586 801 642 801 q 523 817 550 801 q 474 848 496 832 q 435 864 453 864 q 394 844 408 864 q 368 801 379 825 z "},"ă":{"ha":810,"x_min":24,"x_max":750,"o":"m 269 -18 q 146 8 201 -18 q 57 94 90 35 q 24 256 24 154 q 74 498 24 392 q 221 665 125 604 q 453 725 317 725 q 608 706 529 725 q 746 658 688 688 l 656 235 q 650 194 650 213 q 662 163 650 171 q 696 156 674 156 q 720 157 707 156 q 750 163 733 158 l 721 -1 q 668 -14 694 -10 q 615 -18 642 -18 q 524 1 558 -18 q 476 51 490 19 q 392 4 443 26 q 269 -18 340 -18 m 513 544 q 475 555 497 550 q 431 560 453 560 q 325 520 369 560 q 256 413 281 481 q 232 261 232 346 q 254 173 232 199 q 317 147 276 147 q 381 160 347 147 q 438 190 415 172 l 513 544 m 300 1000 l 464 1000 q 469 943 457 961 q 507 925 482 925 q 552 943 532 925 q 582 1000 572 961 l 744 1000 q 654 842 714 886 q 499 799 594 799 q 386 817 436 799 q 312 881 336 836 q 300 1000 288 925 z "},"ā":{"ha":810,"x_min":24,"x_max":750,"o":"m 269 -18 q 146 8 201 -18 q 57 94 90 35 q 24 256 24 154 q 74 498 24 392 q 221 665 125 604 q 453 725 317 725 q 608 706 529 725 q 746 658 688 688 l 656 235 q 650 194 650 213 q 662 163 650 171 q 696 156 674 156 q 720 157 707 156 q 750 163 733 158 l 721 -1 q 668 -14 694 -10 q 615 -18 642 -18 q 524 1 558 -18 q 476 51 490 19 q 392 4 443 26 q 269 -18 340 -18 m 513 544 q 475 555 497 550 q 431 560 453 560 q 325 520 369 560 q 256 413 281 481 q 232 261 232 346 q 254 173 232 199 q 317 147 276 147 q 381 160 347 147 q 438 190 415 172 l 513 544 m 307 950 l 717 950 l 688 811 l 278 811 l 307 950 z "},"ą":{"ha":810,"x_min":24,"x_max":750,"o":"m 694 -136 l 690 -246 q 633 -265 664 -258 q 571 -272 601 -272 q 459 -242 494 -272 q 424 -164 424 -212 q 446 -92 424 -125 q 505 -32 468 -58 q 582 13 542 -6 l 721 -1 q 658 -39 688 -18 q 609 -81 628 -60 q 590 -124 590 -103 q 599 -145 590 -139 q 626 -151 608 -151 q 658 -148 642 -151 q 694 -136 674 -144 m 269 -18 q 146 8 201 -18 q 57 94 90 35 q 24 256 24 154 q 74 498 24 392 q 221 665 125 604 q 453 725 317 725 q 608 706 529 725 q 746 658 688 688 l 656 235 q 650 194 650 213 q 662 163 650 171 q 696 156 674 156 q 720 157 707 156 q 750 163 733 158 l 721 -1 q 668 -14 694 -10 q 615 -18 642 -18 q 524 1 558 -18 q 476 51 490 19 q 392 4 443 26 q 269 -18 340 -18 m 513 544 q 475 555 497 550 q 431 560 453 560 q 325 520 369 560 q 256 413 281 481 q 232 261 232 346 q 254 173 232 199 q 317 147 276 147 q 381 160 347 147 q 438 190 415 172 l 513 544 z "},"ǻ":{"ha":810,"x_min":24,"x_max":789,"o":"m 517 865 q 556 881 540 865 q 572 924 572 897 q 563 952 572 944 q 536 960 553 960 q 497 944 514 960 q 481 901 481 929 q 490 873 481 881 q 517 865 500 865 m 542 1053 q 653 1022 607 1053 q 699 925 699 990 q 646 812 699 851 q 511 772 593 772 q 400 804 446 772 q 354 900 354 836 q 407 1013 354 974 q 542 1053 460 1053 m 557 1149 l 789 1149 l 590 961 l 426 961 l 557 1149 m 269 -18 q 146 8 201 -18 q 57 94 90 35 q 24 256 24 154 q 74 498 24 392 q 221 665 125 604 q 453 725 317 725 q 608 706 529 725 q 746 658 688 688 l 656 235 q 650 194 650 213 q 662 163 650 171 q 696 156 674 156 q 720 157 707 156 q 750 163 733 158 l 721 -1 q 668 -14 694 -10 q 615 -18 642 -18 q 524 1 558 -18 q 476 51 490 19 q 392 4 443 26 q 269 -18 340 -18 m 513 544 q 475 555 497 550 q 431 560 453 560 q 325 520 369 560 q 256 413 281 481 q 232 261 232 346 q 254 173 232 199 q 317 147 276 147 q 381 160 347 147 q 438 190 415 172 l 513 544 z "},"ç":{"ha":585,"x_min":22,"x_max":628,"o":"m 628 701 l 572 539 q 507 551 540 546 q 436 557 474 557 q 347 534 386 557 q 283 471 308 511 q 244 378 257 431 q 231 264 231 325 q 256 175 231 203 q 357 147 281 147 q 432 153 393 147 q 504 167 471 158 l 488 4 q 409 -12 453 -6 q 317 -18 365 -18 q 96 48 169 -18 q 22 260 22 114 q 51 443 22 358 q 133 591 79 528 q 265 690 188 654 q 439 725 342 725 q 536 719 488 725 q 628 701 585 714 m 197 -44 l 339 -44 q 357 -89 350 -62 q 364 -140 364 -115 q 320 -237 364 -197 q 175 -276 276 -276 q 108 -271 140 -276 q 46 -254 75 -265 l 93 -143 q 121 -151 103 -147 q 151 -156 139 -156 q 199 -140 186 -156 q 211 -100 211 -124 q 208 -72 211 -86 q 197 -44 204 -58 z "},"ć":{"ha":585,"x_min":22,"x_max":717,"o":"m 628 701 l 572 539 q 507 551 540 546 q 436 557 474 557 q 347 534 386 557 q 283 471 308 511 q 244 378 257 431 q 231 264 231 325 q 256 175 231 203 q 357 147 281 147 q 432 153 393 147 q 504 167 471 158 l 488 4 q 409 -12 453 -6 q 317 -18 365 -18 q 96 48 169 -18 q 22 260 22 114 q 51 443 22 358 q 133 591 79 528 q 265 690 188 654 q 439 725 342 725 q 536 719 488 725 q 628 701 585 714 m 485 1014 l 717 1014 l 492 790 l 328 790 l 485 1014 z "},"č":{"ha":585,"x_min":22,"x_max":728,"o":"m 628 701 l 572 539 q 507 551 540 546 q 436 557 474 557 q 347 534 386 557 q 283 471 308 511 q 244 378 257 431 q 231 264 231 325 q 256 175 231 203 q 357 147 281 147 q 432 153 393 147 q 504 167 471 158 l 488 4 q 409 -12 453 -6 q 317 -18 365 -18 q 96 48 169 -18 q 22 260 22 114 q 51 443 22 358 q 133 591 79 528 q 265 690 188 654 q 439 725 342 725 q 536 719 488 725 q 628 701 585 714 m 354 790 l 256 1014 l 429 1014 l 461 897 l 543 1014 l 728 1014 l 535 790 l 354 790 z "},"ĉ":{"ha":585,"x_min":22,"x_max":681,"o":"m 628 701 l 572 539 q 507 551 540 546 q 436 557 474 557 q 347 534 386 557 q 283 471 308 511 q 244 378 257 431 q 231 264 231 325 q 256 175 231 203 q 357 147 281 147 q 432 153 393 147 q 504 167 471 158 l 488 4 q 409 -12 453 -6 q 317 -18 365 -18 q 96 48 169 -18 q 22 260 22 114 q 51 443 22 358 q 133 591 79 528 q 265 690 188 654 q 439 725 342 725 q 536 719 488 725 q 628 701 585 714 m 401 1014 l 582 1014 l 681 790 l 507 790 l 475 907 l 393 790 l 208 790 l 401 1014 z "},"ċ":{"ha":585,"x_min":22,"x_max":628,"o":"m 628 701 l 572 539 q 507 551 540 546 q 436 557 474 557 q 347 534 386 557 q 283 471 308 511 q 244 378 257 431 q 231 264 231 325 q 256 175 231 203 q 357 147 281 147 q 432 153 393 147 q 504 167 471 158 l 488 4 q 409 -12 453 -6 q 317 -18 365 -18 q 96 48 169 -18 q 22 260 22 114 q 51 443 22 358 q 133 591 79 528 q 265 690 188 654 q 439 725 342 725 q 536 719 488 725 q 628 701 585 714 m 489 1014 q 564 990 536 1014 q 592 925 592 967 q 553 828 592 858 q 449 797 514 797 q 374 821 401 797 q 346 886 346 844 q 385 983 346 953 q 489 1014 425 1014 z "},"ď":{"ha":981,"x_min":24,"x_max":1142,"o":"m 269 -18 q 146 8 201 -18 q 57 94 90 35 q 24 256 24 154 q 74 498 24 392 q 218 665 124 604 q 446 725 313 725 q 495 722 471 725 q 546 713 519 719 l 611 1014 l 821 1014 l 656 235 q 650 194 650 213 q 662 163 650 171 q 696 156 674 156 q 720 157 707 156 q 750 163 733 158 l 721 -1 q 668 -14 694 -10 q 615 -18 642 -18 q 524 1 558 -18 q 476 51 490 19 q 392 4 443 26 q 269 -18 340 -18 m 513 544 q 475 556 497 551 q 431 560 453 560 q 325 520 369 560 q 256 413 281 481 q 232 261 232 346 q 254 173 232 199 q 317 147 276 147 q 381 160 347 147 q 438 190 415 172 l 513 544 m 910 1014 l 1142 1014 l 971 718 l 804 718 l 910 1014 z "},"đ":{"ha":851,"x_min":24,"x_max":918,"o":"m 365 790 l 393 924 l 918 924 l 890 790 l 365 790 m 269 -18 q 146 8 201 -18 q 57 94 90 35 q 24 256 24 154 q 74 498 24 392 q 218 665 124 604 q 446 725 313 725 q 495 722 471 725 q 546 713 519 719 l 611 1014 l 821 1014 l 656 235 q 651 213 653 222 q 650 194 650 203 q 662 163 650 171 q 696 156 674 156 q 720 157 707 156 q 750 163 733 158 l 721 -1 q 668 -14 694 -10 q 615 -18 642 -18 q 524 1 558 -18 q 476 51 490 19 q 392 4 443 26 q 269 -18 340 -18 m 513 544 q 475 556 497 551 q 431 560 453 560 q 325 520 369 560 q 256 413 281 481 q 232 261 232 346 q 254 173 232 199 q 317 147 276 147 q 381 160 347 147 q 438 190 415 172 l 513 544 z "},"é":{"ha":697,"x_min":29,"x_max":715,"o":"m 228 282 l 249 408 q 276 406 261 407 q 310 405 292 406 q 350 404 328 404 q 444 432 414 404 q 474 507 474 460 q 458 551 474 535 q 408 568 443 568 q 329 540 367 568 q 268 444 292 513 q 244 257 244 376 q 276 182 244 210 q 393 154 307 154 q 499 163 439 154 q 594 182 558 171 l 578 14 q 471 -9 525 0 q 353 -18 417 -18 q 186 11 260 -18 q 71 101 113 40 q 29 257 29 163 q 55 447 29 361 q 131 596 81 533 q 255 692 181 658 q 425 725 329 725 q 625 666 560 724 q 690 524 690 608 q 647 377 690 432 q 528 299 603 322 q 358 275 453 275 q 283 278 315 275 q 228 282 250 281 m 483 1014 l 715 1014 l 490 790 l 326 790 l 483 1014 z "},"ê":{"ha":697,"x_min":29,"x_max":690,"o":"m 228 282 l 249 408 q 276 406 261 407 q 310 405 292 406 q 350 404 328 404 q 444 432 414 404 q 474 507 474 460 q 458 551 474 535 q 408 568 443 568 q 329 540 367 568 q 268 444 292 513 q 244 257 244 376 q 276 182 244 210 q 393 154 307 154 q 499 163 439 154 q 594 182 558 171 l 578 14 q 471 -9 525 0 q 353 -18 417 -18 q 186 11 260 -18 q 71 101 113 40 q 29 257 29 163 q 55 447 29 361 q 131 596 81 533 q 255 692 181 658 q 425 725 329 725 q 625 666 560 724 q 690 524 690 608 q 647 377 690 432 q 528 299 603 322 q 358 275 453 275 q 283 278 315 275 q 228 282 250 281 m 400 1014 l 581 1014 l 679 790 l 506 790 l 474 907 l 392 790 l 207 790 l 400 1014 z "},"ë":{"ha":697,"x_min":29,"x_max":703,"o":"m 228 282 l 249 408 q 276 406 261 407 q 310 405 292 406 q 350 404 328 404 q 444 432 414 404 q 474 507 474 460 q 458 551 474 535 q 408 568 443 568 q 329 540 367 568 q 268 444 292 513 q 244 257 244 376 q 276 182 244 210 q 393 154 307 154 q 499 163 439 154 q 594 182 558 171 l 578 14 q 471 -9 525 0 q 353 -18 417 -18 q 186 11 260 -18 q 71 101 113 40 q 29 257 29 163 q 55 447 29 361 q 131 596 81 533 q 255 692 181 658 q 425 725 329 725 q 625 666 560 724 q 690 524 690 608 q 647 377 690 432 q 528 299 603 322 q 358 275 453 275 q 283 278 315 275 q 228 282 250 281 m 363 1013 q 424 992 401 1013 q 446 935 446 972 q 409 840 446 876 q 318 804 372 804 q 257 824 279 804 q 235 882 235 844 q 272 976 235 940 q 363 1013 308 1013 m 619 1013 q 681 992 658 1013 q 703 935 703 972 q 666 840 703 876 q 575 804 629 804 q 514 824 536 804 q 492 882 492 844 q 528 976 492 940 q 619 1013 565 1013 z "},"è":{"ha":697,"x_min":29,"x_max":690,"o":"m 228 282 l 249 408 q 276 406 261 407 q 310 405 292 406 q 350 404 328 404 q 444 432 414 404 q 474 507 474 460 q 458 551 474 535 q 408 568 443 568 q 329 540 367 568 q 268 444 292 513 q 244 257 244 376 q 276 182 244 210 q 393 154 307 154 q 499 163 439 154 q 594 182 558 171 l 578 14 q 471 -9 525 0 q 353 -18 417 -18 q 186 11 260 -18 q 71 101 113 40 q 29 257 29 163 q 55 447 29 361 q 131 596 81 533 q 255 692 181 658 q 425 725 329 725 q 625 666 560 724 q 690 524 690 608 q 647 377 690 432 q 528 299 603 322 q 358 275 453 275 q 283 278 315 275 q 228 282 250 281 m 267 1014 l 489 1014 l 549 790 l 397 790 l 267 1014 z "},"ĕ":{"ha":697,"x_min":29,"x_max":710,"o":"m 228 282 l 249 408 q 276 406 261 407 q 310 405 292 406 q 350 404 328 404 q 444 432 414 404 q 474 507 474 460 q 458 551 474 535 q 408 568 443 568 q 329 540 367 568 q 268 444 292 513 q 244 257 244 376 q 276 182 244 210 q 393 154 307 154 q 499 163 439 154 q 594 182 558 171 l 578 14 q 471 -9 525 0 q 353 -18 417 -18 q 186 11 260 -18 q 71 101 113 40 q 29 257 29 163 q 55 447 29 361 q 131 596 81 533 q 255 692 181 658 q 425 725 329 725 q 625 666 560 724 q 690 524 690 608 q 647 377 690 432 q 528 299 603 322 q 358 275 453 275 q 283 278 315 275 q 228 282 250 281 m 265 1000 l 429 1000 q 435 943 422 961 q 472 925 447 925 q 517 943 497 925 q 547 1000 538 961 l 710 1000 q 619 842 679 886 q 464 799 560 799 q 351 817 401 799 q 277 881 301 836 q 265 1000 253 925 z "},"ě":{"ha":697,"x_min":29,"x_max":726,"o":"m 228 282 l 249 408 q 276 406 261 407 q 310 405 292 406 q 350 404 328 404 q 444 432 414 404 q 474 507 474 460 q 458 551 474 535 q 408 568 443 568 q 329 540 367 568 q 268 444 292 513 q 244 257 244 376 q 276 182 244 210 q 393 154 307 154 q 499 163 439 154 q 594 182 558 171 l 578 14 q 471 -9 525 0 q 353 -18 417 -18 q 186 11 260 -18 q 71 101 113 40 q 29 257 29 163 q 55 447 29 361 q 131 596 81 533 q 255 692 181 658 q 425 725 329 725 q 625 666 560 724 q 690 524 690 608 q 647 377 690 432 q 528 299 603 322 q 358 275 453 275 q 283 278 315 275 q 228 282 250 281 m 353 790 l 254 1014 l 428 1014 l 460 897 l 542 1014 l 726 1014 l 533 790 l 353 790 z "},"ė":{"ha":697,"x_min":29,"x_max":690,"o":"m 228 282 l 249 408 q 276 406 261 407 q 310 405 292 406 q 350 404 328 404 q 444 432 414 404 q 474 507 474 460 q 458 551 474 535 q 408 568 443 568 q 329 540 367 568 q 268 444 292 513 q 244 257 244 376 q 276 182 244 210 q 393 154 307 154 q 499 163 439 154 q 594 182 558 171 l 578 14 q 471 -9 525 0 q 353 -18 417 -18 q 186 11 260 -18 q 71 101 113 40 q 29 257 29 163 q 55 447 29 361 q 131 596 81 533 q 255 692 181 658 q 425 725 329 725 q 625 666 560 724 q 690 524 690 608 q 647 377 690 432 q 528 299 603 322 q 358 275 453 275 q 283 278 315 275 q 228 282 250 281 m 488 1014 q 563 990 535 1014 q 590 925 590 967 q 551 828 590 858 q 447 797 513 797 q 372 821 400 797 q 344 886 344 844 q 384 983 344 953 q 488 1014 424 1014 z "},"ē":{"ha":697,"x_min":29,"x_max":690,"o":"m 228 282 l 249 408 q 276 406 261 407 q 310 405 292 406 q 350 404 328 404 q 444 432 414 404 q 474 507 474 460 q 458 551 474 535 q 408 568 443 568 q 329 540 367 568 q 268 444 292 513 q 244 257 244 376 q 276 182 244 210 q 393 154 307 154 q 499 163 439 154 q 594 182 558 171 l 578 14 q 471 -9 525 0 q 353 -18 417 -18 q 186 11 260 -18 q 71 101 113 40 q 29 257 29 163 q 55 447 29 361 q 131 596 81 533 q 255 692 181 658 q 425 725 329 725 q 625 666 560 724 q 690 524 690 608 q 647 377 690 432 q 528 299 603 322 q 358 275 453 275 q 283 278 315 275 q 228 282 250 281 m 272 950 l 682 950 l 653 811 l 243 811 l 272 950 z "},"ę":{"ha":697,"x_min":29,"x_max":690,"o":"m 228 282 l 249 408 q 276 406 261 407 q 310 405 292 406 q 350 404 328 404 q 444 432 414 404 q 474 507 474 460 q 458 551 474 535 q 408 568 443 568 q 330 540 368 568 q 268 445 292 513 q 244 257 244 378 q 276 182 244 210 q 393 154 307 154 q 499 163 439 154 q 594 182 558 171 l 578 14 q 471 -9 525 0 q 353 -18 417 -18 q 186 11 260 -18 q 71 101 113 40 q 29 257 29 163 q 55 447 29 361 q 131 595 81 532 q 255 692 181 658 q 425 725 329 725 q 625 667 560 724 q 690 524 690 610 q 647 377 690 432 q 528 299 603 322 q 358 275 453 275 q 283 278 315 275 q 228 282 250 281 m 549 -136 l 544 -246 q 487 -265 518 -258 q 425 -272 456 -272 q 313 -242 349 -272 q 278 -164 278 -212 q 300 -92 278 -125 q 359 -32 322 -58 q 436 13 396 -6 l 578 14 q 514 -28 544 -6 q 464 -76 483 -51 q 444 -124 444 -100 q 453 -145 444 -139 q 481 -151 463 -151 q 512 -148 496 -151 q 549 -136 528 -144 z "},"ǽ":{"ha":1057,"x_min":-7,"x_max":1058,"o":"m 596 282 l 617 408 q 644 406 629 407 q 678 405 660 406 q 718 404 696 404 q 812 432 782 404 q 842 507 842 460 q 826 551 842 535 q 776 568 811 568 q 698 540 736 568 q 636 445 660 513 q 613 257 613 378 q 644 182 613 210 q 761 154 675 154 q 867 163 807 154 q 963 182 926 171 l 946 14 q 839 -9 893 0 q 721 -18 785 -18 q 554 11 628 -18 q 439 101 481 40 q 397 257 397 163 q 423 447 397 361 q 499 595 449 532 q 623 692 549 658 q 793 725 697 725 q 993 667 928 724 q 1058 524 1058 610 q 1015 377 1058 432 q 896 299 971 322 q 726 275 821 275 q 651 278 683 275 q 596 282 618 281 m 408 290 q 361 296 390 293 q 315 299 332 299 q 231 276 267 299 q 194 196 194 253 q 217 142 194 157 q 274 126 239 126 q 349 133 315 126 q 414 150 382 140 l 531 46 q 455 13 501 28 q 360 -9 408 -1 q 276 -17 313 -17 q 72 31 150 -17 q -7 185 -7 78 q 19 303 -7 256 q 90 381 46 351 q 187 422 133 410 q 294 435 240 435 q 360 432 331 435 q 415 424 389 429 l 426 478 q 415 549 438 531 q 332 567 392 567 q 226 558 285 567 q 122 539 168 550 l 146 693 q 260 714 196 706 q 381 722 325 722 q 492 706 442 722 q 574 654 542 690 l 408 290 m 664 1014 l 896 1014 l 671 790 l 507 790 l 664 1014 z "},"ğ":{"ha":746,"x_min":-25,"x_max":751,"o":"m 271 -4 q 149 22 204 -4 q 62 106 94 49 q 29 253 29 163 q 80 499 29 393 q 224 665 131 606 q 444 725 318 725 q 609 706 525 725 q 751 663 693 688 l 617 25 q 539 -162 592 -96 q 405 -253 486 -228 q 211 -278 324 -278 q 74 -265 139 -278 q -25 -240 10 -253 l 26 -78 q 119 -101 60 -90 q 232 -112 178 -112 q 348 -89 306 -112 q 404 -6 390 -65 l 414 33 l 424 24 q 358 4 399 13 q 271 -4 318 -4 m 518 542 q 480 554 503 549 q 433 560 457 560 q 329 520 374 560 q 261 413 285 481 q 238 261 238 346 q 260 183 238 206 q 325 161 283 161 q 390 174 356 161 q 446 204 424 186 l 518 542 m 290 1000 l 454 1000 q 460 943 447 961 q 497 925 472 925 q 542 943 522 925 q 572 1000 563 961 l 735 1000 q 644 842 704 886 q 489 799 585 799 q 376 817 426 799 q 302 881 326 836 q 290 1000 278 925 z "},"ĝ":{"ha":746,"x_min":-25,"x_max":751,"o":"m 271 -4 q 149 22 204 -4 q 62 106 94 49 q 29 253 29 163 q 80 499 29 393 q 224 665 131 606 q 444 725 318 725 q 609 706 525 725 q 751 663 693 688 l 617 25 q 539 -162 592 -96 q 405 -253 486 -228 q 211 -278 324 -278 q 74 -265 139 -278 q -25 -240 10 -253 l 26 -78 q 119 -101 60 -90 q 232 -112 178 -112 q 348 -89 306 -112 q 404 -6 390 -65 l 414 33 l 424 24 q 358 4 399 13 q 271 -4 318 -4 m 518 542 q 480 554 503 549 q 433 560 457 560 q 329 520 374 560 q 261 413 285 481 q 238 261 238 346 q 260 183 238 206 q 325 161 283 161 q 390 174 356 161 q 446 204 424 186 l 518 542 m 425 1014 l 606 1014 l 704 790 l 531 790 l 499 907 l 417 790 l 232 790 l 425 1014 z "},"ģ":{"ha":746,"x_min":-25,"x_max":751,"o":"m 271 -4 q 149 22 204 -4 q 62 106 94 49 q 29 253 29 163 q 80 499 29 393 q 224 665 131 606 q 444 725 318 725 q 609 706 525 725 q 751 663 693 688 l 617 25 q 539 -162 592 -96 q 405 -253 486 -228 q 211 -278 324 -278 q 74 -265 139 -278 q -25 -240 10 -253 l 26 -78 q 119 -101 60 -90 q 232 -112 178 -112 q 348 -89 306 -112 q 404 -6 390 -65 l 414 33 l 424 24 q 358 4 399 13 q 271 -4 318 -4 m 518 542 q 480 554 503 549 q 433 560 457 560 q 329 520 374 560 q 261 413 285 481 q 238 261 238 346 q 260 183 238 206 q 325 161 283 161 q 390 174 356 161 q 446 204 424 186 l 518 542 m 535 1006 l 751 1006 l 572 808 l 415 808 l 535 1006 z "},"ġ":{"ha":746,"x_min":-25,"x_max":751,"o":"m 271 -4 q 149 22 204 -4 q 62 106 94 49 q 29 253 29 163 q 80 499 29 393 q 224 665 131 606 q 444 725 318 725 q 609 706 525 725 q 751 663 693 688 l 617 25 q 539 -162 592 -96 q 405 -253 486 -228 q 211 -278 324 -278 q 74 -265 139 -278 q -25 -240 10 -253 l 26 -78 q 119 -101 60 -90 q 232 -112 178 -112 q 348 -89 306 -112 q 404 -6 390 -65 l 414 33 l 424 24 q 358 4 399 13 q 271 -4 318 -4 m 518 542 q 480 554 503 549 q 433 560 457 560 q 329 520 374 560 q 261 413 285 481 q 238 261 238 346 q 260 183 238 206 q 325 161 283 161 q 390 174 356 161 q 446 204 424 186 l 518 542 m 513 1014 q 588 990 560 1014 q 615 925 615 967 q 576 828 615 858 q 472 797 538 797 q 397 821 425 797 q 369 886 369 844 q 409 983 369 953 q 513 1014 449 1014 z "},"ħ":{"ha":783,"x_min":32,"x_max":768,"o":"m 606 790 l 93 790 l 121 924 l 633 924 l 606 790 m 240 0 l 32 0 l 247 1014 l 454 1014 l 390 711 q 447 722 417 718 q 507 725 476 725 q 650 700 589 725 q 740 617 711 675 q 747 460 768 558 l 649 0 l 440 0 l 535 447 q 535 513 543 489 q 506 548 528 538 q 451 558 485 558 q 401 555 425 558 q 357 546 376 551 l 240 0 z "},"ĥ":{"ha":744,"x_min":-7,"x_max":776,"o":"m 201 0 l -7 0 l 208 1014 l 415 1014 l 351 711 q 408 722 378 718 q 468 725 438 725 q 611 700 550 725 q 701 617 672 675 q 708 460 729 558 l 610 0 l 401 0 l 496 447 q 497 513 504 489 q 467 548 489 538 q 413 558 446 558 q 362 555 386 558 q 318 546 338 551 l 201 0 m 497 1303 l 678 1303 l 776 1079 l 603 1079 l 571 1196 l 489 1079 l 304 1079 l 497 1303 z "},"í":{"ha":406,"x_min":11,"x_max":532,"o":"m 143 707 l 351 707 l 247 231 q 249 173 238 190 q 289 156 260 156 q 320 158 306 156 q 346 163 335 160 l 310 -6 q 261 -15 286 -11 q 213 -18 236 -18 q 59 43 107 -18 q 39 232 11 104 l 143 707 m 300 1014 l 532 1014 l 307 790 l 143 790 l 300 1014 z "},"î":{"ha":406,"x_min":11,"x_max":501,"o":"m 143 707 l 351 707 l 247 231 q 249 173 238 190 q 289 156 260 156 q 320 158 306 156 q 346 163 335 160 l 310 -6 q 261 -15 286 -11 q 213 -18 236 -18 q 59 43 107 -18 q 39 232 11 104 l 143 707 m 222 1014 l 403 1014 l 501 790 l 328 790 l 296 907 l 214 790 l 29 790 l 222 1014 z "},"ï":{"ha":406,"x_min":11,"x_max":525,"o":"m 143 707 l 351 707 l 247 231 q 249 173 238 190 q 289 156 260 156 q 320 158 306 156 q 346 163 335 160 l 310 -6 q 261 -15 286 -11 q 213 -18 236 -18 q 59 43 107 -18 q 39 232 11 104 l 143 707 m 185 1013 q 246 992 224 1013 q 268 935 268 972 q 231 840 268 876 q 140 804 194 804 q 79 824 101 804 q 57 882 57 844 q 94 976 57 940 q 185 1013 131 1013 m 442 1013 q 503 992 481 1013 q 525 935 525 972 q 488 840 525 876 q 397 804 451 804 q 336 824 358 804 q 314 882 314 844 q 351 976 314 940 q 442 1013 388 1013 z "},"ì":{"ha":406,"x_min":11,"x_max":371,"o":"m 143 707 l 351 707 l 247 231 q 249 173 238 190 q 289 156 260 156 q 320 158 306 156 q 346 163 335 160 l 310 -6 q 261 -15 286 -11 q 213 -18 236 -18 q 59 43 107 -18 q 39 232 11 104 l 143 707 m 89 1014 l 311 1014 l 371 790 l 219 790 l 89 1014 z "},"ĭ":{"ha":406,"x_min":11,"x_max":532,"o":"m 143 707 l 351 707 l 247 231 q 249 173 238 190 q 289 156 260 156 q 320 158 306 156 q 346 163 335 160 l 310 -6 q 261 -15 286 -11 q 213 -18 236 -18 q 59 43 107 -18 q 39 232 11 104 l 143 707 m 88 1000 l 251 1000 q 257 943 244 961 q 294 925 269 925 q 340 943 319 925 q 369 1000 360 961 l 532 1000 q 442 842 501 886 q 286 799 382 799 q 174 817 224 799 q 99 881 124 836 q 88 1000 75 925 z "},"ī":{"ha":406,"x_min":11,"x_max":504,"o":"m 143 707 l 351 707 l 247 231 q 249 173 238 190 q 289 156 260 156 q 320 158 306 156 q 346 163 335 160 l 310 -6 q 261 -15 286 -11 q 213 -18 236 -18 q 59 43 107 -18 q 39 232 11 104 l 143 707 m 94 950 l 504 950 l 475 811 l 65 811 l 94 950 z "},"į":{"ha":406,"x_min":11,"x_max":413,"o":"m 285 -136 l 281 -246 q 223 -265 254 -258 q 161 -272 192 -272 q 49 -242 85 -272 q 14 -164 14 -212 q 36 -92 14 -125 q 95 -32 58 -58 q 172 13 132 -6 l 310 -6 q 247 -42 276 -22 q 199 -83 218 -62 q 181 -124 181 -104 q 190 -145 181 -139 q 217 -151 199 -151 q 248 -148 232 -151 q 285 -136 264 -144 m 143 707 l 351 707 l 247 231 q 249 173 238 190 q 289 156 260 156 q 320 158 306 156 q 346 163 335 160 l 310 -6 q 261 -15 286 -11 q 213 -18 236 -18 q 59 43 107 -18 q 39 232 11 104 l 143 707 m 313 1022 q 386 1002 360 1022 q 413 940 413 982 q 372 841 413 876 q 267 806 331 806 q 193 826 219 806 q 167 888 167 846 q 208 987 167 951 q 313 1022 249 1022 z "},"ĩ":{"ha":406,"x_min":11,"x_max":550,"o":"m 143 707 l 351 707 l 247 231 q 249 173 238 190 q 289 156 260 156 q 320 158 306 156 q 346 163 335 160 l 310 -6 q 261 -15 286 -11 q 213 -18 236 -18 q 59 43 107 -18 q 39 232 11 104 l 143 707 m 156 801 l 29 854 q 97 955 54 913 q 199 997 139 997 q 265 983 236 997 q 315 953 293 968 q 356 939 336 939 q 394 957 381 939 q 421 1001 407 975 l 550 951 q 472 843 514 885 q 374 801 429 801 q 310 817 338 801 q 262 848 283 832 q 222 864 240 864 q 181 844 196 864 q 156 801 167 825 z "},"ĵ":{"ha":342,"x_min":-162,"x_max":490,"o":"m 144 707 l 353 707 l 226 113 q 186 -16 211 40 q 124 -117 161 -72 q 34 -200 86 -161 q -87 -278 -18 -239 l -162 -147 q -98 -99 -126 -125 q -47 -41 -69 -72 q -8 28 -24 -10 q 18 111 8 65 l 144 707 m 211 1014 l 392 1014 l 490 790 l 317 790 l 285 907 l 203 790 l 18 790 l 211 1014 z "},"ķ":{"ha":732,"x_min":-7,"x_max":772,"o":"m 208 1014 l 417 1014 l 289 411 l 558 707 l 772 707 l 485 399 q 578 322 549 379 q 625 171 608 265 l 654 0 l 446 0 l 418 146 q 383 249 404 215 q 325 285 361 283 l 247 217 l 201 0 l -7 0 l 208 1014 m 193 -64 l 410 -64 l 231 -261 l 74 -261 l 193 -64 z "},"ĸ":{"ha":732,"x_min":-7,"x_max":772,"o":"m 143 707 l 351 707 l 289 411 l 558 707 l 772 707 l 485 399 q 578 323 549 381 q 625 171 608 265 l 654 0 l 446 0 l 418 146 q 383 249 404 215 q 325 285 361 283 l 247 217 l 201 0 l -7 0 l 143 707 z "},"ĺ":{"ha":440,"x_min":22,"x_max":647,"o":"m 206 1014 l 414 1014 l 247 231 q 251 173 239 190 q 294 156 263 156 q 343 160 321 156 q 382 168 365 164 l 347 -1 q 285 -14 317 -10 q 221 -18 253 -18 q 101 9 147 -18 q 38 92 54 36 q 40 231 22 147 l 206 1014 m 415 1289 l 647 1289 l 422 1065 l 258 1065 l 415 1289 z "},"ľ":{"ha":596,"x_min":22,"x_max":738,"o":"m 206 1014 l 414 1014 l 247 231 q 251 173 239 190 q 294 156 263 156 q 343 160 321 156 q 382 168 365 164 l 347 -1 q 285 -14 317 -10 q 221 -18 253 -18 q 101 9 147 -18 q 38 92 54 36 q 40 231 22 147 l 206 1014 m 506 1014 l 738 1014 l 567 718 l 400 718 l 506 1014 z "},"ļ":{"ha":440,"x_min":-149,"x_max":414,"o":"m 206 1014 l 414 1014 l 247 231 q 251 173 239 190 q 294 156 263 156 q 343 160 321 156 q 382 168 365 164 l 347 -1 q 285 -14 317 -10 q 221 -18 253 -18 q 101 9 147 -18 q 38 92 54 36 q 40 231 22 147 l 206 1014 m -29 -64 l 188 -64 l 8 -261 l -149 -261 l -29 -64 z "},"ŀ":{"ha":625,"x_min":22,"x_max":632,"o":"m 206 1014 l 414 1014 l 247 231 q 251 173 239 190 q 294 156 263 156 q 343 160 321 156 q 382 168 365 164 l 347 -1 q 285 -14 317 -10 q 221 -18 253 -18 q 101 9 147 -18 q 38 92 54 36 q 40 231 22 147 l 206 1014 m 529 581 q 604 557 576 581 q 632 492 632 533 q 593 394 632 425 q 489 364 554 364 q 414 388 442 364 q 386 453 386 411 q 426 550 386 519 q 529 581 465 581 z "},"ñ":{"ha":744,"x_min":-7,"x_max":739,"o":"m 201 0 l -7 0 l 135 669 q 290 710 215 694 q 442 725 365 725 q 601 700 533 725 q 700 617 669 675 q 708 460 731 558 l 610 0 l 401 0 l 496 447 q 497 513 504 489 q 467 548 489 538 q 413 558 446 558 q 362 555 386 558 q 318 546 338 551 l 201 0 m 344 801 l 218 854 q 285 955 243 913 q 388 997 328 997 q 453 983 425 997 q 503 953 482 968 q 544 939 525 939 q 583 957 569 939 q 610 1001 596 975 l 739 951 q 660 843 703 885 q 563 801 618 801 q 499 817 526 801 q 451 848 472 832 q 411 864 429 864 q 370 844 385 864 q 344 801 356 825 z "},"ń":{"ha":744,"x_min":-7,"x_max":731,"o":"m 201 0 l -7 0 l 135 669 q 290 710 215 694 q 442 725 365 725 q 601 700 533 725 q 700 617 669 675 q 708 460 731 558 l 610 0 l 401 0 l 496 447 q 497 513 504 489 q 467 548 489 538 q 413 558 446 558 q 362 555 386 558 q 318 546 338 551 l 201 0 m 494 1014 l 726 1014 l 501 790 l 338 790 l 494 1014 z "},"ň":{"ha":744,"x_min":-7,"x_max":738,"o":"m 201 0 l -7 0 l 135 669 q 290 710 215 694 q 442 725 365 725 q 601 700 533 725 q 700 617 669 675 q 708 460 731 558 l 610 0 l 401 0 l 496 447 q 497 513 504 489 q 467 548 489 538 q 413 558 446 558 q 362 555 386 558 q 318 546 338 551 l 201 0 m 364 790 l 265 1014 l 439 1014 l 471 897 l 553 1014 l 738 1014 l 544 790 l 364 790 z "},"ņ":{"ha":744,"x_min":-7,"x_max":731,"o":"m 201 0 l -7 0 l 135 669 q 290 710 215 694 q 442 725 365 725 q 601 700 533 725 q 700 617 669 675 q 708 460 731 558 l 610 0 l 401 0 l 496 447 q 497 513 504 489 q 467 548 489 538 q 413 558 446 558 q 362 555 386 558 q 318 546 338 551 l 201 0 m 188 -64 l 404 -64 l 225 -261 l 68 -261 l 188 -64 z "},"ŋ":{"ha":744,"x_min":-11,"x_max":725,"o":"m 197 0 l -11 0 l 131 669 q 286 710 211 694 q 438 725 361 725 q 597 700 529 725 q 694 617 664 675 q 704 460 725 558 l 629 113 q 589 -17 614 39 q 526 -118 564 -74 q 437 -201 489 -162 q 315 -278 385 -239 l 240 -147 q 305 -98 276 -124 q 356 -41 333 -72 q 395 28 379 -10 q 421 111 411 65 l 492 447 q 492 513 500 489 q 463 548 485 538 q 408 558 442 558 q 358 555 382 558 q 314 546 333 551 l 197 0 z "},"ó":{"ha":754,"x_min":22,"x_max":740,"o":"m 429 725 q 653 659 574 725 q 733 450 733 593 q 708 283 733 365 q 633 132 683 200 q 506 23 582 64 q 326 -18 429 -18 q 102 48 182 -18 q 22 257 22 114 q 47 424 22 342 q 123 575 72 507 q 250 684 174 643 q 429 725 326 725 m 335 147 q 416 171 381 147 q 476 236 451 194 q 513 334 500 278 q 525 454 525 390 q 499 535 525 511 q 421 560 474 560 q 340 536 375 560 q 280 471 304 513 q 243 374 256 429 q 231 253 231 318 q 256 172 231 197 q 335 147 282 147 m 508 1014 l 740 1014 l 515 790 l 351 790 l 508 1014 z "},"ô":{"ha":754,"x_min":22,"x_max":733,"o":"m 429 725 q 653 659 574 725 q 733 450 733 593 q 708 283 733 365 q 633 132 683 200 q 506 23 582 64 q 326 -18 429 -18 q 102 48 182 -18 q 22 257 22 114 q 47 424 22 342 q 123 575 72 507 q 250 684 174 643 q 429 725 326 725 m 335 147 q 416 171 381 147 q 476 236 451 194 q 513 334 500 278 q 525 454 525 390 q 499 535 525 511 q 421 560 474 560 q 340 536 375 560 q 280 471 304 513 q 243 374 256 429 q 231 253 231 318 q 256 172 231 197 q 335 147 282 147 m 418 1014 l 599 1014 l 697 790 l 524 790 l 492 907 l 410 790 l 225 790 l 418 1014 z "},"ö":{"ha":754,"x_min":22,"x_max":733,"o":"m 429 725 q 653 659 574 725 q 733 450 733 593 q 708 283 733 365 q 633 132 683 200 q 506 23 582 64 q 326 -18 429 -18 q 102 48 182 -18 q 22 257 22 114 q 47 424 22 342 q 123 575 72 507 q 250 684 174 643 q 429 725 326 725 m 335 147 q 416 171 381 147 q 476 236 451 194 q 513 334 500 278 q 525 454 525 390 q 499 535 525 511 q 421 560 474 560 q 340 536 375 560 q 280 471 304 513 q 243 374 256 429 q 231 253 231 318 q 256 172 231 197 q 335 147 282 147 m 378 1013 q 439 992 417 1013 q 461 935 461 972 q 424 840 461 876 q 333 804 388 804 q 272 824 294 804 q 250 882 250 844 q 287 976 250 940 q 378 1013 324 1013 m 635 1013 q 696 992 674 1013 q 718 935 718 972 q 681 840 718 876 q 590 804 644 804 q 529 824 551 804 q 507 882 507 844 q 544 976 507 940 q 635 1013 581 1013 z "},"ò":{"ha":754,"x_min":22,"x_max":733,"o":"m 429 725 q 653 659 574 725 q 733 450 733 593 q 708 283 733 365 q 633 132 683 200 q 506 23 582 64 q 326 -18 429 -18 q 102 48 182 -18 q 22 257 22 114 q 47 424 22 342 q 123 575 72 507 q 250 684 174 643 q 429 725 326 725 m 335 147 q 416 171 381 147 q 476 236 451 194 q 513 334 500 278 q 525 454 525 390 q 499 535 525 511 q 421 560 474 560 q 340 536 375 560 q 280 471 304 513 q 243 374 256 429 q 231 253 231 318 q 256 172 231 197 q 335 147 282 147 m 279 1014 l 501 1014 l 561 790 l 410 790 l 279 1014 z "},"õ":{"ha":754,"x_min":22,"x_max":743,"o":"m 429 725 q 653 659 574 725 q 733 450 733 593 q 708 283 733 365 q 633 132 683 200 q 506 23 582 64 q 326 -18 429 -18 q 102 48 182 -18 q 22 257 22 114 q 47 424 22 342 q 123 575 72 507 q 250 684 174 643 q 429 725 326 725 m 335 147 q 416 171 381 147 q 476 236 451 194 q 513 334 500 278 q 525 454 525 390 q 499 535 525 511 q 421 560 474 560 q 340 536 375 560 q 280 471 304 513 q 243 374 256 429 q 231 253 231 318 q 256 172 231 197 q 335 147 282 147 m 349 801 l 222 854 q 290 955 247 913 q 392 997 332 997 q 458 983 429 997 q 508 953 486 968 q 549 939 529 939 q 587 957 574 939 q 614 1001 600 975 l 743 951 q 665 843 707 885 q 567 801 622 801 q 503 817 531 801 q 455 848 476 832 q 415 864 433 864 q 374 844 389 864 q 349 801 360 825 z "},"ŏ":{"ha":754,"x_min":22,"x_max":733,"o":"m 429 725 q 653 659 574 725 q 733 450 733 593 q 708 283 733 365 q 633 132 683 200 q 506 23 582 64 q 326 -18 429 -18 q 102 48 182 -18 q 22 257 22 114 q 47 424 22 342 q 123 575 72 507 q 250 684 174 643 q 429 725 326 725 m 335 147 q 416 171 381 147 q 476 236 451 194 q 513 334 500 278 q 525 454 525 390 q 499 535 525 511 q 421 560 474 560 q 340 536 375 560 q 280 471 304 513 q 243 374 256 429 q 231 253 231 318 q 256 172 231 197 q 335 147 282 147 m 281 1000 l 444 1000 q 450 943 438 961 q 488 925 463 925 q 533 943 513 925 q 563 1000 553 961 l 725 1000 q 635 842 694 886 q 479 799 575 799 q 367 817 417 799 q 292 881 317 836 q 281 1000 268 925 z "},"ő":{"ha":754,"x_min":22,"x_max":769,"o":"m 429 725 q 653 659 574 725 q 733 450 733 593 q 708 283 733 365 q 633 132 683 200 q 506 23 582 64 q 326 -18 429 -18 q 102 48 182 -18 q 22 257 22 114 q 47 424 22 342 q 123 575 72 507 q 250 684 174 643 q 429 725 326 725 m 335 147 q 416 171 381 147 q 476 236 451 194 q 513 334 500 278 q 525 454 525 390 q 499 535 525 511 q 421 560 474 560 q 340 536 375 560 q 280 471 304 513 q 243 374 256 429 q 231 253 231 318 q 256 172 231 197 q 335 147 282 147 m 358 1014 l 538 1014 l 415 790 l 281 790 l 358 1014 m 575 1014 l 769 1014 l 614 790 l 476 790 l 575 1014 z "},"ō":{"ha":754,"x_min":22,"x_max":733,"o":"m 429 725 q 653 659 574 725 q 733 450 733 593 q 708 283 733 365 q 633 132 683 200 q 506 23 582 64 q 326 -18 429 -18 q 102 48 182 -18 q 22 257 22 114 q 47 424 22 342 q 123 575 72 507 q 250 684 174 643 q 429 725 326 725 m 335 147 q 416 171 381 147 q 476 236 451 194 q 513 334 500 278 q 525 454 525 390 q 499 535 525 511 q 421 560 474 560 q 340 536 375 560 q 280 471 304 513 q 243 374 256 429 q 231 253 231 318 q 256 172 231 197 q 335 147 282 147 m 288 950 l 697 950 l 668 811 l 258 811 l 288 950 z "},"ǿ":{"ha":754,"x_min":-47,"x_max":790,"o":"m 75 -118 l -47 -42 l 668 822 l 790 746 l 75 -118 m 424 725 q 648 659 568 725 q 728 450 728 593 q 703 283 728 365 q 627 132 678 200 q 500 23 576 64 q 321 -18 424 -18 q 97 48 176 -18 q 17 257 17 114 q 42 424 17 342 q 117 575 67 507 q 244 684 168 643 q 424 725 321 725 m 329 147 q 411 171 375 147 q 472 236 447 194 q 510 334 497 278 q 524 454 524 390 q 497 535 524 511 q 415 560 471 560 q 333 536 369 560 q 272 471 297 513 q 234 374 247 429 q 221 253 221 318 q 247 172 221 197 q 329 147 274 147 m 521 1014 l 753 1014 l 528 790 l 364 790 l 521 1014 z "},"ŕ":{"ha":485,"x_min":-11,"x_max":635,"o":"m 544 725 l 508 558 q 411 555 460 558 q 313 544 363 551 l 197 0 l -11 0 l 131 669 q 342 713 235 701 q 544 725 450 725 m 403 1014 l 635 1014 l 410 790 l 246 790 l 403 1014 z "},"ř":{"ha":485,"x_min":-11,"x_max":646,"o":"m 544 725 l 508 558 q 411 555 460 558 q 313 544 363 551 l 197 0 l -11 0 l 131 669 q 342 713 235 701 q 544 725 450 725 m 272 790 l 174 1014 l 347 1014 l 379 897 l 461 1014 l 646 1014 l 453 790 l 272 790 z "},"ŗ":{"ha":485,"x_min":-151,"x_max":544,"o":"m 544 725 l 508 558 q 411 555 460 558 q 313 544 363 551 l 197 0 l -11 0 l 131 669 q 342 713 235 701 q 544 725 450 725 m -32 -64 l 185 -64 l 6 -261 l -151 -261 l -32 -64 z "},"š":{"ha":610,"x_min":-12,"x_max":694,"o":"m 617 703 l 571 543 q 491 557 532 551 q 396 563 450 563 q 315 551 344 563 q 286 514 286 539 q 313 467 286 488 q 380 427 340 447 q 459 380 419 407 q 526 313 499 353 q 553 211 553 272 q 511 78 553 129 q 394 5 469 28 q 218 -18 318 -18 q 87 -7 150 -18 q -12 18 24 4 l 39 176 q 122 156 71 165 q 219 146 174 146 q 305 164 285 146 q 325 206 325 182 q 306 247 325 229 q 259 281 288 264 q 197 317 231 297 q 135 362 164 336 q 88 424 107 388 q 69 511 69 461 q 112 640 69 593 q 229 706 154 686 q 401 725 304 725 q 515 719 460 725 q 617 703 569 713 m 321 790 l 222 1014 l 396 1014 l 428 897 l 510 1014 l 694 1014 l 501 790 l 321 790 z "},"ś":{"ha":610,"x_min":-12,"x_max":683,"o":"m 617 703 l 571 543 q 491 557 532 551 q 396 563 450 563 q 315 551 344 563 q 286 514 286 539 q 313 467 286 488 q 380 427 340 447 q 459 380 419 407 q 526 313 499 353 q 553 211 553 272 q 511 78 553 129 q 394 5 469 28 q 218 -18 318 -18 q 87 -7 150 -18 q -12 18 24 4 l 39 176 q 122 156 71 165 q 219 146 174 146 q 305 164 285 146 q 325 206 325 182 q 306 247 325 229 q 259 281 288 264 q 197 317 231 297 q 135 362 164 336 q 88 424 107 388 q 69 511 69 461 q 112 640 69 593 q 229 706 154 686 q 401 725 304 725 q 515 719 460 725 q 617 703 569 713 m 451 1014 l 683 1014 l 458 790 l 294 790 l 451 1014 z "},"ş":{"ha":610,"x_min":-12,"x_max":617,"o":"m 617 703 l 571 543 q 491 557 532 551 q 396 563 450 563 q 315 551 344 563 q 286 514 286 539 q 313 467 286 488 q 380 427 340 447 q 459 380 419 407 q 526 313 499 353 q 553 211 553 272 q 511 78 553 129 q 394 5 469 28 q 218 -18 318 -18 q 87 -7 150 -18 q -12 18 24 4 l 39 176 q 122 156 71 165 q 219 146 174 146 q 305 164 285 146 q 325 206 325 182 q 306 247 325 229 q 259 281 288 264 q 197 317 231 297 q 135 362 164 336 q 88 424 107 388 q 69 511 69 461 q 112 640 69 593 q 229 706 154 686 q 401 725 304 725 q 515 719 460 725 q 617 703 569 713 m 151 -50 l 293 -50 q 311 -94 304 -68 q 318 -146 318 -121 q 274 -242 318 -203 q 129 -282 231 -282 q 62 -276 94 -282 q 0 -260 29 -271 l 47 -149 q 75 -157 57 -153 q 106 -161 93 -161 q 153 -145 140 -161 q 165 -106 165 -129 q 162 -78 165 -92 q 151 -50 158 -64 z "},"ŝ":{"ha":610,"x_min":-12,"x_max":647,"o":"m 617 703 l 571 543 q 491 557 532 551 q 396 563 450 563 q 315 551 344 563 q 286 514 286 539 q 313 467 286 488 q 380 427 340 447 q 459 380 419 407 q 526 313 499 353 q 553 211 553 272 q 511 78 553 129 q 394 5 469 28 q 218 -18 318 -18 q 87 -7 150 -18 q -12 18 24 4 l 39 176 q 122 156 71 165 q 219 146 174 146 q 305 164 285 146 q 325 206 325 182 q 306 247 325 229 q 259 281 288 264 q 197 317 231 297 q 135 362 164 336 q 88 424 107 388 q 69 511 69 461 q 112 640 69 593 q 229 706 154 686 q 401 725 304 725 q 515 719 460 725 q 617 703 569 713 m 368 1014 l 549 1014 l 647 790 l 474 790 l 442 907 l 360 790 l 175 790 l 368 1014 z "},"ș":{"ha":610,"x_min":-26,"x_max":617,"o":"m 617 703 l 571 543 q 491 557 532 551 q 396 563 450 563 q 315 551 344 563 q 286 514 286 539 q 313 467 286 488 q 380 427 340 447 q 459 380 419 407 q 526 313 499 353 q 553 211 553 272 q 511 78 553 129 q 394 5 469 28 q 218 -18 318 -18 q 87 -7 150 -18 q -12 18 24 4 l 39 176 q 122 156 71 165 q 219 146 174 146 q 305 164 285 146 q 325 206 325 182 q 306 247 325 229 q 259 281 288 264 q 197 317 231 297 q 135 362 164 336 q 88 424 107 388 q 69 511 69 461 q 112 640 69 593 q 229 706 154 686 q 401 725 304 725 q 515 719 460 725 q 617 703 569 713 m 93 -64 l 310 -64 l 131 -261 l -26 -261 l 93 -64 z "},"ţ":{"ha":544,"x_min":-33,"x_max":581,"o":"m 264 861 l 435 861 l 401 707 l 581 707 l 546 544 l 367 544 l 301 233 q 308 172 292 189 q 360 156 325 156 q 413 160 385 156 q 460 169 440 164 l 431 3 q 360 -13 396 -8 q 289 -18 324 -18 q 162 8 213 -18 q 92 90 111 35 q 92 228 74 144 l 158 544 l 61 544 l 96 707 l 193 707 l 264 861 m 86 -64 l 303 -64 l 124 -261 l -33 -261 l 86 -64 z "},"ț":{"ha":544,"x_min":-33,"x_max":581,"o":"m 264 861 l 435 861 l 401 707 l 581 707 l 546 544 l 367 544 l 301 233 q 308 172 292 189 q 360 156 325 156 q 413 160 385 156 q 460 169 440 164 l 431 3 q 360 -13 396 -8 q 289 -18 324 -18 q 162 8 213 -18 q 92 90 111 35 q 92 228 74 144 l 158 544 l 61 544 l 96 707 l 193 707 l 264 861 m 86 -64 l 303 -64 l 124 -261 l -33 -261 l 86 -64 z "},"ŧ":{"ha":544,"x_min":6,"x_max":578,"o":"m 6 293 l 36 436 l 485 436 l 454 293 l 6 293 m 261 861 l 432 861 l 399 707 l 578 707 l 543 544 l 364 544 l 299 233 q 306 172 289 189 q 357 156 322 156 q 410 160 382 156 q 457 169 438 164 l 428 3 q 357 -13 393 -8 q 286 -18 321 -18 q 159 8 210 -18 q 90 90 108 35 q 89 228 71 144 l 156 544 l 58 544 l 93 707 l 190 707 l 261 861 z "},"ť":{"ha":544,"x_min":61,"x_max":754,"o":"m 563 1014 l 754 1014 l 590 774 l 461 774 l 563 1014 m 264 861 l 435 861 l 401 707 l 581 707 l 546 544 l 367 544 l 301 233 q 308 172 292 189 q 360 156 325 156 q 413 160 385 156 q 460 169 440 164 l 431 3 q 360 -13 396 -8 q 289 -18 324 -18 q 162 8 213 -18 q 92 90 111 35 q 92 228 74 144 l 158 544 l 61 544 l 96 707 l 193 707 l 264 861 z "},"ú":{"ha":796,"x_min":17,"x_max":742,"o":"m 707 -1 q 601 -18 656 -18 q 511 -1 546 -18 q 464 47 476 17 q 381 1 433 21 q 264 -18 328 -18 q 124 11 182 -18 q 41 101 65 40 q 38 254 17 161 l 133 707 l 340 707 l 246 258 q 243 192 238 217 q 267 158 249 168 q 314 147 286 147 q 376 160 346 147 q 424 192 406 174 l 533 707 l 742 707 l 642 235 q 642 174 632 192 q 679 156 651 156 q 704 157 690 156 q 736 163 718 158 l 707 -1 m 503 1014 l 735 1014 l 510 790 l 346 790 l 503 1014 z "},"û":{"ha":796,"x_min":17,"x_max":742,"o":"m 707 -1 q 601 -18 656 -18 q 511 -1 546 -18 q 464 47 476 17 q 381 1 433 21 q 264 -18 328 -18 q 124 11 182 -18 q 41 101 65 40 q 38 254 17 161 l 133 707 l 340 707 l 246 258 q 243 192 238 217 q 267 158 249 168 q 314 147 286 147 q 376 160 346 147 q 424 192 406 174 l 533 707 l 742 707 l 642 235 q 642 174 632 192 q 679 156 651 156 q 704 157 690 156 q 736 163 718 158 l 707 -1 m 408 1014 l 589 1014 l 688 790 l 514 790 l 482 907 l 400 790 l 215 790 l 408 1014 z "},"ü":{"ha":796,"x_min":17,"x_max":742,"o":"m 707 -1 q 601 -18 656 -18 q 511 -1 546 -18 q 464 47 476 17 q 381 1 433 21 q 264 -18 328 -18 q 124 11 182 -18 q 41 101 65 40 q 38 254 17 161 l 133 707 l 340 707 l 246 258 q 243 192 238 217 q 267 158 249 168 q 314 147 286 147 q 376 160 346 147 q 424 192 406 174 l 533 707 l 742 707 l 642 235 q 642 174 632 192 q 679 156 651 156 q 704 157 690 156 q 736 163 718 158 l 707 -1 m 382 1013 q 443 992 421 1013 q 465 935 465 972 q 428 840 465 876 q 338 804 392 804 q 276 824 299 804 q 254 882 254 844 q 291 976 254 940 q 382 1013 328 1013 m 639 1013 q 700 992 678 1013 q 722 935 722 972 q 685 840 722 876 q 594 804 649 804 q 533 824 556 804 q 511 882 511 844 q 548 976 511 940 q 639 1013 585 1013 z "},"ù":{"ha":796,"x_min":17,"x_max":742,"o":"m 707 -1 q 601 -18 656 -18 q 511 -1 546 -18 q 464 47 476 17 q 381 1 433 21 q 264 -18 328 -18 q 124 11 182 -18 q 41 101 65 40 q 38 254 17 161 l 133 707 l 340 707 l 246 258 q 243 192 238 217 q 267 158 249 168 q 314 147 286 147 q 376 160 346 147 q 424 192 406 174 l 533 707 l 742 707 l 642 235 q 642 174 632 192 q 679 156 651 156 q 704 157 690 156 q 736 163 718 158 l 707 -1 m 271 1014 l 493 1014 l 553 790 l 401 790 l 271 1014 z "},"ŭ":{"ha":796,"x_min":17,"x_max":742,"o":"m 707 -1 q 601 -18 656 -18 q 511 -1 546 -18 q 464 47 476 17 q 381 1 433 21 q 264 -18 328 -18 q 124 11 182 -18 q 41 101 65 40 q 38 254 17 161 l 133 707 l 340 707 l 246 258 q 243 192 238 217 q 267 158 249 168 q 314 147 286 147 q 376 160 346 147 q 424 192 406 174 l 533 707 l 742 707 l 642 235 q 642 174 632 192 q 679 156 651 156 q 704 157 690 156 q 736 163 718 158 l 707 -1 m 278 1000 l 442 1000 q 447 943 435 961 q 485 925 460 925 q 530 943 510 925 q 560 1000 550 961 l 722 1000 q 632 842 692 886 q 476 799 572 799 q 364 817 414 799 q 290 881 314 836 q 278 1000 265 925 z "},"ű":{"ha":796,"x_min":17,"x_max":776,"o":"m 707 -1 q 601 -18 656 -18 q 511 -1 546 -18 q 464 47 476 17 q 381 1 433 21 q 264 -18 328 -18 q 124 11 182 -18 q 41 101 65 40 q 38 254 17 161 l 133 707 l 340 707 l 246 258 q 243 192 238 217 q 267 158 249 168 q 314 147 286 147 q 376 160 346 147 q 424 192 406 174 l 533 707 l 742 707 l 642 235 q 642 174 632 192 q 679 156 651 156 q 704 157 690 156 q 736 163 718 158 l 707 -1 m 365 1014 l 544 1014 l 422 790 l 288 790 l 365 1014 m 582 1014 l 776 1014 l 621 790 l 483 790 l 582 1014 z "},"ū":{"ha":796,"x_min":17,"x_max":742,"o":"m 707 -1 q 601 -18 656 -18 q 511 -1 546 -18 q 464 47 476 17 q 381 1 433 21 q 264 -18 328 -18 q 124 11 182 -18 q 41 101 65 40 q 38 254 17 161 l 133 707 l 340 707 l 246 258 q 243 192 238 217 q 267 158 249 168 q 314 147 286 147 q 376 160 346 147 q 424 192 406 174 l 533 707 l 742 707 l 642 235 q 642 174 632 192 q 679 156 651 156 q 704 157 690 156 q 736 163 718 158 l 707 -1 m 283 950 l 693 950 l 664 811 l 254 811 l 283 950 z "},"ų":{"ha":818,"x_min":17,"x_max":742,"o":"m 707 -1 q 654 -14 681 -10 q 601 -18 628 -18 q 511 -1 546 -18 q 464 47 476 17 q 381 1 433 21 q 264 -18 328 -18 q 124 11 182 -18 q 41 101 65 40 q 38 254 17 161 l 133 707 l 340 707 l 246 258 q 243 192 238 217 q 267 158 249 168 q 314 147 286 147 q 376 160 346 147 q 424 192 406 174 l 533 707 l 742 707 l 642 235 q 642 174 632 192 q 679 156 653 156 q 704 157 690 156 q 736 163 718 158 l 707 -1 m 681 -136 l 676 -246 q 619 -265 650 -258 q 557 -272 588 -272 q 445 -242 481 -272 q 410 -164 410 -212 q 432 -92 410 -125 q 491 -32 454 -58 q 568 13 528 -6 l 707 -1 q 644 -39 674 -18 q 595 -81 614 -60 q 576 -124 576 -103 q 585 -145 576 -139 q 613 -151 594 -151 q 644 -148 628 -151 q 681 -136 660 -144 z "},"ů":{"ha":796,"x_min":17,"x_max":742,"o":"m 707 -1 q 601 -18 656 -18 q 511 -1 546 -18 q 464 47 476 17 q 381 1 433 21 q 264 -18 328 -18 q 124 11 182 -18 q 41 101 65 40 q 38 254 17 161 l 133 707 l 340 707 l 246 258 q 243 192 238 217 q 267 158 249 168 q 314 147 286 147 q 376 160 346 147 q 424 192 406 174 l 533 707 l 742 707 l 642 235 q 642 174 632 192 q 679 156 651 156 q 704 157 690 156 q 736 163 718 158 l 707 -1 m 461 861 q 501 877 485 861 q 517 919 517 893 q 507 948 517 940 q 481 956 497 956 q 442 940 458 956 q 425 897 425 925 q 435 869 425 876 q 461 861 444 861 m 486 1049 q 597 1017 551 1049 q 643 921 643 986 q 590 808 643 847 q 456 768 538 768 q 344 800 390 768 q 299 896 299 832 q 351 1009 299 969 q 486 1049 404 1049 z "},"ũ":{"ha":796,"x_min":17,"x_max":742,"o":"m 707 -1 q 601 -18 656 -18 q 511 -1 546 -18 q 464 47 476 17 q 381 1 433 21 q 264 -18 328 -18 q 124 11 182 -18 q 41 101 65 40 q 38 254 17 161 l 133 707 l 340 707 l 246 258 q 243 192 238 217 q 267 158 249 168 q 314 147 286 147 q 376 160 346 147 q 424 192 406 174 l 533 707 l 742 707 l 642 235 q 642 174 632 192 q 679 156 651 156 q 704 157 690 156 q 736 163 718 158 l 707 -1 m 336 801 l 210 854 q 277 955 235 913 q 379 997 319 997 q 445 983 417 997 q 495 953 474 968 q 536 939 517 939 q 574 957 561 939 q 601 1001 588 975 l 731 951 q 652 843 694 885 q 554 801 610 801 q 491 817 518 801 q 442 848 464 832 q 403 864 421 864 q 362 844 376 864 q 336 801 347 825 z "},"ẃ":{"ha":1065,"x_min":89,"x_max":1114,"o":"m 708 707 l 722 217 q 822 430 776 315 q 911 707 868 544 l 1114 707 q 1037 470 1081 588 q 935 236 993 353 q 803 0 878 119 l 576 0 l 565 488 l 346 0 l 101 0 l 89 707 l 308 707 l 286 222 l 504 707 l 708 707 m 667 1014 l 899 1014 l 674 790 l 510 790 l 667 1014 z "},"ŵ":{"ha":1065,"x_min":89,"x_max":1114,"o":"m 708 707 l 722 217 q 822 430 776 315 q 911 707 868 544 l 1114 707 q 1037 470 1081 588 q 935 236 993 353 q 803 0 878 119 l 576 0 l 565 488 l 346 0 l 101 0 l 89 707 l 308 707 l 286 222 l 504 707 l 708 707 m 583 1014 l 764 1014 l 863 790 l 689 790 l 657 907 l 575 790 l 390 790 l 583 1014 z "},"ẅ":{"ha":1053,"x_min":89,"x_max":1114,"o":"m 708 707 l 722 217 q 822 430 776 315 q 911 707 868 544 l 1114 707 q 1037 470 1081 588 q 935 236 993 353 q 803 0 878 119 l 576 0 l 565 488 l 346 0 l 101 0 l 89 707 l 308 707 l 286 222 l 504 707 l 708 707 m 546 1013 q 607 992 585 1013 q 629 935 629 972 q 592 840 629 876 q 501 804 556 804 q 440 824 463 804 q 418 882 418 844 q 455 976 418 940 q 546 1013 492 1013 m 803 1013 q 864 992 842 1013 q 886 935 886 972 q 849 840 886 876 q 758 804 813 804 q 697 824 719 804 q 675 882 675 844 q 712 976 675 940 q 803 1013 749 1013 z "},"ẁ":{"ha":1053,"x_min":89,"x_max":1114,"o":"m 708 707 l 722 217 q 822 430 776 315 q 911 707 868 544 l 1114 707 q 1037 470 1081 588 q 935 236 993 353 q 803 0 878 119 l 576 0 l 565 488 l 346 0 l 101 0 l 89 707 l 308 707 l 286 222 l 504 707 l 708 707 m 450 1014 l 672 1014 l 732 790 l 581 790 l 450 1014 z "},"ý":{"ha":733,"x_min":-42,"x_max":742,"o":"m 268 1 q 128 29 186 1 q 44 113 69 57 q 36 251 19 169 l 133 707 l 340 707 l 250 278 q 247 212 242 236 q 272 177 253 188 q 318 167 290 167 q 381 180 350 167 q 429 211 411 193 l 533 707 l 742 707 l 594 8 q 517 -167 571 -104 q 382 -253 464 -229 q 193 -278 300 -278 q 57 -265 124 -278 q -42 -242 -10 -253 l 8 -89 q 97 -113 40 -103 q 206 -124 153 -124 q 292 -111 256 -124 q 351 -73 328 -99 q 386 -6 375 -47 l 404 60 l 454 67 q 386 24 433 47 q 268 1 339 1 m 499 1014 l 731 1014 l 506 790 l 342 790 l 499 1014 z "},"ÿ":{"ha":733,"x_min":-42,"x_max":742,"o":"m 268 1 q 128 29 186 1 q 44 113 69 57 q 36 251 19 169 l 133 707 l 340 707 l 250 278 q 247 212 242 236 q 272 177 253 188 q 318 167 290 167 q 381 180 350 167 q 429 211 411 193 l 533 707 l 742 707 l 594 8 q 517 -167 571 -104 q 382 -253 464 -229 q 193 -278 300 -278 q 57 -265 124 -278 q -42 -242 -10 -253 l 8 -89 q 97 -113 40 -103 q 206 -124 153 -124 q 292 -111 256 -124 q 351 -73 328 -99 q 386 -6 375 -47 l 404 60 l 454 67 q 386 24 433 47 q 268 1 339 1 m 372 1013 q 433 992 411 1013 q 456 935 456 972 q 419 840 456 876 q 328 804 382 804 q 267 824 289 804 q 244 882 244 844 q 281 976 244 940 q 372 1013 318 1013 m 629 1013 q 690 992 668 1013 q 713 935 713 972 q 676 840 713 876 q 585 804 639 804 q 524 824 546 804 q 501 882 501 844 q 538 976 501 940 q 629 1013 575 1013 z "},"ŷ":{"ha":733,"x_min":-42,"x_max":742,"o":"m 268 1 q 128 29 186 1 q 44 113 69 57 q 36 251 19 169 l 133 707 l 340 707 l 250 278 q 247 212 242 236 q 272 177 253 188 q 318 167 290 167 q 381 180 350 167 q 429 211 411 193 l 533 707 l 742 707 l 594 8 q 517 -167 571 -104 q 382 -253 464 -229 q 193 -278 300 -278 q 57 -265 124 -278 q -42 -242 -10 -253 l 8 -89 q 97 -113 40 -103 q 206 -124 153 -124 q 292 -111 256 -124 q 351 -73 328 -99 q 386 -6 375 -47 l 404 60 l 454 67 q 386 24 433 47 q 268 1 339 1 m 407 1014 l 588 1014 l 686 790 l 513 790 l 481 907 l 399 790 l 214 790 l 407 1014 z "},"ỳ":{"ha":733,"x_min":-42,"x_max":742,"o":"m 268 1 q 128 29 186 1 q 44 113 69 57 q 36 251 19 169 l 133 707 l 340 707 l 250 278 q 247 212 242 236 q 272 177 253 188 q 318 167 290 167 q 381 180 350 167 q 429 211 411 193 l 533 707 l 742 707 l 594 8 q 517 -167 571 -104 q 382 -253 464 -229 q 193 -278 300 -278 q 57 -265 124 -278 q -42 -242 -10 -253 l 8 -89 q 97 -113 40 -103 q 206 -124 153 -124 q 292 -111 256 -124 q 351 -73 328 -99 q 386 -6 375 -47 l 404 60 l 454 67 q 386 24 433 47 q 268 1 339 1 m 268 1014 l 490 1014 l 550 790 l 399 790 l 268 1014 z "},"ž":{"ha":649,"x_min":-39,"x_max":703,"o":"m 125 707 l 674 707 l 643 561 l 264 163 l 574 163 l 539 0 l -39 0 l -8 146 l 379 544 l 90 544 l 125 707 m 329 790 l 231 1014 l 404 1014 l 436 897 l 518 1014 l 703 1014 l 510 790 l 329 790 z "},"ź":{"ha":649,"x_min":-39,"x_max":692,"o":"m 125 707 l 674 707 l 643 561 l 264 163 l 574 163 l 539 0 l -39 0 l -8 146 l 379 544 l 90 544 l 125 707 m 460 1014 l 692 1014 l 467 790 l 303 790 l 460 1014 z "},"ż":{"ha":649,"x_min":-39,"x_max":674,"o":"m 125 707 l 674 707 l 643 561 l 264 163 l 574 163 l 539 0 l -39 0 l -8 146 l 379 544 l 90 544 l 125 707 m 464 1014 q 539 990 511 1014 q 567 925 567 967 q 528 828 567 858 q 424 797 489 797 q 349 821 376 797 q 321 886 321 844 q 360 983 321 953 q 464 1014 400 1014 z "},"´":{"ha":726,"x_min":339,"x_max":728,"o":"m 496 1014 l 728 1014 l 503 790 l 339 790 l 496 1014 z "},"`":{"ha":726,"x_min":279,"x_max":561,"o":"m 279 1014 l 501 1014 l 561 790 l 410 790 l 279 1014 z "},"ˆ":{"ha":726,"x_min":219,"x_max":692,"o":"m 413 1014 l 593 1014 l 692 790 l 518 790 l 486 907 l 404 790 l 219 790 l 413 1014 z "},"ˇ":{"ha":726,"x_min":267,"x_max":739,"o":"m 365 790 l 267 1014 l 440 1014 l 472 897 l 554 1014 l 739 1014 l 546 790 l 365 790 z "},"˜":{"ha":726,"x_min":219,"x_max":740,"o":"m 346 801 l 219 854 q 287 955 244 913 q 389 997 329 997 q 455 983 426 997 q 505 953 483 968 q 546 939 526 939 q 584 957 571 939 q 611 1001 597 975 l 740 951 q 662 843 704 885 q 564 801 619 801 q 501 817 528 801 q 452 848 474 832 q 413 864 431 864 q 372 844 386 864 q 346 801 357 825 z "},"¨":{"ha":726,"x_min":247,"x_max":715,"o":"m 375 1013 q 436 992 414 1013 q 458 935 458 972 q 422 840 458 876 q 331 804 385 804 q 269 824 292 804 q 247 882 247 844 q 284 976 247 940 q 375 1013 321 1013 m 632 1013 q 693 992 671 1013 q 715 935 715 972 q 678 840 715 876 q 588 804 642 804 q 526 824 549 804 q 504 882 504 844 q 541 976 504 940 q 632 1013 578 1013 z "},"˚":{"ha":726,"x_min":308,"x_max":653,"o":"m 471 861 q 510 877 494 861 q 526 919 526 893 q 517 948 526 940 q 490 956 507 956 q 451 940 468 956 q 435 897 435 925 q 444 869 435 876 q 471 861 454 861 m 496 1049 q 607 1017 561 1049 q 653 921 653 986 q 600 808 653 847 q 465 768 547 768 q 354 800 400 768 q 308 896 308 832 q 361 1009 308 969 q 496 1049 414 1049 z "},"¸":{"ha":726,"x_min":67,"x_max":385,"o":"m 218 -50 l 360 -50 q 378 -94 371 -68 q 385 -146 385 -121 q 341 -242 385 -203 q 196 -282 297 -282 q 128 -276 161 -282 q 67 -260 96 -271 l 114 -149 q 142 -157 124 -153 q 172 -161 160 -161 q 219 -145 207 -161 q 232 -106 232 -129 q 228 -78 232 -92 q 218 -50 225 -64 z "},"˝":{"ha":726,"x_min":289,"x_max":778,"o":"m 367 1014 l 546 1014 l 424 790 l 289 790 l 367 1014 m 583 1014 l 778 1014 l 622 790 l 485 790 l 583 1014 z "},"˘":{"ha":726,"x_min":265,"x_max":722,"o":"m 278 1000 l 442 1000 q 447 943 435 961 q 485 925 460 925 q 530 943 510 925 q 560 1000 550 961 l 722 1000 q 632 842 692 886 q 476 799 572 799 q 364 817 414 799 q 290 881 314 836 q 278 1000 265 925 z "},"¯":{"ha":726,"x_min":256,"x_max":694,"o":"m 285 950 l 694 950 l 665 811 l 256 811 l 285 950 z "},"˙":{"ha":726,"x_min":357,"x_max":603,"o":"m 500 1014 q 575 990 547 1014 q 603 925 603 967 q 564 828 603 858 q 460 797 525 797 q 385 821 413 797 q 357 886 357 844 q 397 983 357 953 q 500 1014 436 1014 z "},"·":{"ha":332,"x_min":47,"x_max":293,"o":"m 190 483 q 265 460 238 483 q 293 394 293 436 q 254 297 293 328 q 150 267 215 267 q 75 290 103 267 q 47 356 47 314 q 87 453 47 422 q 190 483 126 483 z "},"˛":{"ha":726,"x_min":76,"x_max":374,"o":"m 347 -136 l 343 -246 q 285 -265 317 -258 q 224 -272 254 -272 q 112 -242 147 -272 q 76 -164 76 -212 q 99 -92 76 -125 q 158 -32 122 -58 q 235 13 194 -6 l 374 0 q 310 -37 340 -17 q 262 -81 281 -58 q 243 -124 243 -103 q 252 -145 243 -139 q 279 -151 261 -151 q 310 -148 294 -151 q 347 -136 326 -144 z "},".":{"ha":363,"x_min":-1,"x_max":251,"o":"m 149 200 q 224 176 197 200 q 251 110 251 151 q 209 16 251 50 q 101 -18 167 -18 q 26 6 54 -18 q -1 72 -1 31 q 42 166 -1 132 q 149 200 85 200 z "},",":{"ha":364,"x_min":-104,"x_max":276,"o":"m 53 183 l 276 183 l 50 -201 l -104 -201 l 53 183 z "},":":{"ha":363,"x_min":-1,"x_max":363,"o":"m 149 200 q 224 176 197 200 q 251 110 251 151 q 209 16 251 50 q 101 -18 167 -18 q 26 6 54 -18 q -1 72 -1 31 q 42 166 -1 132 q 149 200 85 200 m 260 724 q 335 699 308 724 q 363 633 363 675 q 320 540 363 574 q 213 506 278 506 q 138 530 165 506 q 110 596 110 554 q 153 690 110 656 q 260 724 196 724 z "},";":{"ha":363,"x_min":-131,"x_max":363,"o":"m 28 183 l 250 183 l 24 -201 l -131 -201 l 28 183 m 260 724 q 335 699 308 724 q 363 633 363 675 q 320 540 363 574 q 213 506 278 506 q 138 530 165 506 q 110 596 110 554 q 153 690 110 656 q 260 724 196 724 z "},"…":{"ha":1090,"x_min":-1,"x_max":978,"o":"m 149 200 q 224 176 197 200 q 251 110 251 151 q 209 16 251 50 q 101 -18 167 -18 q 26 6 54 -18 q -1 72 -1 31 q 42 166 -1 132 q 149 200 85 200 m 513 200 q 588 176 561 200 q 615 110 615 151 q 573 16 615 50 q 465 -18 531 -18 q 390 6 418 -18 q 363 72 363 31 q 406 166 363 132 q 513 200 449 200 m 875 200 q 951 176 924 200 q 978 110 978 151 q 935 16 978 50 q 828 -18 893 -18 q 753 6 781 -18 q 725 72 725 31 q 768 166 725 132 q 875 200 811 200 z "},"?":{"ha":603,"x_min":97,"x_max":651,"o":"m 651 746 q 634 641 651 683 q 589 569 617 599 q 528 517 561 540 q 463 469 494 493 q 408 415 432 446 q 375 340 385 385 l 360 271 l 163 271 l 186 378 q 226 479 199 439 q 287 547 254 519 q 350 599 319 575 q 401 647 381 622 q 421 707 421 672 q 397 755 421 740 q 331 769 374 769 q 240 758 289 769 q 161 738 190 747 l 176 910 q 266 931 213 921 q 379 940 319 940 q 516 921 454 940 q 615 858 578 901 q 651 746 651 815 m 247 200 q 323 176 296 200 q 350 110 350 151 q 308 16 350 50 q 200 -18 265 -18 q 125 6 153 -18 q 97 72 97 31 q 140 166 97 132 q 247 200 183 200 z "},"!":{"ha":401,"x_min":22,"x_max":443,"o":"m 206 924 l 443 924 l 269 274 l 106 274 l 206 924 m 172 200 q 248 176 221 200 q 275 110 275 151 q 233 16 275 50 q 125 -18 190 -18 q 50 6 78 -18 q 22 72 22 31 q 65 166 22 132 q 172 200 108 200 z "},"¿":{"ha":550,"x_min":-60,"x_max":494,"o":"m -60 -40 q -42 65 -60 22 q 3 136 -25 107 q 64 189 31 165 q 128 236 97 213 q 183 290 160 260 q 217 365 207 321 l 232 435 l 429 435 l 406 328 q 365 227 393 268 q 304 158 338 186 q 240 107 271 131 q 190 58 210 83 q 171 -1 171 33 q 194 -49 171 -35 q 261 -64 218 -64 q 352 -53 303 -64 q 431 -32 401 -42 l 415 -204 q 326 -225 381 -215 q 213 -235 272 -235 q 76 -215 138 -235 q -23 -153 14 -196 q -60 -40 -60 -110 m 344 506 q 269 530 297 506 q 242 596 242 554 q 285 690 242 656 q 392 724 328 724 q 467 699 440 724 q 494 633 494 675 q 452 540 494 574 q 344 506 410 506 z "},"¡":{"ha":401,"x_min":-39,"x_max":382,"o":"m 199 -218 l -39 -218 l 135 432 l 299 432 l 199 -218 m 232 506 q 157 530 185 506 q 129 596 129 554 q 172 690 129 656 q 279 724 215 724 q 355 699 328 724 q 382 633 382 675 q 340 540 382 574 q 232 506 297 506 z "},"(":{"ha":506,"x_min":76,"x_max":619,"o":"m 136 -258 q 92 -66 107 -165 q 76 133 76 33 q 95 364 76 251 q 152 585 114 476 q 249 799 190 693 q 389 1014 308 906 l 619 1014 q 439 718 511 868 q 330 417 367 568 q 293 114 293 265 q 307 -73 293 21 q 349 -258 321 -167 l 136 -258 z "},")":{"ha":506,"x_min":-104,"x_max":439,"o":"m 379 1014 q 424 822 408 921 q 439 622 439 722 q 420 392 439 504 q 363 171 401 279 q 266 -44 325 63 q 126 -258 207 -150 l -104 -258 q 77 38 4 -111 q 186 339 150 188 q 222 642 222 490 q 208 829 222 736 q 167 1014 194 922 l 379 1014 z "},"{":{"ha":514,"x_min":7,"x_max":631,"o":"m 26 281 l 68 478 q 128 492 107 479 q 158 549 149 506 q 169 629 165 585 q 179 723 174 674 q 194 821 185 772 q 287 981 218 931 q 490 1032 356 1032 q 579 1027 542 1032 q 631 1019 617 1022 l 585 854 q 544 860 571 857 q 500 863 518 863 q 433 845 457 863 q 399 778 410 828 q 387 695 390 740 q 379 605 383 650 q 367 519 375 560 q 317 417 353 453 q 221 365 282 382 q 286 328 265 353 q 307 263 307 304 q 294 190 307 232 q 266 103 282 149 q 238 17 250 58 q 225 -54 225 -25 q 242 -94 225 -83 q 294 -106 260 -106 q 340 -101 313 -106 q 382 -96 368 -97 l 358 -261 q 311 -269 344 -265 q 231 -274 278 -274 q 63 -233 119 -274 q 7 -107 7 -193 q 19 -17 7 -65 q 49 81 32 32 q 78 172 65 131 q 90 239 90 213 q 74 272 90 264 q 26 281 58 279 z "},"}":{"ha":515,"x_min":-104,"x_max":519,"o":"m 500 478 l 458 281 q 399 267 419 279 q 368 210 378 254 q 357 130 361 175 q 347 36 353 85 q 332 -62 342 -12 q 240 -223 308 -172 q 36 -274 172 -274 q -53 -269 -15 -274 q -104 -261 -90 -264 l -58 -96 q -18 -101 -44 -97 q 26 -104 8 -104 q 94 -87 71 -104 q 128 -19 118 -69 q 140 64 136 19 q 147 153 143 108 q 160 239 151 199 q 210 341 175 306 q 306 393 244 376 q 241 430 263 406 q 219 496 219 454 q 232 568 219 526 q 260 655 244 610 q 289 742 276 700 q 301 813 301 783 q 285 853 301 842 q 232 864 268 864 q 186 860 214 864 q 144 854 158 857 l 168 1019 q 215 1028 182 1024 q 296 1032 249 1032 q 463 992 407 1032 q 519 865 519 951 q 507 775 519 824 q 478 677 494 726 q 449 587 461 628 q 436 519 436 546 q 453 488 436 494 q 500 478 469 481 z "},"[":{"ha":478,"x_min":-19,"x_max":588,"o":"m 251 1014 l 588 1014 l 550 833 l 422 833 l 228 -76 l 356 -76 l 317 -258 l -19 -258 l 251 1014 z "},"]":{"ha":478,"x_min":-101,"x_max":507,"o":"m 507 1014 l 236 -258 l -101 -258 l -62 -76 l 65 -76 l 260 833 l 132 833 l 169 1014 l 507 1014 z "},"/":{"ha":632,"x_min":-129,"x_max":792,"o":"m 567 1014 l 792 1014 l 96 -74 l -129 -74 l 567 1014 z "},"\\":{"ha":632,"x_min":119,"x_max":579,"o":"m 119 1014 l 333 1014 l 579 -74 l 367 -74 l 119 1014 z "},"_":{"ha":960,"x_min":-39,"x_max":801,"o":"m -8 -39 l 801 -39 l 771 -185 l -39 -185 l -8 -39 z "},"-":{"ha":531,"x_min":61,"x_max":478,"o":"m 97 457 l 478 457 l 442 285 l 61 285 l 97 457 z "},"­":{"ha":0,"x_min":0,"x_max":0,"o":""},"–":{"ha":797,"x_min":61,"x_max":743,"o":"m 97 457 l 743 457 l 707 285 l 61 285 l 97 457 z "},"—":{"ha":1074,"x_min":61,"x_max":1021,"o":"m 97 457 l 1021 457 l 985 285 l 61 285 l 97 457 z "},"¦":{"ha":433,"x_min":-24,"x_max":483,"o":"m 272 1111 l 483 1111 l 365 554 l 154 554 l 272 1111 m 96 279 l 307 279 l 188 -278 l -24 -278 l 96 279 z "},"|":{"ha":433,"x_min":-24,"x_max":483,"o":"m 272 1111 l 483 1111 l 188 -278 l -24 -278 l 272 1111 z "},"«":{"ha":876,"x_min":53,"x_max":904,"o":"m 301 656 l 538 656 l 278 361 l 400 97 l 183 97 l 53 376 l 301 656 m 668 656 l 904 656 l 644 361 l 767 97 l 550 97 l 419 376 l 668 656 z "},"»":{"ha":876,"x_min":-19,"x_max":832,"o":"m 583 97 l 347 97 l 607 392 l 485 656 l 701 656 l 832 376 l 583 97 m 217 97 l -19 97 l 240 392 l 118 656 l 335 656 l 465 376 l 217 97 z "},"‹":{"ha":508,"x_min":53,"x_max":538,"o":"m 301 656 l 538 656 l 278 361 l 400 97 l 183 97 l 53 376 l 301 656 z "},"›":{"ha":508,"x_min":-19,"x_max":465,"o":"m 217 97 l -19 97 l 240 392 l 118 656 l 335 656 l 465 376 l 217 97 z "},"‚":{"ha":388,"x_min":-90,"x_max":290,"o":"m 68 183 l 290 183 l 64 -201 l -90 -201 l 68 183 z "},"„":{"ha":681,"x_min":-90,"x_max":588,"o":"m 68 183 l 290 183 l 64 -201 l -90 -201 l 68 183 m 365 183 l 588 183 l 360 -201 l 207 -201 l 365 183 z "},"‘":{"ha":382,"x_min":99,"x_max":479,"o":"m 321 539 l 99 539 l 326 924 l 479 924 l 321 539 z "},"“":{"ha":672,"x_min":96,"x_max":774,"o":"m 615 539 l 393 539 l 618 924 l 774 924 l 615 539 m 318 539 l 96 539 l 322 924 l 476 924 l 318 539 z "},"’":{"ha":382,"x_min":61,"x_max":442,"o":"m 218 924 l 442 924 l 215 539 l 61 539 l 218 924 z "},"”":{"ha":672,"x_min":58,"x_max":735,"o":"m 215 924 l 439 924 l 211 539 l 58 539 l 215 924 m 513 924 l 735 924 l 508 539 l 354 539 l 513 924 z "},"'":{"ha":349,"x_min":143,"x_max":406,"o":"m 185 924 l 406 924 l 282 538 l 143 538 l 185 924 z "},"\"":{"ha":644,"x_min":147,"x_max":699,"o":"m 189 924 l 410 924 l 286 538 l 147 538 l 189 924 m 476 924 l 699 924 l 574 538 l 435 538 l 476 924 z "},"•":{"ha":508,"x_min":63,"x_max":447,"o":"m 292 546 q 406 512 364 546 q 447 414 447 478 q 381 258 447 311 q 218 206 315 206 q 104 240 146 206 q 63 338 63 274 q 128 493 63 440 q 292 546 194 546 z "},"№":{"ha":1456,"x_min":24,"x_max":1481,"o":"m 1018 399 l 1371 399 l 1340 256 l 988 256 l 1018 399 m 219 924 l 388 924 l 711 447 l 813 924 l 1025 924 l 829 0 l 617 0 l 651 164 l 360 597 l 233 0 l 24 0 l 219 924 m 1296 939 q 1434 894 1388 939 q 1481 764 1481 850 q 1467 653 1481 711 q 1422 547 1453 596 q 1340 466 1390 497 q 1217 435 1289 435 q 1078 480 1125 435 q 1032 610 1032 525 q 1046 720 1032 663 q 1091 828 1060 778 q 1173 908 1122 878 q 1296 939 1224 939 m 1233 579 q 1276 597 1258 579 q 1303 643 1293 615 q 1317 699 1313 671 q 1322 747 1322 728 q 1279 794 1322 794 q 1237 776 1254 794 q 1210 731 1219 758 q 1195 674 1200 703 q 1190 626 1190 646 q 1233 579 1190 579 z "},"&":{"ha":956,"x_min":15,"x_max":894,"o":"m 447 600 l 851 0 l 593 0 l 260 522 q 220 601 236 560 q 204 686 204 642 q 238 821 204 764 q 338 909 271 878 q 506 940 404 940 q 685 894 619 940 q 751 764 751 847 q 724 652 751 701 q 650 564 696 603 q 549 492 604 525 q 439 429 494 460 q 338 367 383 399 q 264 299 292 336 q 236 217 236 263 q 262 153 236 174 q 332 132 288 132 q 442 160 386 132 q 551 239 499 189 q 649 354 604 289 q 722 492 693 419 l 894 460 q 781 249 850 339 q 628 101 711 160 q 459 13 546 42 q 293 -17 372 -17 q 91 39 167 -17 q 15 203 15 94 q 44 331 15 276 q 122 426 74 386 q 227 497 169 465 q 342 555 285 528 q 447 610 399 582 q 524 673 494 639 q 553 754 553 707 q 535 795 553 782 q 492 808 518 808 q 449 797 469 808 q 417 762 429 785 q 404 707 404 739 q 417 651 404 676 q 447 600 429 626 z "},"¶":{"ha":956,"x_min":96,"x_max":988,"o":"m 838 924 l 988 924 l 744 -219 l 594 -219 l 838 924 m 394 307 q 172 362 247 307 q 96 533 96 417 q 207 823 96 722 q 525 924 318 924 l 732 924 l 489 -219 l 339 -219 l 451 308 q 432 308 446 308 q 394 307 418 307 z "},"†":{"ha":615,"x_min":85,"x_max":644,"o":"m 322 924 l 532 924 l 485 700 l 644 700 l 611 540 l 451 540 l 379 206 l 169 206 l 242 540 l 85 540 l 118 700 l 275 700 l 322 924 z "},"‡":{"ha":642,"x_min":57,"x_max":675,"o":"m 147 776 l 306 776 l 336 924 l 544 924 l 514 776 l 675 776 l 642 618 l 481 618 l 457 513 l 618 513 l 585 353 l 424 353 l 392 206 l 183 206 l 215 353 l 57 353 l 90 513 l 249 513 l 272 618 l 114 618 l 147 776 z "},"§":{"ha":721,"x_min":-90,"x_max":746,"o":"m 50 328 q 90 471 50 414 q 197 550 131 528 q 164 605 175 572 q 153 678 153 638 q 193 822 153 764 q 316 910 233 881 q 525 940 399 940 q 640 934 582 940 q 746 918 697 928 l 697 751 q 627 763 663 758 q 559 770 592 768 q 496 772 526 772 q 396 753 432 772 q 360 690 360 733 q 382 637 360 660 q 439 594 404 614 q 513 553 474 575 q 588 503 553 532 q 644 436 622 475 q 667 342 667 397 q 612 188 667 246 q 483 107 557 131 q 507 47 499 82 q 515 -25 515 13 q 478 -160 515 -103 q 367 -247 442 -217 q 179 -276 292 -276 q 24 -264 93 -276 q -90 -239 -46 -251 l -36 -82 q 63 -106 3 -94 q 185 -118 124 -118 q 273 -97 240 -118 q 306 -26 306 -76 q 287 34 306 8 q 240 81 268 60 q 178 125 211 103 q 116 174 144 147 q 69 238 88 201 q 50 328 50 275 m 246 364 q 260 322 246 342 q 294 285 274 303 q 339 251 315 268 q 383 218 363 235 q 444 251 421 231 q 468 311 468 272 q 447 366 468 344 q 394 406 425 388 q 333 443 364 424 q 285 431 306 442 q 256 404 265 421 q 246 364 246 388 z "},"*":{"ha":606,"x_min":110,"x_max":646,"o":"m 186 836 l 336 765 l 336 924 l 511 924 l 444 765 l 624 836 l 646 707 l 458 676 l 565 564 l 432 468 l 368 613 l 243 468 l 131 564 l 289 676 l 110 707 l 186 836 z "},"™":{"ha":968,"x_min":135,"x_max":1031,"o":"m 158 924 l 542 924 l 518 811 l 404 811 l 340 508 l 186 508 l 250 811 l 135 811 l 158 924 m 781 596 l 682 596 l 674 721 l 629 508 l 497 508 l 585 924 l 736 924 l 763 739 l 867 924 l 1031 924 l 943 508 l 811 508 l 856 721 l 781 596 z "},"®":{"ha":847,"x_min":89,"x_max":858,"o":"m 461 708 l 442 614 q 456 612 449 613 q 471 611 463 611 q 504 615 490 611 q 527 629 518 618 q 540 660 536 640 q 535 698 547 688 q 492 708 524 708 l 461 708 m 367 789 l 531 789 q 635 753 603 789 q 654 657 667 718 q 624 597 646 618 q 567 564 603 575 q 598 538 590 554 q 607 497 606 521 l 621 396 l 507 396 l 497 483 q 484 520 494 508 q 449 532 474 532 q 430 532 436 532 q 424 532 424 532 l 396 396 l 283 396 l 367 789 m 414 300 q 604 344 525 300 q 726 467 683 389 q 768 644 768 544 q 709 804 768 747 q 533 861 650 861 q 343 817 422 861 q 222 697 264 774 q 179 518 179 619 q 238 358 179 415 q 414 300 297 300 m 536 940 q 774 860 689 940 q 858 642 858 779 q 803 428 858 524 q 648 276 749 332 q 411 221 547 221 q 174 302 260 221 q 89 521 89 383 q 144 735 89 640 q 299 885 199 829 q 536 940 400 940 z "},"©":{"ha":999,"x_min":61,"x_max":986,"o":"m 736 717 l 694 593 q 661 600 683 596 q 607 604 639 604 q 538 584 565 604 q 494 533 510 564 q 471 467 478 501 q 464 404 464 432 q 486 340 464 360 q 549 321 508 321 q 608 326 585 321 q 649 336 631 331 l 632 215 q 578 201 615 208 q 496 193 542 193 q 394 213 440 193 q 321 277 349 233 q 293 390 293 321 q 308 506 293 447 q 358 615 322 565 q 457 697 394 665 q 617 728 519 728 q 689 724 657 728 q 736 717 721 719 m 597 940 q 797 898 708 940 q 935 769 885 856 q 986 549 986 682 q 971 414 986 489 q 919 263 956 339 q 822 124 883 188 q 668 23 760 61 q 450 -15 576 -15 q 251 27 339 -15 q 112 156 163 69 q 61 376 61 243 q 76 511 61 436 q 128 662 92 586 q 226 801 164 738 q 379 902 288 864 q 597 940 471 940 m 456 74 q 628 103 554 74 q 753 185 701 133 q 835 298 804 236 q 881 426 867 360 q 894 550 894 492 q 856 724 894 658 q 748 821 817 790 q 592 851 679 851 q 419 822 493 851 q 294 740 346 792 q 212 627 243 689 q 167 499 181 565 q 153 375 153 433 q 192 201 153 268 q 299 104 231 135 q 456 74 368 74 z "},"@":{"ha":1185,"x_min":31,"x_max":1153,"o":"m 671 443 q 643 447 657 446 q 618 449 629 449 q 563 426 585 449 q 528 368 540 403 q 510 297 515 333 q 504 235 504 261 q 517 190 504 201 q 554 178 531 178 q 588 183 572 178 q 618 194 604 188 q 619 203 618 199 q 621 211 619 207 q 625 226 624 218 q 628 243 626 235 l 671 443 m 500 -139 q 676 -128 589 -139 q 836 -101 764 -118 l 828 -214 q 675 -246 763 -233 q 486 -258 588 -258 q 297 -228 381 -258 q 153 -139 213 -197 q 62 3 93 -81 q 31 193 31 86 q 52 367 31 274 q 121 550 74 460 q 245 714 168 640 q 433 831 322 788 q 694 875 544 875 q 962 826 861 875 q 1108 692 1063 776 q 1153 506 1153 608 q 1141 381 1153 447 q 1105 252 1129 315 q 1044 138 1081 189 q 956 56 1007 86 q 842 25 906 25 q 731 46 769 25 q 675 89 692 67 q 599 47 647 67 q 490 26 550 26 q 372 76 422 26 q 321 231 321 125 q 335 343 321 281 q 385 462 350 406 q 483 555 421 518 q 638 592 544 592 q 760 578 694 592 q 872 547 825 564 l 808 249 q 806 229 807 239 q 804 213 804 219 q 817 169 804 185 q 857 154 831 154 q 935 204 900 154 q 990 335 969 254 q 1011 510 1011 417 q 977 647 1011 592 q 871 732 943 703 q 685 761 799 761 q 492 730 574 761 q 353 647 410 699 q 260 533 296 596 q 204 406 224 469 q 177 288 185 343 q 169 196 169 232 q 194 40 169 104 q 263 -63 218 -24 q 367 -121 307 -103 q 500 -139 428 -139 z "},"ª":{"ha":461,"x_min":96,"x_max":522,"o":"m 321 599 l 335 665 q 319 669 329 668 q 297 669 308 669 q 255 658 271 669 q 239 621 239 646 q 250 599 239 606 q 278 593 261 593 q 301 594 290 593 q 321 599 313 596 m 178 800 l 188 918 q 262 935 224 929 q 347 942 300 942 q 480 897 438 942 q 503 768 522 853 l 447 517 q 360 494 413 504 q 244 485 307 485 q 136 513 176 485 q 96 601 96 542 q 151 728 96 692 q 300 765 207 765 q 333 764 319 765 q 354 761 346 763 l 358 778 q 359 802 363 793 q 344 815 356 811 q 313 819 333 819 q 241 815 274 819 q 178 800 208 810 z "},"º":{"ha":504,"x_min":113,"x_max":546,"o":"m 371 940 q 500 899 454 940 q 546 775 546 858 q 532 674 546 725 q 488 580 518 622 q 409 512 458 538 q 288 486 360 486 q 158 527 204 486 q 113 651 113 568 q 126 753 113 701 q 170 847 140 804 q 249 915 200 889 q 371 940 299 940 m 310 619 q 349 633 333 619 q 376 669 365 647 q 390 717 386 692 q 394 763 394 742 q 383 798 394 789 q 349 807 371 807 q 309 793 325 807 q 283 757 293 779 q 268 710 272 735 q 264 664 264 685 q 276 628 264 638 q 310 619 288 619 z "},"#":{"ha":986,"x_min":8,"x_max":1025,"o":"m 413 924 l 625 924 l 540 706 l 694 706 l 779 924 l 992 924 l 907 706 l 1025 706 l 954 535 l 838 535 l 778 378 l 894 378 l 824 207 l 707 207 l 625 0 l 414 0 l 494 207 l 339 207 l 260 0 l 47 0 l 128 207 l 8 207 l 78 378 l 196 378 l 258 535 l 139 535 l 208 706 l 328 706 l 413 924 m 469 535 l 410 378 l 564 378 l 624 535 l 469 535 z "},"€":{"ha":831,"x_min":40,"x_max":900,"o":"m 82 503 l 718 503 l 778 617 l 106 617 l 82 503 m 40 310 l 631 310 l 690 424 l 65 424 l 40 310 m 900 911 q 809 930 865 919 q 675 940 753 940 q 444 892 542 940 q 282 758 346 844 q 187 556 218 671 q 156 307 156 440 q 240 67 156 151 q 494 -18 325 -18 q 614 -7 551 -18 q 715 21 676 4 l 735 201 q 646 179 701 193 q 536 165 590 165 q 416 199 446 165 q 386 308 386 232 q 404 490 386 407 q 458 633 422 572 q 547 726 493 693 q 671 760 600 760 q 778 750 732 760 q 857 729 825 740 l 900 911 z "},"$":{"ha":736,"x_min":8,"x_max":751,"o":"m 585 928 l 425 932 l 446 1032 l 607 1032 l 585 928 m 246 -14 l 408 -4 l 385 -119 l 224 -119 l 246 -14 m 751 918 l 700 747 q 611 761 663 754 q 519 768 560 768 q 394 748 433 768 q 354 686 354 728 q 377 626 354 653 q 437 575 400 600 q 514 522 474 550 q 591 460 554 494 q 651 378 628 425 q 674 268 674 332 q 627 101 674 164 q 495 10 581 39 q 293 -18 410 -18 q 129 -3 199 -18 q 8 26 60 11 l 63 197 q 170 167 115 181 q 297 154 225 154 q 412 179 379 154 q 444 243 444 204 q 422 308 444 279 q 362 365 399 338 q 284 422 325 393 q 206 487 243 451 q 147 568 169 522 q 124 674 124 614 q 174 831 124 772 q 315 915 225 889 q 518 940 404 940 q 643 934 579 940 q 751 918 707 928 z "},"¥":{"ha":879,"x_min":90,"x_max":974,"o":"m 274 589 l 319 475 l 132 475 l 156 589 l 274 589 m 974 924 l 589 396 l 794 396 l 769 282 l 551 282 l 492 0 l 265 0 l 325 282 l 90 282 l 115 396 l 338 396 l 146 924 l 392 924 l 489 556 l 742 924 l 974 924 m 636 475 l 725 589 l 835 589 l 811 475 l 636 475 z "},"£":{"ha":799,"x_min":-19,"x_max":863,"o":"m 168 324 l 190 397 l 63 397 l 94 549 l 238 549 l 275 676 q 358 842 307 785 q 478 919 408 899 q 636 940 547 940 q 756 935 697 940 q 863 918 814 929 l 810 744 q 722 760 768 753 q 639 767 676 767 q 581 758 606 767 q 537 728 556 750 q 506 668 518 707 l 469 549 l 731 549 l 699 397 l 419 397 l 396 318 q 369 252 385 283 q 331 197 353 221 q 281 160 310 174 l 697 160 l 664 0 l -19 0 l 10 135 q 82 168 54 149 q 129 224 110 188 q 168 324 149 261 z "},"¢":{"ha":650,"x_min":71,"x_max":676,"o":"m 556 825 l 396 826 l 433 1003 l 594 1003 l 556 825 m 253 114 l 413 101 l 374 -78 l 211 -78 l 253 114 m 676 815 l 621 653 q 556 665 590 660 q 485 671 522 671 q 396 648 435 671 q 331 585 357 625 q 292 492 306 544 q 279 378 279 439 q 304 289 279 317 q 406 261 329 261 q 481 267 442 261 q 553 281 519 272 l 536 118 q 458 102 501 108 q 365 96 414 96 q 144 162 218 96 q 71 374 71 228 q 99 557 71 472 q 182 705 128 642 q 313 803 236 768 q 488 839 390 839 q 585 833 536 839 q 676 815 633 828 z "},"₡":{"ha":767,"x_min":8,"x_max":829,"o":"m 425 1076 l 585 1076 l 494 828 l 336 828 l 425 1076 m 669 1076 l 829 1076 l 747 847 l 588 847 l 669 1076 m 478 72 l 411 -111 l 253 -111 l 318 72 l 478 72 m 285 215 l 167 -111 l 8 -111 l 125 215 l 285 215 m 808 911 l 765 729 q 687 750 733 740 q 579 760 640 760 q 455 726 508 760 q 366 633 401 693 q 313 490 331 572 q 294 308 294 407 q 324 199 294 232 q 444 165 354 165 q 554 179 499 165 q 643 201 610 193 l 624 21 q 522 -7 585 4 q 403 -18 460 -18 q 149 67 233 -18 q 64 307 64 151 q 95 556 64 440 q 190 758 126 671 q 352 892 254 844 q 583 940 450 940 q 717 930 661 940 q 808 911 774 919 z "},"₮":{"ha":867,"x_min":108,"x_max":944,"o":"m 176 535 l 794 646 l 768 526 l 150 415 l 176 535 m 135 338 l 753 449 l 726 329 l 108 218 l 135 338 m 167 924 l 944 924 l 908 749 l 628 749 l 468 0 l 251 0 l 411 749 l 131 749 l 167 924 z "},"₴":{"ha":803,"x_min":43,"x_max":797,"o":"m 83 500 l 107 614 l 797 614 l 774 500 l 83 500 m 43 307 l 67 421 l 757 421 l 733 307 l 43 307 m 246 915 q 347 931 290 924 q 472 939 404 939 q 698 891 611 939 q 785 744 785 843 q 756 625 785 676 q 679 533 726 574 q 576 457 632 492 q 464 390 519 422 q 364 322 408 357 q 317 269 335 297 q 300 206 300 240 q 326 165 300 175 q 397 154 351 154 q 537 167 475 154 q 663 197 599 179 l 644 26 q 519 -3 589 11 q 353 -18 450 -18 q 144 36 217 -18 q 72 188 72 90 q 110 333 72 274 q 206 436 147 393 q 329 513 264 479 q 449 582 394 547 q 522 647 493 611 q 551 718 551 683 q 523 758 551 747 q 432 768 494 768 q 329 760 389 768 q 225 744 269 753 l 246 915 z "},"₺":{"ha":835,"x_min":35,"x_max":782,"o":"m 103 596 l 703 707 l 676 585 l 76 474 l 103 596 m 61 399 l 661 510 l 635 388 l 35 276 l 61 399 m 481 0 l 85 0 l 281 924 l 503 924 l 344 175 l 479 175 q 557 199 535 175 q 589 268 579 222 l 597 310 l 782 310 l 768 244 q 676 60 740 119 q 481 0 611 0 z "},"₹":{"ha":785,"x_min":65,"x_max":857,"o":"m 782 565 l 114 565 l 138 679 l 806 679 l 782 565 m 833 810 l 165 810 l 189 924 l 857 924 l 833 810 m 369 0 l 258 200 q 216 269 235 243 q 179 309 197 296 q 140 326 161 322 q 92 331 119 331 l 321 381 q 359 358 342 371 q 391 329 376 346 q 420 292 406 313 q 450 247 435 272 l 601 0 l 369 0 m 694 679 q 657 528 694 589 q 562 430 619 467 q 442 376 504 393 q 331 358 381 360 l 253 331 l 65 331 l 100 497 l 299 497 q 428 537 386 497 q 469 671 469 576 q 440 731 469 714 q 354 749 411 749 l 153 749 l 178 868 l 381 868 q 614 826 533 868 q 694 679 694 783 z "},"₫":{"ha":817,"x_min":-35,"x_max":932,"o":"m -6 -81 l 631 -81 l 601 -214 l -35 -214 l -6 -81 m 379 790 l 407 924 l 932 924 l 904 790 l 379 790 m 269 -18 q 146 8 201 -18 q 57 94 90 35 q 24 256 24 154 q 74 498 24 392 q 218 665 124 604 q 446 725 313 725 q 495 722 471 725 q 546 713 519 719 l 611 1014 l 821 1014 l 656 235 q 650 194 650 213 q 662 163 650 171 q 696 156 674 156 q 720 157 707 156 q 750 163 733 158 l 721 -1 q 668 -14 694 -10 q 615 -18 642 -18 q 524 1 558 -18 q 476 51 490 19 q 392 4 443 26 q 269 -18 340 -18 m 513 544 q 475 556 497 551 q 431 560 453 560 q 325 520 369 560 q 256 413 281 481 q 232 261 232 346 q 254 173 232 199 q 317 147 276 147 q 381 160 347 147 q 438 190 415 172 l 513 544 z "},"₩":{"ha":1363,"x_min":51,"x_max":1375,"o":"m 93 503 l 117 617 l 306 617 l 282 503 l 93 503 m 51 310 l 76 424 l 304 424 l 279 310 l 51 310 m 1117 503 l 1140 617 l 1357 617 l 1333 503 l 1117 503 m 1064 310 l 1089 424 l 1317 424 l 1292 310 l 1064 310 m 432 0 l 217 0 l 199 924 l 419 924 l 408 294 l 663 758 l 846 758 l 901 283 q 1036 565 969 407 q 1167 924 1103 722 l 1375 924 q 1280 661 1329 786 q 1178 422 1231 536 q 1069 202 1125 307 q 953 0 1013 97 l 756 0 l 706 507 l 432 0 z "},"₪":{"ha":926,"x_min":0,"x_max":933,"o":"m 197 0 l 0 0 l 142 669 q 265 705 190 686 q 422 724 339 724 q 567 699 507 724 q 653 617 628 675 q 657 456 679 558 l 613 250 l 460 250 l 501 447 q 499 515 511 490 q 460 549 488 539 q 396 558 433 558 q 353 555 379 558 q 314 546 328 551 l 197 0 m 481 456 l 417 160 q 458 151 432 154 q 503 147 483 147 q 564 157 536 147 q 612 191 592 167 q 642 258 632 215 l 736 706 l 933 706 l 831 218 q 769 80 813 132 q 656 5 726 28 q 485 -18 586 -18 q 388 -9 436 -18 q 301 13 340 0 q 239 36 261 26 l 328 456 l 481 456 z "},"₭":{"ha":1003,"x_min":61,"x_max":1074,"o":"m 61 435 l 85 549 l 274 549 l 250 435 l 61 435 m 482 438 l 531 549 l 947 549 l 924 438 l 482 438 m 279 924 l 501 924 l 415 515 l 819 924 l 1074 924 l 683 536 q 757 490 726 521 q 808 401 788 458 q 842 253 829 344 l 876 0 l 643 0 l 621 196 q 598 310 613 269 q 561 367 583 350 q 507 385 539 383 l 357 243 l 306 0 l 83 0 l 279 924 z "},"₱":{"ha":972,"x_min":75,"x_max":1014,"o":"m 115 661 l 140 775 l 360 775 l 335 661 l 115 661 m 75 468 l 99 582 l 319 582 l 296 468 l 75 468 m 767 661 l 792 775 l 1014 775 l 989 661 l 767 661 m 722 468 l 746 582 l 972 582 l 949 468 l 722 468 m 465 749 l 410 490 q 452 486 429 488 q 499 485 475 485 q 564 495 533 485 q 617 526 594 506 q 653 578 640 546 q 667 654 667 611 q 653 713 667 692 q 614 741 640 733 q 547 749 588 749 l 465 749 m 282 924 l 572 924 q 747 899 676 924 q 853 818 818 875 q 889 665 889 761 q 839 476 889 557 q 699 351 789 396 q 492 307 610 307 q 432 308 461 307 q 372 315 403 310 l 303 0 l 81 0 l 282 924 z "},"₵":{"ha":797,"x_min":64,"x_max":808,"o":"m 640 829 l 483 829 l 526 1032 l 683 1032 l 640 829 m 329 107 l 486 107 l 439 -119 l 282 -119 l 329 107 m 808 911 l 765 729 q 687 750 733 740 q 579 760 640 760 q 455 726 508 760 q 366 633 401 693 q 313 490 331 572 q 294 308 294 407 q 324 199 294 232 q 444 165 354 165 q 554 179 499 165 q 643 201 610 193 l 624 21 q 522 -7 585 4 q 403 -18 460 -18 q 149 67 233 -18 q 64 307 64 151 q 95 556 64 440 q 190 758 126 671 q 352 892 254 844 q 583 940 450 940 q 717 930 661 940 q 808 911 774 919 z "},"₸":{"ha":864,"x_min":85,"x_max":925,"o":"m 121 650 l 867 650 l 831 475 l 569 475 l 468 0 l 246 0 l 347 475 l 85 475 l 121 650 m 889 749 l 143 749 l 179 924 l 925 924 l 889 749 z "},"₼":{"ha":882,"x_min":-14,"x_max":844,"o":"m 503 724 q 717 681 639 724 q 819 561 794 639 q 822 378 844 483 l 738 -18 l 513 -18 l 599 386 q 599 476 610 440 q 558 528 589 511 q 481 544 528 544 q 397 528 435 544 q 333 476 360 511 q 296 386 307 440 l 210 -18 l -14 -18 l 78 415 q 147 583 99 514 q 281 688 194 651 q 503 724 368 724 m 482 924 l 643 924 l 593 688 l 582 635 l 476 139 l 315 139 l 421 633 l 431 676 l 482 924 z "},"₽":{"ha":874,"x_min":8,"x_max":892,"o":"m 303 481 l 269 329 l 49 329 l 82 481 l 303 481 m 554 250 l 531 136 l 8 136 l 32 250 l 554 250 m 471 749 l 413 479 l 492 479 q 623 531 579 479 q 667 667 667 583 q 638 731 667 714 q 551 749 608 749 l 471 749 m 283 924 l 574 924 q 809 867 726 924 q 892 675 892 811 q 840 480 892 557 q 701 365 789 403 q 507 328 614 328 l 381 328 l 311 0 l 88 0 l 283 924 z "},"¤":{"ha":685,"x_min":-10,"x_max":735,"o":"m 568 764 l 735 764 l 588 592 l 433 607 l 568 764 m 281 764 l 349 607 l 200 589 l 124 764 l 281 764 m 446 138 l 378 294 l 533 294 l 601 138 l 446 138 m 158 138 l -10 138 l 147 324 l 293 294 l 158 138 m 399 689 q 556 643 503 689 q 608 504 608 597 q 594 401 608 453 q 549 307 581 350 q 463 238 517 264 q 326 213 408 213 q 169 258 222 213 q 117 397 117 304 q 131 500 117 449 q 176 594 144 551 q 263 663 208 638 q 399 689 317 689 m 343 358 q 400 380 379 358 q 429 431 421 401 q 438 486 438 461 q 424 531 438 518 q 382 543 411 543 q 325 522 346 543 q 296 470 304 500 q 288 415 288 440 q 301 371 288 383 q 343 358 314 358 z "},"°":{"ha":508,"x_min":90,"x_max":565,"o":"m 307 600 q 363 625 343 600 q 390 685 382 650 q 397 749 397 721 q 387 785 397 772 q 349 799 376 799 q 294 774 314 799 q 266 714 274 749 q 258 650 258 679 q 269 614 258 628 q 307 600 281 600 m 365 939 q 515 889 464 939 q 565 756 565 839 q 553 660 565 711 q 509 563 540 608 q 425 489 478 518 q 290 460 372 460 q 141 510 192 460 q 90 643 90 560 q 103 739 90 688 q 147 836 115 790 q 231 910 178 882 q 365 939 285 939 z "},"%":{"ha":1135,"x_min":104,"x_max":1075,"o":"m 878 924 l 1058 924 l 300 0 l 119 0 l 878 924 m 299 447 q 158 492 211 447 q 104 626 104 536 q 116 730 104 675 q 158 832 128 785 q 241 909 188 879 q 376 939 294 939 q 517 894 464 939 q 571 760 571 850 q 559 657 571 711 q 517 555 547 603 q 434 477 488 507 q 299 447 381 447 m 311 572 q 360 592 340 572 q 391 641 379 611 q 408 701 403 671 q 413 754 413 732 q 401 800 413 786 q 364 814 389 814 q 315 794 335 814 q 284 745 296 775 q 267 685 272 715 q 263 632 263 654 q 274 586 263 600 q 311 572 286 572 m 803 -18 q 662 26 715 -18 q 608 161 608 71 q 620 265 608 210 q 662 367 632 319 q 745 444 692 414 q 881 474 799 474 q 1022 429 968 474 q 1075 294 1075 385 q 1063 192 1075 246 q 1022 90 1051 138 q 938 12 992 42 q 803 -18 885 -18 m 815 107 q 864 126 844 107 q 895 176 883 146 q 912 236 907 206 q 917 289 917 267 q 905 335 917 321 q 868 349 893 349 q 819 329 839 349 q 788 280 800 310 q 772 219 776 250 q 767 167 767 189 q 778 121 767 135 q 815 107 790 107 z "},"‰":{"ha":1639,"x_min":104,"x_max":1575,"o":"m 1381 474 q 1522 429 1468 474 q 1575 294 1575 385 q 1563 192 1575 246 q 1522 90 1551 138 q 1438 12 1492 42 q 1303 -18 1385 -18 q 1162 26 1215 -18 q 1108 161 1108 71 q 1120 265 1108 210 q 1162 367 1132 319 q 1245 444 1192 414 q 1381 474 1299 474 m 878 924 l 1058 924 l 300 0 l 119 0 l 878 924 m 299 447 q 158 492 211 447 q 104 626 104 536 q 116 730 104 675 q 158 832 128 785 q 241 909 188 879 q 376 939 294 939 q 517 894 464 939 q 571 760 571 850 q 559 657 571 711 q 517 555 547 603 q 434 477 488 507 q 299 447 381 447 m 311 572 q 360 592 340 572 q 391 641 379 611 q 408 701 403 671 q 413 754 413 732 q 401 800 413 786 q 364 814 389 814 q 315 794 335 814 q 284 745 296 775 q 267 685 272 715 q 263 632 263 654 q 274 586 263 600 q 311 572 286 572 m 803 -18 q 662 26 715 -18 q 608 161 608 71 q 620 265 608 210 q 662 367 632 319 q 745 444 692 414 q 881 474 799 474 q 1022 429 968 474 q 1075 294 1075 385 q 1063 192 1075 246 q 1022 90 1051 138 q 938 12 992 42 q 803 -18 885 -18 m 815 107 q 864 126 844 107 q 895 176 883 146 q 912 236 907 206 q 917 289 917 267 q 905 335 917 321 q 868 349 893 349 q 819 329 839 349 q 788 280 800 310 q 772 219 776 250 q 767 167 767 189 q 778 121 767 135 q 815 107 790 107 m 1315 107 q 1364 126 1344 107 q 1395 176 1383 146 q 1412 236 1407 206 q 1417 289 1417 267 q 1405 335 1417 321 q 1368 349 1393 349 q 1319 329 1339 349 q 1288 280 1300 310 q 1272 219 1276 250 q 1267 167 1267 189 q 1278 121 1267 135 q 1315 107 1290 107 z "},"⁄":{"ha":339,"x_min":-279,"x_max":665,"o":"m 478 924 l 665 924 l -90 0 l -279 0 l 478 924 z "},"½":{"ha":1022,"x_min":14,"x_max":1008,"o":"m 128 896 l 261 929 l 385 929 l 282 444 l 136 444 l 211 793 l 101 767 l 128 896 m 771 924 l 958 924 l 203 0 l 14 0 l 771 924 m 693 354 l 707 476 q 768 489 732 483 q 844 494 804 494 q 966 464 924 494 q 1008 372 1008 433 q 992 298 1008 333 q 941 227 975 263 q 853 150 907 192 l 818 124 l 964 124 l 938 0 l 593 0 l 618 118 l 715 194 q 806 271 776 243 q 844 315 835 299 q 853 342 853 331 q 840 363 853 357 q 806 369 828 369 q 745 365 778 369 q 693 354 713 360 z "},"¼":{"ha":985,"x_min":14,"x_max":963,"o":"m 128 896 l 261 929 l 385 929 l 282 444 l 136 444 l 211 793 l 101 767 l 128 896 m 771 924 l 958 924 l 203 0 l 14 0 l 771 924 m 803 485 l 963 485 l 900 186 l 949 186 l 924 74 l 875 74 l 860 0 l 724 0 l 739 74 l 526 74 l 549 181 l 803 485 m 676 168 l 610 186 l 764 186 l 813 415 l 856 390 l 676 168 z "},"¾":{"ha":1076,"x_min":46,"x_max":1054,"o":"m 149 929 l 457 929 l 433 815 l 332 725 l 338 724 q 393 691 367 717 q 419 617 419 665 q 392 520 419 561 q 316 457 365 479 q 199 435 267 435 q 113 442 154 435 q 46 458 72 450 l 78 572 q 135 558 106 565 q 197 551 164 551 q 250 563 229 551 q 271 601 271 575 q 256 626 271 619 q 215 633 242 633 l 160 633 l 179 726 l 260 808 l 124 808 l 149 929 m 863 924 l 1050 924 l 294 0 l 106 0 l 863 924 m 894 485 l 1054 485 l 992 186 l 1040 186 l 1015 74 l 967 74 l 951 0 l 815 0 l 831 74 l 618 74 l 640 181 l 894 485 m 768 168 l 701 186 l 856 186 l 904 415 l 947 390 l 768 168 z "},"+":{"ha":735,"x_min":46,"x_max":726,"o":"m 81 525 l 307 525 l 351 731 l 544 731 l 500 525 l 726 525 l 692 361 l 465 361 l 422 154 l 229 154 l 272 361 l 46 361 l 81 525 z "},"−":{"ha":735,"x_min":46,"x_max":726,"o":"m 81 525 l 726 525 l 692 361 l 46 361 l 81 525 z "},"×":{"ha":643,"x_min":17,"x_max":664,"o":"m 93 624 l 458 147 l 588 263 l 224 740 l 93 624 m 17 263 l 126 147 l 664 624 l 556 740 l 17 263 z "},"÷":{"ha":735,"x_min":46,"x_max":726,"o":"m 81 525 l 726 525 l 692 361 l 46 361 l 81 525 m 354 283 q 430 259 403 283 q 457 193 457 235 q 415 99 457 133 q 307 65 372 65 q 232 90 260 65 q 204 156 204 114 q 247 249 204 215 q 354 283 290 283 m 465 807 q 541 783 514 807 q 568 717 568 758 q 526 623 568 657 q 418 589 483 589 q 343 613 371 589 q 315 679 315 638 q 358 773 315 739 q 465 807 401 807 z "},"=":{"ha":764,"x_min":31,"x_max":772,"o":"m 125 665 l 772 665 l 738 501 l 90 501 l 125 665 m 65 385 l 713 385 l 678 221 l 31 221 l 65 385 z "},"¬":{"ha":751,"x_min":79,"x_max":760,"o":"m 114 678 l 760 678 l 665 238 l 483 238 l 543 514 l 79 514 l 114 678 z "},"~":{"ha":754,"x_min":40,"x_max":754,"o":"m 621 561 l 754 497 q 692 402 722 444 q 621 336 661 360 q 519 313 581 313 q 446 328 482 314 q 376 362 410 343 q 314 395 343 381 q 264 410 285 410 q 217 388 235 410 q 175 324 200 367 l 40 386 q 97 479 69 438 q 163 546 125 521 q 257 571 200 571 q 331 556 293 571 q 405 522 368 542 q 474 488 442 503 q 529 474 506 474 q 576 496 558 474 q 621 561 594 518 z "},"<":{"ha":751,"x_min":46,"x_max":774,"o":"m 46 361 l 81 522 l 774 743 l 732 561 l 208 404 l 231 461 l 678 308 l 644 140 l 46 361 z "},">":{"ha":751,"x_min":15,"x_max":743,"o":"m 743 522 l 708 361 l 15 140 l 57 322 l 581 479 l 558 422 l 111 575 l 144 743 l 743 522 z "},"±":{"ha":761,"x_min":-18,"x_max":743,"o":"m 17 164 l 664 164 l 629 0 l -18 0 l 17 164 m 96 539 l 322 539 l 364 731 l 558 731 l 517 539 l 743 539 l 708 375 l 482 375 l 447 207 l 253 207 l 288 375 l 61 375 l 96 539 z "},"^":{"ha":696,"x_min":58,"x_max":701,"o":"m 379 924 l 558 924 l 701 501 l 515 501 l 419 819 l 494 831 l 260 501 l 58 501 l 379 924 z "},"≠":{"ha":764,"x_min":31,"x_max":772,"o":"m 65 385 l 713 385 l 678 221 l 31 221 l 65 385 m 125 665 l 772 665 l 738 501 l 90 501 l 125 665 m 558 806 l 742 806 l 243 81 l 60 81 l 558 806 z "},"≈":{"ha":765,"x_min":14,"x_max":788,"o":"m 594 418 l 728 354 q 666 259 697 301 q 594 193 635 217 q 494 169 554 169 q 420 185 457 171 q 350 219 383 200 q 288 252 317 238 q 238 267 260 267 q 192 245 210 267 q 149 181 174 224 l 14 243 q 71 336 43 294 q 136 403 99 378 q 231 428 174 428 q 305 413 267 428 q 379 379 343 399 q 447 345 415 360 q 504 331 479 331 q 551 353 533 331 q 594 418 568 375 m 653 696 l 788 632 q 724 537 756 579 q 653 471 693 494 q 553 447 613 447 q 479 463 515 449 q 409 497 443 478 q 347 530 375 515 q 296 544 318 544 q 251 523 268 544 q 207 458 233 501 l 74 521 q 131 614 103 572 q 196 681 158 656 q 290 706 233 706 q 364 691 326 706 q 438 657 401 676 q 507 623 475 638 q 563 608 539 608 q 610 631 592 608 q 653 696 628 653 z "},"≤":{"ha":776,"x_min":-18,"x_max":786,"o":"m 664 164 l 629 0 l -18 0 l 17 164 l 664 164 m 58 361 l 93 522 l 786 743 l 744 561 l 221 404 l 243 461 l 690 308 l 657 140 l 58 361 z "},"≥":{"ha":776,"x_min":-3,"x_max":754,"o":"m 32 164 l 679 164 l 644 0 l -3 0 l 32 164 m 754 522 l 719 361 l 26 140 l 68 322 l 592 479 l 569 422 l 122 575 l 156 743 l 754 522 z "},"∞":{"ha":908,"x_min":39,"x_max":908,"o":"m 392 443 q 347 497 368 478 q 292 517 325 517 q 233 494 260 517 q 206 426 206 471 q 222 383 206 397 q 261 369 238 369 q 324 388 294 369 q 392 443 353 407 m 492 565 q 568 619 531 597 q 646 653 606 642 q 733 664 686 664 q 860 616 811 664 q 908 474 908 568 q 874 340 908 396 q 783 255 840 285 q 656 225 726 225 q 568 237 603 225 q 508 271 533 249 q 456 322 482 293 q 379 268 417 290 q 301 235 342 246 q 214 224 261 224 q 88 272 138 224 q 39 414 39 319 q 73 547 39 492 q 165 633 107 603 q 292 663 222 663 q 380 651 346 663 q 440 617 414 639 q 492 565 465 596 m 556 444 q 601 390 579 410 q 656 371 622 371 q 715 394 688 371 q 742 461 742 418 q 726 504 742 490 q 686 518 710 518 q 624 499 653 518 q 556 444 596 481 z "},"◊":{"ha":718,"x_min":33,"x_max":732,"o":"m 210 0 l 33 463 l 407 925 l 557 925 l 732 463 l 360 0 l 210 0 m 318 194 l 532 476 l 449 732 l 233 449 l 318 194 z "},"√":{"ha":801,"x_min":64,"x_max":981,"o":"m 92 706 l 389 706 l 408 181 l 774 924 l 981 924 l 499 0 l 246 0 l 192 574 l 64 574 l 92 706 z "},"∫":{"ha":346,"x_min":-200,"x_max":556,"o":"m -200 -278 l -164 -111 l -151 -111 q -88 -101 -117 -111 q -40 -63 -60 -90 q -8 11 -19 -36 l 147 743 q 220 919 171 857 q 340 1007 269 982 q 501 1032 411 1032 l 556 1032 l 519 865 l 507 865 q 444 855 472 865 q 395 818 415 844 q 365 743 375 792 l 208 10 q 135 -165 185 -103 q 15 -253 86 -228 q -146 -278 -57 -278 l -200 -278 z "},"∂":{"ha":736,"x_min":-1,"x_max":775,"o":"m 228 -17 q 61 46 124 -17 q -1 204 -1 108 q 20 329 -1 267 q 88 443 42 392 q 204 526 133 494 q 375 557 275 557 q 482 544 432 557 q 560 513 532 532 l 493 368 q 435 394 469 383 q 360 406 400 406 q 284 386 315 406 q 233 337 253 367 q 203 276 213 307 q 193 221 193 244 q 211 169 193 189 q 260 150 229 150 q 342 180 303 150 q 417 259 382 210 q 483 368 453 308 q 534 488 513 428 q 567 598 556 547 q 579 681 579 649 q 551 753 579 733 q 465 774 522 774 q 365 763 414 774 q 263 735 315 753 l 278 896 q 392 928 338 917 q 508 940 446 940 q 649 918 589 940 q 742 844 708 896 q 775 703 775 793 q 760 576 775 650 q 715 422 744 503 q 640 264 685 342 q 533 122 594 186 q 396 21 472 58 q 228 -17 319 -17 z "},"∏":{"ha":968,"x_min":64,"x_max":1046,"o":"m 164 924 l 1046 924 l 1007 740 l 911 740 l 754 0 l 531 0 l 688 740 l 444 740 l 288 0 l 64 0 l 221 740 l 125 740 l 164 924 z "},"∑":{"ha":768,"x_min":-18,"x_max":807,"o":"m 418 749 l 615 468 l 317 176 l 679 176 l 642 0 l -18 0 l 18 169 l 339 482 l 143 756 l 178 924 l 807 924 l 771 749 l 418 749 z "},"π":{"ha":854,"x_min":58,"x_max":908,"o":"m 96 706 l 908 706 l 871 529 l 751 529 l 639 0 l 426 0 l 539 529 l 390 529 l 278 0 l 65 0 l 178 529 l 58 529 l 96 706 z "},"Δ":{"ha":854,"x_min":-40,"x_max":746,"o":"m -40 0 l 435 925 l 663 925 l 746 0 l -40 0 m 536 79 l 489 832 l 589 829 l 217 75 l 149 175 l 649 175 l 536 79 z "},"Ω":{"ha":949,"x_min":-15,"x_max":924,"o":"m 582 940 q 831 865 738 940 q 924 629 924 790 q 892 437 924 526 q 812 280 860 347 q 715 175 764 213 l 851 175 l 814 0 l 449 0 l 486 178 q 590 272 540 211 q 672 419 640 332 q 704 621 704 507 q 667 728 704 697 q 560 760 631 760 q 455 733 499 760 q 383 662 411 706 q 337 565 354 618 q 313 460 319 513 q 306 367 306 408 q 315 288 306 322 q 342 227 324 254 q 386 178 360 200 l 349 0 l -15 0 l 22 175 l 183 175 q 121 268 149 213 q 93 408 93 324 q 111 556 93 481 q 166 699 129 631 q 260 822 203 768 q 398 908 318 876 q 582 940 478 940 z "},"ℓ":{"ha":572,"x_min":17,"x_max":626,"o":"m 249 276 l 246 260 q 242 196 238 218 q 263 165 247 174 q 297 156 278 156 q 365 162 329 156 q 431 175 400 168 l 400 11 q 310 -12 350 -6 q 224 -18 269 -18 q 101 17 150 -18 q 35 117 53 51 q 35 272 17 182 l 115 656 q 183 826 139 764 q 287 914 228 888 q 410 940 346 940 q 564 891 501 940 q 626 728 626 842 q 592 560 626 633 q 501 433 557 488 q 378 339 444 378 q 249 276 311 300 m 282 433 q 358 509 324 463 q 411 607 392 556 q 431 703 431 658 q 422 746 431 731 q 399 761 414 761 q 356 727 375 761 q 325 632 338 693 l 282 433 z "},"µ":{"ha":732,"x_min":-67,"x_max":744,"o":"m 532 706 l 744 706 l 603 36 q 519 12 569 25 q 410 -10 469 -1 q 293 -18 351 -18 q 160 6 222 -18 q 74 86 99 29 q 45 150 63 114 q 38 232 28 186 l 139 706 l 350 706 l 249 231 q 251 179 242 197 q 283 154 261 161 q 333 147 304 147 q 376 151 350 147 q 415 160 401 154 l 532 706 m 136 -261 l -67 -261 l 40 239 l 243 239 l 136 -261 z "},"ſ":{"ha":399,"x_min":43,"x_max":675,"o":"m 425 768 l 261 0 l 43 0 l 158 543 l 60 543 l 94 706 l 193 706 l 207 768 q 322 971 238 913 q 528 1029 406 1029 q 606 1026 565 1029 q 675 1015 646 1022 l 622 854 q 577 860 600 858 q 532 863 554 863 q 465 843 493 863 q 425 768 436 824 z "},"ƒ":{"ha":686,"x_min":46,"x_max":804,"o":"m 81 614 l 229 614 l 243 679 q 369 882 274 824 q 607 940 465 940 q 710 933 657 940 q 804 918 764 926 l 753 757 q 683 769 718 764 q 613 774 647 774 q 513 754 554 774 q 461 679 472 735 l 447 614 l 717 614 l 682 451 l 413 451 l 317 0 l 99 0 l 194 451 l 46 451 l 81 614 z "},"ﬁ":{"ha":832,"x_min":43,"x_max":865,"o":"m 94 706 l 193 706 l 201 747 q 339 968 236 904 q 594 1032 442 1032 q 686 1028 636 1032 q 783 1019 736 1025 q 865 1006 831 1014 l 813 844 q 703 860 758 854 q 600 865 649 865 q 483 841 531 865 q 419 747 435 817 l 411 706 l 843 706 l 693 0 l 482 0 l 597 543 l 376 543 l 261 0 l 43 0 l 158 543 l 60 543 l 94 706 z "},"ﬂ":{"ha":835,"x_min":43,"x_max":908,"o":"m 94 706 l 193 706 l 201 747 q 339 968 236 904 q 594 1032 442 1032 q 699 1027 642 1032 q 813 1015 757 1022 q 908 999 868 1008 l 856 838 q 724 857 790 849 q 600 865 658 865 q 483 841 531 865 q 419 747 435 817 l 411 706 l 519 706 l 485 543 l 376 543 l 261 0 l 43 0 l 158 543 l 60 543 l 94 706 m 697 999 l 908 999 l 696 0 l 485 0 l 697 999 z "},"⁰":{"ha":457,"x_min":131,"x_max":563,"o":"m 386 1090 q 563 918 563 1090 q 552 815 563 872 q 514 706 542 758 q 436 620 486 654 q 307 586 386 586 q 131 758 131 586 q 141 861 131 804 q 179 970 151 918 q 257 1056 207 1022 q 386 1090 307 1090 m 319 711 q 368 735 349 711 q 398 794 388 760 q 413 863 408 829 q 417 915 417 896 q 374 965 417 965 q 325 941 344 965 q 295 882 306 917 q 281 814 285 847 q 276 761 276 781 q 319 711 276 711 z "},"¹":{"ha":293,"x_min":149,"x_max":432,"o":"m 175 1047 l 308 1081 l 432 1081 l 329 596 l 183 596 l 258 944 l 149 918 l 175 1047 z "},"²":{"ha":390,"x_min":88,"x_max":503,"o":"m 188 950 l 201 1072 q 263 1085 226 1079 q 339 1090 299 1090 q 460 1060 418 1090 q 503 968 503 1029 q 486 894 503 929 q 435 823 469 858 q 347 746 401 788 l 313 719 l 458 719 l 432 596 l 88 596 l 113 714 l 210 790 q 300 867 271 839 q 338 910 329 894 q 347 938 347 926 q 335 959 347 953 q 300 965 322 965 q 240 960 272 965 q 188 950 207 956 z "},"³":{"ha":385,"x_min":93,"x_max":504,"o":"m 196 1081 l 504 1081 l 481 967 l 379 876 l 385 875 q 440 842 414 868 q 467 768 467 817 q 440 672 467 713 q 363 608 413 631 q 246 586 314 586 q 160 594 201 586 q 93 610 119 601 l 125 724 q 182 710 153 717 q 244 703 211 703 q 297 715 276 703 q 318 753 318 726 q 303 778 318 771 q 263 785 289 785 l 207 785 l 226 878 l 307 960 l 171 960 l 196 1081 z "},"⁴":{"ha":429,"x_min":97,"x_max":533,"o":"m 374 1081 l 533 1081 l 471 782 l 519 782 l 494 669 l 446 669 l 431 596 l 294 596 l 310 669 l 97 669 l 119 776 l 374 1081 m 247 764 l 181 782 l 335 782 l 383 1011 l 426 986 l 247 764 z "},"⁵":{"ha":379,"x_min":97,"x_max":501,"o":"m 464 775 q 403 637 464 688 q 244 586 342 586 q 166 592 203 586 q 97 607 129 597 l 129 722 q 189 707 161 713 q 243 701 217 701 q 297 716 279 701 q 315 757 315 731 q 301 781 315 774 q 256 789 286 789 q 224 787 246 789 q 161 781 201 785 l 147 803 l 228 1081 l 501 1081 l 476 960 l 317 960 l 299 899 q 306 899 300 899 q 317 899 311 899 q 424 870 383 899 q 464 775 464 842 z "},"⁶":{"ha":417,"x_min":126,"x_max":529,"o":"m 254 778 l 275 886 q 317 899 293 893 q 368 906 342 906 q 469 874 433 906 q 504 785 504 843 q 481 688 504 733 q 409 614 457 642 q 289 586 361 586 q 172 627 217 586 q 126 761 126 668 q 142 876 126 818 q 193 982 158 933 q 281 1060 228 1031 q 410 1090 335 1090 q 474 1086 439 1090 q 529 1076 508 1082 l 494 963 q 445 971 472 968 q 403 974 418 974 q 337 954 364 974 q 294 903 310 935 q 272 835 279 872 q 265 763 265 799 q 276 716 265 729 q 308 703 288 703 q 356 722 342 703 q 371 764 371 742 q 322 797 371 797 q 285 792 306 797 q 254 778 265 786 z "},"⁷":{"ha":365,"x_min":79,"x_max":522,"o":"m 188 1081 l 522 1081 l 499 967 l 238 596 l 79 596 l 332 954 l 161 954 l 188 1081 z "},"⁸":{"ha":425,"x_min":113,"x_max":538,"o":"m 322 796 q 272 773 288 796 q 257 725 257 750 q 299 690 257 690 q 344 710 326 690 q 363 760 363 729 q 322 796 363 796 m 447 838 q 486 803 471 824 q 501 757 501 783 q 478 676 501 715 q 408 611 456 636 q 285 586 360 586 q 156 620 200 586 q 113 711 113 654 q 135 790 113 751 q 210 847 157 829 q 179 876 190 858 q 168 921 168 894 q 190 998 168 958 q 258 1064 211 1038 q 379 1090 304 1090 q 499 1058 460 1090 q 538 976 538 1026 q 513 892 538 928 q 447 838 488 856 m 363 988 q 323 969 338 988 q 308 922 308 951 q 342 890 308 890 q 381 909 365 890 q 396 958 396 928 q 363 988 396 988 z "},"⁹":{"ha":417,"x_min":124,"x_max":526,"o":"m 399 899 l 378 790 q 335 778 360 785 q 285 771 311 771 q 185 802 221 771 q 149 892 149 833 q 172 990 149 944 q 244 1063 196 1035 q 364 1090 292 1090 q 481 1049 436 1090 q 526 915 526 1008 q 510 801 526 858 q 460 694 494 743 q 372 616 425 646 q 243 586 318 586 q 179 590 214 586 q 124 600 144 594 l 158 714 q 209 706 182 708 q 250 703 236 703 q 317 722 290 703 q 358 773 343 742 q 381 842 374 804 q 388 914 388 879 q 376 960 388 947 q 344 974 365 974 q 297 955 311 974 q 282 913 282 936 q 331 879 282 879 q 367 885 347 879 q 399 899 388 890 z "},"←":{"ha":914,"x_min":36,"x_max":868,"o":"m 353 696 l 56 394 q 36 349 36 375 q 56 303 36 322 l 349 13 l 468 133 l 207 360 l 207 342 l 472 576 l 353 696 m 193 278 l 868 278 l 868 433 l 193 433 l 193 278 z "},"↑":{"ha":746,"x_min":33,"x_max":717,"o":"m 33 515 l 153 396 l 388 661 l 369 661 l 596 400 l 717 519 l 426 813 q 381 832 407 832 q 335 813 354 832 l 33 515 m 451 675 l 296 675 l 296 0 l 451 0 l 451 675 z "},"→":{"ha":915,"x_min":46,"x_max":878,"o":"m 561 696 l 442 576 l 707 342 l 707 360 l 446 133 l 565 13 l 858 303 q 878 349 878 322 q 858 394 878 375 l 561 696 m 721 278 l 721 433 l 46 433 l 46 278 l 721 278 z "},"↓":{"ha":743,"x_min":28,"x_max":711,"o":"m 28 299 l 329 1 q 375 -18 349 -18 q 421 1 401 -18 l 711 294 l 590 414 l 364 153 l 382 153 l 147 418 l 28 299 m 446 139 l 446 814 l 290 814 l 290 139 l 446 139 z "},"↔":{"ha":1204,"x_min":36,"x_max":1167,"o":"m 353 696 l 56 394 q 36 349 36 375 q 56 303 36 322 l 349 13 l 468 133 l 207 360 l 207 342 l 472 576 l 353 696 m 193 278 l 799 278 l 799 433 l 193 433 l 193 278 m 850 696 l 731 576 l 996 342 l 996 360 l 735 133 l 854 13 l 1147 303 q 1167 349 1167 322 q 1147 394 1167 375 l 850 696 m 1010 278 l 1010 433 l 404 433 l 404 278 l 1010 278 z "},"↕":{"ha":758,"x_min":36,"x_max":719,"o":"m 36 299 l 338 1 q 383 -18 357 -18 q 429 1 410 -18 l 719 294 l 599 414 l 372 153 l 390 153 l 156 418 l 36 299 m 454 139 l 454 665 l 299 665 l 299 139 l 454 139 m 36 717 l 156 597 l 390 863 l 372 863 l 599 601 l 719 721 l 429 1014 q 383 1033 410 1033 q 338 1014 357 1033 l 36 717 m 454 876 l 299 876 l 299 350 l 454 350 l 454 876 z "},"↖":{"ha":754,"x_min":65,"x_max":725,"o":"m 65 185 l 235 185 l 213 539 l 200 526 l 544 501 l 546 671 l 133 674 q 87 655 106 674 q 68 608 68 636 l 65 185 m 139 483 l 615 6 l 725 117 l 249 593 l 139 483 z "},"↗":{"ha":754,"x_min":29,"x_max":689,"o":"m 689 185 l 686 608 q 667 655 686 636 q 621 674 649 674 l 208 671 l 210 501 l 554 526 l 542 539 l 519 185 l 689 185 m 615 483 l 506 593 l 29 117 l 139 6 l 615 483 z "},"↘":{"ha":757,"x_min":31,"x_max":690,"o":"m 690 547 l 521 547 l 543 193 l 556 206 l 211 231 l 210 61 l 622 58 q 669 77 650 58 q 688 124 688 96 l 690 547 m 617 249 l 140 726 l 31 615 l 507 139 l 617 249 z "},"↙":{"ha":757,"x_min":67,"x_max":726,"o":"m 67 547 l 69 124 q 88 77 69 96 q 135 58 107 58 l 547 61 l 546 231 l 201 206 l 214 193 l 236 547 l 67 547 m 140 249 l 250 139 l 726 615 l 617 726 l 140 249 z "},"℮":{"ha":1003,"x_min":83,"x_max":933,"o":"m 933 357 l 244 357 q 239 353 239 357 l 239 144 q 249 119 239 132 q 365 38 297 68 q 510 8 433 8 q 663 42 593 8 q 783 133 733 76 l 844 133 q 699 26 788 67 q 508 -15 611 -15 q 344 15 421 -15 q 208 97 267 44 q 117 218 150 149 q 83 367 83 288 q 117 516 83 446 q 208 639 150 586 q 344 722 267 692 q 508 751 421 751 q 673 722 596 751 q 808 639 750 692 q 900 516 867 586 q 933 367 933 446 l 933 357 m 778 383 l 778 593 q 767 619 778 608 q 652 699 718 669 q 510 728 586 728 q 366 698 433 728 q 250 615 299 668 q 239 589 239 607 l 239 383 q 244 378 239 378 l 774 378 q 778 383 778 378 z "}}}
